<svg xmlns="http://www.w3.org/2000/svg" xmlns:xlink="http://www.w3.org/1999/xlink" contentStyleType="text/css" data-diagram-type="DESCRIPTION" height="707.2917px" preserveAspectRatio="none" style="width:1815px;height:707px;" version="1.1" viewBox="0 0 1815 707" width="1815.625px" zoomAndPan="magnify"><title>WhatsApp-Email Authentication System Architecture</title><defs><linearGradient id="ge33lxkv36ba90" x1="50%" x2="50%" y1="0%" y2="100%"><stop offset="0%" stop-color="#FFFFFF"/><stop offset="100%" stop-color="#EEEEEE"/></linearGradient><linearGradient id="ge33lxkv36ba91" x1="50%" x2="50%" y1="0%" y2="100%"><stop offset="0%" stop-color="#F18E3E"/><stop offset="100%" stop-color="#EC7211"/></linearGradient></defs><g><g class="title" data-source-line="2"><rect fill="url(#ge33lxkv36ba90)" height="45.0846" rx="4.1667" ry="4.1667" style="stroke:#EEEEEE;stroke-width:1.0417;" width="643.2902" x="578.8757" y="5.2083"/><text fill="#EC7211" font-family="'Verdana'" font-size="20.8333" font-weight="bold" lengthAdjust="spacing" textLength="622.4569" x="589.2924" y="34.963">WhatsApp-Email Authentication System Architecture</text></g><!--cluster Frontend Layer--><g class="cluster" data-entity="Frontend Layer" data-source-line="4" data-uid="ent0002" id="cluster_Frontend Layer"><path d="M146.875,62.793 L263.2406,62.793 A6.25,6.25 0 0 1 267.4072,66.9596 L274.6989,94.0104 L334.375,94.0104 A4.1667,4.1667 0 0 1 338.5417,98.1771 L338.5417,293.9701 A4.1667,4.1667 0 0 1 334.375,298.1367 L146.875,298.1367 A4.1667,4.1667 0 0 1 142.7083,293.9701 L142.7083,66.9596 A4.1667,4.1667 0 0 1 146.875,62.793" fill="none" style="stroke:#4E5D6C;stroke-width:2.0833;"/><line style="stroke:#4E5D6C;stroke-width:2.0833;" x1="142.7083" x2="274.6989" y1="94.0104" y2="94.0104"/><text fill="#4E5D6C" font-family="'Verdana'" font-size="12.5" font-weight="bold" lengthAdjust="spacing" textLength="108.0322" x="152.0833" y="81.6874">Frontend Layer</text></g><!--cluster AWS Cognito--><g class="cluster" data-entity="AWS Cognito" data-source-line="9" data-uid="ent0005" id="cluster_AWS Cognito"><path d="M10.4167,323.1367 L110.022,323.1367 A6.25,6.25 0 0 1 114.1886,327.3034 L121.4803,354.3542 L334.375,354.3542 A4.1667,4.1667 0 0 1 338.5417,358.5208 L338.5417,554.3242 A4.1667,4.1667 0 0 1 334.375,558.4909 L10.4167,558.4909 A4.1667,4.1667 0 0 1 6.25,554.3242 L6.25,327.3034 A4.1667,4.1667 0 0 1 10.4167,323.1367" fill="none" style="stroke:#4E5D6C;stroke-width:2.0833;"/><line style="stroke:#4E5D6C;stroke-width:2.0833;" x1="6.25" x2="121.4803" y1="354.3542" y2="354.3542"/><text fill="#4E5D6C" font-family="'Verdana'" font-size="12.5" font-weight="bold" lengthAdjust="spacing" textLength="91.272" x="15.625" y="342.0312">AWS Cognito</text></g><!--cluster Lambda Functions--><g class="cluster" data-entity="Lambda Functions" data-source-line="15" data-uid="ent0009" id="cluster_Lambda Functions"><path d="M367.7083,441.8555 L505.0822,441.8555 A6.25,6.25 0 0 1 509.2489,446.0221 L516.5405,473.0729 L1611.4583,473.0729 A4.1667,4.1667 0 0 1 1615.625,477.2396 L1615.625,554.3242 A4.1667,4.1667 0 0 1 1611.4583,558.4909 L367.7083,558.4909 A4.1667,4.1667 0 0 1 363.5417,554.3242 L363.5417,446.0221 A4.1667,4.1667 0 0 1 367.7083,441.8555" fill="none" style="stroke:#4E5D6C;stroke-width:2.0833;"/><line style="stroke:#4E5D6C;stroke-width:2.0833;" x1="363.5417" x2="516.5405" y1="473.0729" y2="473.0729"/><text fill="#4E5D6C" font-family="'Verdana'" font-size="12.5" font-weight="bold" lengthAdjust="spacing" textLength="129.0405" x="372.9167" y="460.7499">Lambda Functions</text></g><!--cluster External Services--><g class="cluster" data-entity="External Services" data-source-line="23" data-uid="ent0015" id="cluster_External Services"><path d="M1354.1667,583.4909 L1485.0952,583.4909 A6.25,6.25 0 0 1 1489.2619,587.6576 L1496.5535,614.7083 L1804.1667,614.7083 A4.1667,4.1667 0 0 1 1808.3333,618.875 L1808.3333,695.9596 A4.1667,4.1667 0 0 1 1804.1667,700.1263 L1354.1667,700.1263 A4.1667,4.1667 0 0 1 1350,695.9596 L1350,587.6576 A4.1667,4.1667 0 0 1 1354.1667,583.4909" fill="none" style="stroke:#4E5D6C;stroke-width:2.0833;"/><line style="stroke:#4E5D6C;stroke-width:2.0833;" x1="1350" x2="1496.5535" y1="614.7083" y2="614.7083"/><text fill="#4E5D6C" font-family="'Verdana'" font-size="12.5" font-weight="bold" lengthAdjust="spacing" textLength="122.5952" x="1359.375" y="602.3853">External Services</text></g><!--cluster Storage--><g class="cluster" data-entity="Storage" data-source-line="28" data-uid="ent0018" id="cluster_Storage"><path d="M875,583.4909 L938.9242,583.4909 A6.25,6.25 0 0 1 943.0908,587.6576 L950.3825,614.7083 L1060.4167,614.7083 A4.1667,4.1667 0 0 1 1064.5833,618.875 L1064.5833,695.9596 A4.1667,4.1667 0 0 1 1060.4167,700.1263 L875,700.1263 A4.1667,4.1667 0 0 1 870.8333,695.9596 L870.8333,587.6576 A4.1667,4.1667 0 0 1 875,583.4909" fill="none" style="stroke:#4E5D6C;stroke-width:2.0833;"/><line style="stroke:#4E5D6C;stroke-width:2.0833;" x1="870.8333" x2="950.3825" y1="614.7083" y2="614.7083"/><text fill="#4E5D6C" font-family="'Verdana'" font-size="12.5" font-weight="bold" lengthAdjust="spacing" textLength="55.5908" x="880.2083" y="602.3853">Storage</text></g><!--entity React--><g class="entity" data-entity="React" data-source-line="5" data-uid="ent0003" id="entity_React"><rect fill="url(#ge33lxkv36ba91)" height="56.2174" rx="4.1667" ry="4.1667" style="stroke:#EC7211;stroke-width:1.0417;" width="148.2137" x="166.5208" y="106.543"/><rect fill="url(#ge33lxkv36ba91)" height="10.4167" style="stroke:#EC7211;stroke-width:1.0417;" width="15.625" x="293.9012" y="111.7513"/><rect fill="url(#ge33lxkv36ba91)" height="2.0833" style="stroke:#EC7211;stroke-width:1.0417;" width="4.1667" x="291.8179" y="113.8346"/><rect fill="url(#ge33lxkv36ba91)" height="2.0833" style="stroke:#EC7211;stroke-width:1.0417;" width="4.1667" x="291.8179" y="118.0013"/><text fill="#FFFFFF" font-family="'Verdana'" font-size="12.5" lengthAdjust="spacing" textLength="96.1304" x="187.3542" y="144.1874">React Frontend</text></g><!--entity Amplify--><g class="entity" data-entity="Amplify" data-source-line="6" data-uid="ent0004" id="entity_Amplify"><rect fill="url(#ge33lxkv36ba91)" height="56.2174" rx="4.1667" ry="4.1667" style="stroke:#EC7211;stroke-width:1.0417;" width="162.0382" x="159.6042" y="225.2513"/><rect fill="url(#ge33lxkv36ba91)" height="10.4167" style="stroke:#EC7211;stroke-width:1.0417;" width="15.625" x="300.809" y="230.4596"/><rect fill="url(#ge33lxkv36ba91)" height="2.0833" style="stroke:#EC7211;stroke-width:1.0417;" width="4.1667" x="298.7257" y="232.543"/><rect fill="url(#ge33lxkv36ba91)" height="2.0833" style="stroke:#EC7211;stroke-width:1.0417;" width="4.1667" x="298.7257" y="236.7096"/><text fill="#FFFFFF" font-family="'Verdana'" font-size="12.5" lengthAdjust="spacing" textLength="109.9548" x="180.4375" y="262.8958">AWS Amplify SDK</text></g><!--entity UserPool--><g class="entity" data-entity="UserPool" data-source-line="10" data-uid="ent0006" id="entity_UserPool"><rect fill="url(#ge33lxkv36ba91)" height="56.2174" rx="4.1667" ry="4.1667" style="stroke:#EC7211;stroke-width:1.0417;" width="163.0819" x="159.0833" y="366.8867"/><rect fill="url(#ge33lxkv36ba91)" height="10.4167" style="stroke:#EC7211;stroke-width:1.0417;" width="15.625" x="301.3319" y="372.0951"/><rect fill="url(#ge33lxkv36ba91)" height="2.0833" style="stroke:#EC7211;stroke-width:1.0417;" width="4.1667" x="299.2485" y="374.1784"/><rect fill="url(#ge33lxkv36ba91)" height="2.0833" style="stroke:#EC7211;stroke-width:1.0417;" width="4.1667" x="299.2485" y="378.3451"/><text fill="#FFFFFF" font-family="'Verdana'" font-size="12.5" lengthAdjust="spacing" textLength="110.9985" x="179.9167" y="404.5312">Cognito User Pool</text></g><!--entity SignupClient--><g class="entity" data-entity="SignupClient" data-source-line="11" data-uid="ent0007" id="entity_SignupClient"><rect fill="url(#ge33lxkv36ba91)" height="56.2174" rx="4.1667" ry="4.1667" style="stroke:#EC7211;stroke-width:1.0417;" width="135.3658" x="22.9375" y="485.6055"/><rect fill="url(#ge33lxkv36ba91)" height="10.4167" style="stroke:#EC7211;stroke-width:1.0417;" width="15.625" x="137.47" y="490.8138"/><rect fill="url(#ge33lxkv36ba91)" height="2.0833" style="stroke:#EC7211;stroke-width:1.0417;" width="4.1667" x="135.3866" y="492.8971"/><rect fill="url(#ge33lxkv36ba91)" height="2.0833" style="stroke:#EC7211;stroke-width:1.0417;" width="4.1667" x="135.3866" y="497.0638"/><text fill="#FFFFFF" font-family="'Verdana'" font-size="12.5" lengthAdjust="spacing" textLength="83.2825" x="43.7708" y="523.2499">Signup Client</text></g><!--entity LoginClient--><g class="entity" data-entity="LoginClient" data-source-line="12" data-uid="ent0008" id="entity_LoginClient"><rect fill="url(#ge33lxkv36ba91)" height="56.2174" rx="4.1667" ry="4.1667" style="stroke:#EC7211;stroke-width:1.0417;" width="126.1861" x="195.2396" y="485.6055"/><rect fill="url(#ge33lxkv36ba91)" height="10.4167" style="stroke:#EC7211;stroke-width:1.0417;" width="15.625" x="300.5924" y="490.8138"/><rect fill="url(#ge33lxkv36ba91)" height="2.0833" style="stroke:#EC7211;stroke-width:1.0417;" width="4.1667" x="298.509" y="492.8971"/><rect fill="url(#ge33lxkv36ba91)" height="2.0833" style="stroke:#EC7211;stroke-width:1.0417;" width="4.1667" x="298.509" y="497.0638"/><text fill="#FFFFFF" font-family="'Verdana'" font-size="12.5" lengthAdjust="spacing" textLength="74.1028" x="216.0729" y="523.2499">Login Client</text></g><!--entity PreSignUp--><g class="entity" data-entity="PreSignUp" data-source-line="16" data-uid="ent0010" id="entity_PreSignUp"><rect fill="url(#ge33lxkv36ba91)" height="56.2174" rx="4.1667" ry="4.1667" style="stroke:#EC7211;stroke-width:1.0417;" width="165.7186" x="650.4792" y="485.6055"/><rect fill="url(#ge33lxkv36ba91)" height="10.4167" style="stroke:#EC7211;stroke-width:1.0417;" width="15.625" x="795.3644" y="490.8138"/><rect fill="url(#ge33lxkv36ba91)" height="2.0833" style="stroke:#EC7211;stroke-width:1.0417;" width="4.1667" x="793.2811" y="492.8971"/><rect fill="url(#ge33lxkv36ba91)" height="2.0833" style="stroke:#EC7211;stroke-width:1.0417;" width="4.1667" x="793.2811" y="497.0638"/><text fill="#FFFFFF" font-family="'Verdana'" font-size="12.5" lengthAdjust="spacing" textLength="113.6353" x="671.3125" y="523.2499">PreSignUp Trigger</text></g><!--entity DefineAuth--><g class="entity" data-entity="DefineAuth" data-source-line="17" data-uid="ent0011" id="entity_DefineAuth"><rect fill="url(#ge33lxkv36ba91)" height="56.2174" rx="4.1667" ry="4.1667" style="stroke:#EC7211;stroke-width:1.0417;" width="233.5958" x="380.0729" y="485.6055"/><rect fill="url(#ge33lxkv36ba91)" height="10.4167" style="stroke:#EC7211;stroke-width:1.0417;" width="15.625" x="592.8354" y="490.8138"/><rect fill="url(#ge33lxkv36ba91)" height="2.0833" style="stroke:#EC7211;stroke-width:1.0417;" width="4.1667" x="590.752" y="492.8971"/><rect fill="url(#ge33lxkv36ba91)" height="2.0833" style="stroke:#EC7211;stroke-width:1.0417;" width="4.1667" x="590.752" y="497.0638"/><text fill="#FFFFFF" font-family="'Verdana'" font-size="12.5" lengthAdjust="spacing" textLength="181.5125" x="400.9063" y="523.2499">DefineAuthChallenge Trigger</text></g><!--entity CreateAuth--><g class="entity" data-entity="CreateAuth" data-source-line="18" data-uid="ent0012" id="entity_CreateAuth"><rect fill="url(#ge33lxkv36ba91)" height="56.2174" rx="4.1667" ry="4.1667" style="stroke:#EC7211;stroke-width:1.0417;" width="234.6029" x="1363.9479" y="485.6055"/><rect fill="url(#ge33lxkv36ba91)" height="10.4167" style="stroke:#EC7211;stroke-width:1.0417;" width="15.625" x="1577.7174" y="490.8138"/><rect fill="url(#ge33lxkv36ba91)" height="2.0833" style="stroke:#EC7211;stroke-width:1.0417;" width="4.1667" x="1575.6341" y="492.8971"/><rect fill="url(#ge33lxkv36ba91)" height="2.0833" style="stroke:#EC7211;stroke-width:1.0417;" width="4.1667" x="1575.6341" y="497.0638"/><text fill="#FFFFFF" font-family="'Verdana'" font-size="12.5" lengthAdjust="spacing" textLength="182.5195" x="1384.7813" y="523.2499">CreateAuthChallenge Trigger</text></g><!--entity VerifyAuth--><g class="entity" data-entity="VerifyAuth" data-source-line="19" data-uid="ent0013" id="entity_VerifyAuth"><rect fill="url(#ge33lxkv36ba91)" height="56.2174" rx="4.1667" ry="4.1667" style="stroke:#EC7211;stroke-width:1.0417;" width="229.4454" x="852.9896" y="485.6055"/><rect fill="url(#ge33lxkv36ba91)" height="10.4167" style="stroke:#EC7211;stroke-width:1.0417;" width="15.625" x="1061.6016" y="490.8138"/><rect fill="url(#ge33lxkv36ba91)" height="2.0833" style="stroke:#EC7211;stroke-width:1.0417;" width="4.1667" x="1059.5183" y="492.8971"/><rect fill="url(#ge33lxkv36ba91)" height="2.0833" style="stroke:#EC7211;stroke-width:1.0417;" width="4.1667" x="1059.5183" y="497.0638"/><text fill="#FFFFFF" font-family="'Verdana'" font-size="12.5" lengthAdjust="spacing" textLength="177.3621" x="873.8229" y="523.2499">VerifyAuthChallenge Trigger</text></g><!--entity PostConfirm--><g class="entity" data-entity="PostConfirm" data-source-line="20" data-uid="ent0014" id="entity_PostConfirm"><rect fill="url(#ge33lxkv36ba91)" height="56.2174" rx="4.1667" ry="4.1667" style="stroke:#EC7211;stroke-width:1.0417;" width="208.6934" x="1118.5729" y="485.6055"/><rect fill="url(#ge33lxkv36ba91)" height="10.4167" style="stroke:#EC7211;stroke-width:1.0417;" width="15.625" x="1306.433" y="490.8138"/><rect fill="url(#ge33lxkv36ba91)" height="2.0833" style="stroke:#EC7211;stroke-width:1.0417;" width="4.1667" x="1304.3497" y="492.8971"/><rect fill="url(#ge33lxkv36ba91)" height="2.0833" style="stroke:#EC7211;stroke-width:1.0417;" width="4.1667" x="1304.3497" y="497.0638"/><text fill="#FFFFFF" font-family="'Verdana'" font-size="12.5" lengthAdjust="spacing" textLength="156.6101" x="1139.4063" y="523.2499">PostConfirmation Trigger</text></g><!--entity SendZen--><g class="entity" data-entity="SendZen" data-source-line="24" data-uid="ent0016" id="entity_SendZen"><rect fill="url(#ge33lxkv36ba91)" height="56.2174" rx="4.1667" ry="4.1667" style="stroke:#EC7211;stroke-width:1.0417;" width="199.2391" x="1367.0521" y="627.2409"/><rect fill="url(#ge33lxkv36ba91)" height="10.4167" style="stroke:#EC7211;stroke-width:1.0417;" width="15.625" x="1545.4578" y="632.4492"/><rect fill="url(#ge33lxkv36ba91)" height="2.0833" style="stroke:#EC7211;stroke-width:1.0417;" width="4.1667" x="1543.3745" y="634.5326"/><rect fill="url(#ge33lxkv36ba91)" height="2.0833" style="stroke:#EC7211;stroke-width:1.0417;" width="4.1667" x="1543.3745" y="638.6992"/><text fill="#FFFFFF" font-family="'Verdana'" font-size="12.5" lengthAdjust="spacing" textLength="147.1558" x="1387.8854" y="664.8853">SendZen WhatsApp API</text></g><!--entity Email--><g class="entity" data-entity="Email" data-source-line="25" data-uid="ent0017" id="entity_Email"><rect fill="url(#ge33lxkv36ba91)" height="56.2174" rx="4.1667" ry="4.1667" style="stroke:#EC7211;stroke-width:1.0417;" width="189.1622" x="1602.2917" y="627.2409"/><rect fill="url(#ge33lxkv36ba91)" height="10.4167" style="stroke:#EC7211;stroke-width:1.0417;" width="15.625" x="1770.6205" y="632.4492"/><rect fill="url(#ge33lxkv36ba91)" height="2.0833" style="stroke:#EC7211;stroke-width:1.0417;" width="4.1667" x="1768.5372" y="634.5326"/><rect fill="url(#ge33lxkv36ba91)" height="2.0833" style="stroke:#EC7211;stroke-width:1.0417;" width="4.1667" x="1768.5372" y="638.6992"/><text fill="#FFFFFF" font-family="'Verdana'" font-size="12.5" lengthAdjust="spacing" textLength="137.0789" x="1623.125" y="664.8853">Cognito Email Service</text></g><!--entity CloudWatch--><g class="entity" data-entity="CloudWatch" data-source-line="29" data-uid="ent0019" id="entity_CloudWatch"><rect fill="url(#ge33lxkv36ba91)" height="56.2174" rx="4.1667" ry="4.1667" style="stroke:#EC7211;stroke-width:1.0417;" width="160.5367" x="887.4375" y="627.2409"/><rect fill="url(#ge33lxkv36ba91)" height="10.4167" style="stroke:#EC7211;stroke-width:1.0417;" width="15.625" x="1027.1409" y="632.4492"/><rect fill="url(#ge33lxkv36ba91)" height="2.0833" style="stroke:#EC7211;stroke-width:1.0417;" width="4.1667" x="1025.0575" y="634.5326"/><rect fill="url(#ge33lxkv36ba91)" height="2.0833" style="stroke:#EC7211;stroke-width:1.0417;" width="4.1667" x="1025.0575" y="638.6992"/><text fill="#FFFFFF" font-family="'Verdana'" font-size="12.5" lengthAdjust="spacing" textLength="108.4534" x="908.2708" y="664.8853">CloudWatch Logs</text></g><!--link React to Amplify--><g class="link" data-entity-1="React" data-entity-2="Amplify" data-source-line="32" data-uid="lnk20" id="link_React_Amplify"><path d="M240.625,163.0326 C240.625,181.6159 240.625,199.8659 240.625,218.4909" fill="none" id="React-to-Amplify" style="stroke:#EC7211;stroke-width:3.125;"/><polygon fill="#EC7211" points="240.625,224.7409,244.7917,215.3659,240.625,219.5326,236.4583,215.3659,240.625,224.7409" style="stroke:#EC7211;stroke-width:3.125;"/></g><!--link Amplify to UserPool--><g class="link" data-entity-1="Amplify" data-entity-2="UserPool" data-source-line="33" data-uid="lnk21" id="link_Amplify_UserPool"><path d="M240.625,281.9805 C240.625,306.4388 240.625,335.7513 240.625,360.1992" fill="none" id="Amplify-to-UserPool" style="stroke:#EC7211;stroke-width:3.125;"/><polygon fill="#EC7211" points="240.625,366.4492,244.7917,357.0742,240.625,361.2409,236.4583,357.0742,240.625,366.4492" style="stroke:#EC7211;stroke-width:3.125;"/></g><!--link UserPool to SignupClient--><g class="link" data-entity-1="UserPool" data-entity-2="SignupClient" data-source-line="34" data-uid="lnk22" id="link_UserPool_SignupClient"><path d="M191.7292,423.4701 C186.6875,426.7096 181.7188,430.0951 177.0833,433.5221 C155.9792,449.1367 138.678,464.758 122.2509,480.7371" fill="none" id="UserPool-to-SignupClient" style="stroke:#EC7211;stroke-width:3.125;"/><polygon fill="#EC7211" points="117.7708,485.0951,127.3962,481.5449,121.5042,481.4635,121.5857,475.5715,117.7708,485.0951" style="stroke:#EC7211;stroke-width:3.125;"/></g><!--link UserPool to LoginClient--><g class="link" data-entity-1="UserPool" data-entity-2="LoginClient" data-source-line="35" data-uid="lnk23" id="link_UserPool_LoginClient"><path d="M244.7813,423.3867 C247.5938,441.9701 250.373,460.2806 253.2064,478.9161" fill="none" id="UserPool-to-LoginClient" style="stroke:#EC7211;stroke-width:3.125;"/><polygon fill="#EC7211" points="254.1458,485.0951,256.856,475.2003,253.363,479.9459,248.6173,476.4529,254.1458,485.0951" style="stroke:#EC7211;stroke-width:3.125;"/></g><!--link UserPool to PreSignUp--><g class="link" data-entity-1="UserPool" data-entity-2="PreSignUp" data-source-line="37" data-uid="lnk24" id="link_UserPool_PreSignUp"><path d="M322.2604,398.4805 C420.1458,402.3346 577.8125,411.7721 632.2917,433.5221 C661.0521,445.0117 683.8462,463.0482 702.8046,481.0794" fill="none" id="UserPool-to-PreSignUp" style="stroke:#EC7211;stroke-width:3.125;"/><polygon fill="#EC7211" points="707.3333,485.3867,703.4117,475.9066,703.5594,481.7973,697.6687,481.9449,707.3333,485.3867" style="stroke:#EC7211;stroke-width:3.125;"/></g><!--link UserPool to DefineAuth--><g class="link" data-entity-1="UserPool" data-entity-2="DefineAuth" data-source-line="38" data-uid="lnk25" id="link_UserPool_DefineAuth"><path d="M314.9896,423.6263 C322.9792,426.8555 330.9583,430.1888 338.5417,433.5221 C374.6875,449.4284 408.8868,466.4412 439.5222,482.2954" fill="none" id="UserPool-to-DefineAuth" style="stroke:#EC7211;stroke-width:3.125;"/><polygon fill="#EC7211" points="445.0729,485.168,438.6618,477.1586,440.4473,482.7742,434.8317,484.5596,445.0729,485.168" style="stroke:#EC7211;stroke-width:3.125;"/></g><!--link UserPool to CreateAuth--><g class="link" data-entity-1="UserPool" data-entity-2="CreateAuth" data-source-line="39" data-uid="lnk26" id="link_UserPool_CreateAuth"><path d="M322.4792,396.5013 C561.6354,398.1784 1248.6042,405.418 1345.8333,433.5221 C1382.4583,444.1159 1414.4121,463.1925 1440.485,481.5675" fill="none" id="UserPool-to-CreateAuth" style="stroke:#EC7211;stroke-width:3.125;"/><polygon fill="#EC7211" points="1445.5938,485.168,1440.3309,476.3615,1441.3364,482.1676,1435.5303,483.1732,1445.5938,485.168" style="stroke:#EC7211;stroke-width:3.125;"/></g><!--link UserPool to VerifyAuth--><g class="link" data-entity-1="UserPool" data-entity-2="VerifyAuth" data-source-line="40" data-uid="lnk27" id="link_UserPool_VerifyAuth"><path d="M322.4583,396.4909 C462.3021,398.0326 741.1771,404.7617 834.375,433.5221 C870.125,444.5638 901.2628,463.3389 926.9191,481.4951" fill="none" id="UserPool-to-VerifyAuth" style="stroke:#EC7211;stroke-width:3.125;"/><polygon fill="#EC7211" points="932.0208,485.1055,926.7751,476.2888,927.7694,482.0968,921.9613,483.0911,932.0208,485.1055" style="stroke:#EC7211;stroke-width:3.125;"/></g><!--link UserPool to PostConfirm--><g class="link" data-entity-1="UserPool" data-entity-2="PostConfirm" data-source-line="41" data-uid="lnk28" id="link_UserPool_PostConfirm"><path d="M322.6042,397.1576 C523.3125,400.2409 1028.2813,410.2409 1101.0417,433.5221 C1134.6771,444.293 1163.0706,463.0804 1186.331,481.4137" fill="none" id="UserPool-to-PostConfirm" style="stroke:#EC7211;stroke-width:3.125;"/><polygon fill="#EC7211" points="1191.2396,485.2826,1186.4559,476.2069,1187.1491,482.0585,1181.2974,482.7517,1191.2396,485.2826" style="stroke:#EC7211;stroke-width:3.125;"/></g><!--link CreateAuth to SendZen--><g class="link" data-entity-1="CreateAuth" data-entity-2="SendZen" data-source-line="43" data-uid="lnk29" id="link_CreateAuth_SendZen"><path d="M1478.3646,542.3242 C1475.8125,566.793 1472.7427,596.1288 1470.1906,620.5767" fill="none" id="CreateAuth-to-SendZen" style="stroke:#EC7211;stroke-width:3.125;"/><polygon fill="#EC7211" points="1469.5417,626.793,1474.6592,617.9012,1470.0824,621.6128,1466.3709,617.036,1469.5417,626.793" style="stroke:#EC7211;stroke-width:3.125;"/></g><!--link UserPool to Email--><g class="link" data-entity-1="UserPool" data-entity-2="Email" data-source-line="44" data-uid="lnk30" id="link_UserPool_Email"><path d="M322.4792,395.7513 C610.5313,395.0846 1562.9792,395.7201 1615.625,433.5221 C1678.6667,478.7826 1692.48,572.2436 1695.6258,620.6395" fill="none" id="UserPool-to-Email" style="stroke:#EC7211;stroke-width:3.125;"/><polygon fill="#EC7211" points="1696.0313,626.8763,1699.581,617.2508,1695.6934,621.6789,1691.2652,617.7913,1696.0313,626.8763" style="stroke:#EC7211;stroke-width:3.125;"/></g><!--link PreSignUp to CloudWatch--><g class="link" data-entity-1="PreSignUp" data-entity-2="CloudWatch" data-source-line="46" data-uid="lnk31" id="link_PreSignUp_CloudWatch"><path d="M779.6354,542.3242 C820.7292,566.793 875.0673,599.1477 916.1298,623.5956" fill="none" id="PreSignUp-to-CloudWatch" style="stroke:#EC7211;stroke-width:3.125;"/><polygon fill="#EC7211" points="921.5,626.793,915.5762,618.4168,917.0248,624.1285,911.3131,625.5771,921.5,626.793" style="stroke:#EC7211;stroke-width:3.125;"/></g><!--link DefineAuth to CloudWatch--><g class="link" data-entity-1="DefineAuth" data-entity-2="CloudWatch" data-source-line="47" data-uid="lnk32" id="link_DefineAuth_CloudWatch"><path d="M563.8438,542.2096 C585.5104,550.6367 609.75,559.5742 632.2917,566.8242 C718.2292,594.4596 812.533,618.2997 880.9289,634.508" fill="none" id="DefineAuth-to-CloudWatch" style="stroke:#EC7211;stroke-width:3.125;"/><polygon fill="#EC7211" points="887.0104,635.9492,878.8489,629.733,881.9424,634.7482,876.9273,637.8418,887.0104,635.9492" style="stroke:#EC7211;stroke-width:3.125;"/></g><!--link CreateAuth to CloudWatch--><g class="link" data-entity-1="CreateAuth" data-entity-2="CloudWatch" data-source-line="48" data-uid="lnk33" id="link_CreateAuth_CloudWatch"><path d="M1415.0833,542.3242 C1393.2604,550.8451 1368.7083,559.8138 1345.8333,566.8242 C1244.6875,597.8034 1131.5147,622.4664 1054.3689,637.8518" fill="none" id="CreateAuth-to-CloudWatch" style="stroke:#EC7211;stroke-width:3.125;"/><polygon fill="#EC7211" points="1048.2396,639.0742,1058.2485,641.3268,1053.3473,638.0556,1056.6186,633.1544,1048.2396,639.0742" style="stroke:#EC7211;stroke-width:3.125;"/></g><!--link VerifyAuth to CloudWatch--><g class="link" data-entity-1="VerifyAuth" data-entity-2="CloudWatch" data-source-line="49" data-uid="lnk34" id="link_VerifyAuth_CloudWatch"><path d="M967.7083,542.3242 C967.7083,566.793 967.7083,596.0951 967.7083,620.543" fill="none" id="VerifyAuth-to-CloudWatch" style="stroke:#EC7211;stroke-width:3.125;"/><polygon fill="#EC7211" points="967.7083,626.793,971.875,617.418,967.7083,621.5846,963.5417,617.418,967.7083,626.793" style="stroke:#EC7211;stroke-width:3.125;"/></g><!--link PostConfirm to CloudWatch--><g class="link" data-entity-1="PostConfirm" data-entity-2="CloudWatch" data-source-line="50" data-uid="lnk35" id="link_PostConfirm_CloudWatch"><path d="M1172.5,542.3242 C1127.75,566.793 1068.2235,599.3469 1023.5048,623.7949" fill="none" id="PostConfirm-to-CloudWatch" style="stroke:#EC7211;stroke-width:3.125;"/><polygon fill="#EC7211" points="1018.0208,626.793,1028.2455,625.9518,1022.5908,624.2945,1024.248,618.6398,1018.0208,626.793" style="stroke:#EC7211;stroke-width:3.125;"/></g><!--SRC=[VL91JiCm4Bpd5Kll-G9IbBOIeeUAK2g1E9XqcrWuTcHlW0hnTs8xYUrASFFEZDVhcRsX5Zi4zcbofPbiC2DE0k7OCZ95t-URZd41nJ3g9F6Q4LSIgeiXxA3GTSi9QneqPbdFwdVM8AosMab2UO8Tkw1UmNS6yFA0h2QOgLTW1XnakU9OGT7rWfylKAtl7JdLsK_KsEfArKXEQkewLN0mg66lb71tRMKBgwXu8uSUIi77-Hth4GzOnKurNCO21qny_FoETMyd1jj1rjO5CysmrsXR7dfurBnfKBic2sebQpnpYTR4icL2uEXp8Wwy-vH6Hl-e0s_LJwX7d_vM1zuDgmoLIfwvxdoKoSo1J3w- -IBKaWceK7_m6kUVLsEIpoYNPO5YV-SjzaISaD-ZgO4JEIHvfw9n1nkSinLgE1qPrQrDnFYlBvYzw7Sgps-NRPcto6BB5im7XoRf9qmSUyg4B1CuIYt1etmIF4eYRH_PdeNBVjp9oUI2TouBY-TU3TQ4mQwPg-uH4uQxPgBnhgXV]--></g></svg>