<svg xmlns="http://www.w3.org/2000/svg" xmlns:xlink="http://www.w3.org/1999/xlink" contentStyleType="text/css" data-diagram-type="DESCRIPTION" height="1228.125px" preserveAspectRatio="none" style="width:797px;height:1228px;" version="1.1" viewBox="0 0 797 1228" width="797.9167px" zoomAndPan="magnify"><title>Data Flow</title><defs><linearGradient id="g76wd0jcm1rb20" x1="50%" x2="50%" y1="0%" y2="100%"><stop offset="0%" stop-color="#FFFFFF"/><stop offset="100%" stop-color="#EEEEEE"/></linearGradient><linearGradient id="g76wd0jcm1rb21" x1="50%" x2="50%" y1="0%" y2="100%"><stop offset="0%" stop-color="#F18E3E"/><stop offset="100%" stop-color="#EC7211"/></linearGradient></defs><g><g class="title" data-source-line="2"><rect fill="url(#g76wd0jcm1rb20)" height="45.0846" rx="4.1667" ry="4.1667" style="stroke:#EEEEEE;stroke-width:1.0417;" width="138.387" x="322.4731" y="5.2083"/><text fill="#EC7211" font-family="'Verdana'" font-size="20.8333" font-weight="bold" lengthAdjust="spacing" textLength="117.5537" x="332.8898" y="34.963">Data Flow</text></g><!--cluster User Input--><g class="cluster" data-entity="User Input" data-source-line="4" data-uid="ent0002" id="cluster_User Input"><path d="M141.6667,62.793 L223.9563,62.793 A6.25,6.25 0 0 1 228.123,66.9596 L235.4146,94.0104 L786.4583,94.0104 A4.1667,4.1667 0 0 1 790.625,98.1771 L790.625,175.2617 A4.1667,4.1667 0 0 1 786.4583,179.4284 L141.6667,179.4284 A4.1667,4.1667 0 0 1 137.5,175.2617 L137.5,66.9596 A4.1667,4.1667 0 0 1 141.6667,62.793" fill="none" style="stroke:#4E5D6C;stroke-width:2.0833;"/><line style="stroke:#4E5D6C;stroke-width:2.0833;" x1="137.5" x2="235.4146" y1="94.0104" y2="94.0104"/><text fill="#4E5D6C" font-family="'Verdana'" font-size="12.5" font-weight="bold" lengthAdjust="spacing" textLength="73.9563" x="146.875" y="81.6874">User Input</text></g><!--cluster Frontend Processing--><g class="cluster" data-entity="Frontend Processing" data-source-line="11" data-uid="ent0007" id="cluster_Frontend Processing"><path d="M373.9583,204.4284 L527.946,204.4284 A6.25,6.25 0 0 1 532.1126,208.5951 L539.4043,235.6458 L569.7917,235.6458 A4.1667,4.1667 0 0 1 573.9583,239.8125 L573.9583,554.3346 A4.1667,4.1667 0 0 1 569.7917,558.5013 L373.9583,558.5013 A4.1667,4.1667 0 0 1 369.7917,554.3346 L369.7917,208.5951 A4.1667,4.1667 0 0 1 373.9583,204.4284" fill="none" style="stroke:#4E5D6C;stroke-width:2.0833;"/><line style="stroke:#4E5D6C;stroke-width:2.0833;" x1="369.7917" x2="539.4043" y1="235.6458" y2="235.6458"/><text fill="#4E5D6C" font-family="'Verdana'" font-size="12.5" font-weight="bold" lengthAdjust="spacing" textLength="145.6543" x="379.1667" y="223.3228">Frontend Processing</text></g><!--cluster AWS Cognito--><g class="cluster" data-entity="AWS Cognito" data-source-line="17" data-uid="ent0011" id="cluster_AWS Cognito"><path d="M176.0417,583.5013 L275.647,583.5013 A6.25,6.25 0 0 1 279.8136,587.668 L287.1053,614.7188 L746.875,614.7188 A4.1667,4.1667 0 0 1 751.0417,618.8854 L751.0417,814.6784 A4.1667,4.1667 0 0 1 746.875,818.8451 L176.0417,818.8451 A4.1667,4.1667 0 0 1 171.875,814.6784 L171.875,587.668 A4.1667,4.1667 0 0 1 176.0417,583.5013" fill="none" style="stroke:#4E5D6C;stroke-width:2.0833;"/><line style="stroke:#4E5D6C;stroke-width:2.0833;" x1="171.875" x2="287.1053" y1="614.7188" y2="614.7188"/><text fill="#4E5D6C" font-family="'Verdana'" font-size="12.5" font-weight="bold" lengthAdjust="spacing" textLength="91.272" x="181.25" y="602.3958">AWS Cognito</text></g><!--cluster Lambda Processing--><g class="cluster" data-entity="Lambda Processing" data-source-line="24" data-uid="ent0016" id="cluster_Lambda Processing"><path d="M171.875,843.8451 L317.1285,843.8451 A6.25,6.25 0 0 1 321.2952,848.0117 L328.5868,875.0625 L552.0833,875.0625 A4.1667,4.1667 0 0 1 556.25,879.2292 L556.25,1075.0326 A4.1667,4.1667 0 0 1 552.0833,1079.1992 L171.875,1079.1992 A4.1667,4.1667 0 0 1 167.7083,1075.0326 L167.7083,848.0117 A4.1667,4.1667 0 0 1 171.875,843.8451" fill="none" style="stroke:#4E5D6C;stroke-width:2.0833;"/><line style="stroke:#4E5D6C;stroke-width:2.0833;" x1="167.7083" x2="328.5868" y1="875.0625" y2="875.0625"/><text fill="#4E5D6C" font-family="'Verdana'" font-size="12.5" font-weight="bold" lengthAdjust="spacing" textLength="136.9202" x="177.0833" y="862.7395">Lambda Processing</text></g><!--cluster External Services--><g class="cluster" data-entity="External Services" data-source-line="31" data-uid="ent0021" id="cluster_External Services"><path d="M10.4167,1104.1992 L141.3452,1104.1992 A6.25,6.25 0 0 1 145.5119,1108.3659 L152.8035,1135.4167 L340.625,1135.4167 A4.1667,4.1667 0 0 1 344.7917,1139.5833 L344.7917,1216.668 A4.1667,4.1667 0 0 1 340.625,1220.8346 L10.4167,1220.8346 A4.1667,4.1667 0 0 1 6.25,1216.668 L6.25,1108.3659 A4.1667,4.1667 0 0 1 10.4167,1104.1992" fill="none" style="stroke:#4E5D6C;stroke-width:2.0833;"/><line style="stroke:#4E5D6C;stroke-width:2.0833;" x1="6.25" x2="152.8035" y1="1135.4167" y2="1135.4167"/><text fill="#4E5D6C" font-family="'Verdana'" font-size="12.5" font-weight="bold" lengthAdjust="spacing" textLength="122.5952" x="15.625" y="1123.0937">External Services</text></g><!--cluster Storage--><g class="cluster" data-entity="Storage" data-source-line="36" data-uid="ent0024" id="cluster_Storage"><path d="M373.9583,1104.1992 L437.8825,1104.1992 A6.25,6.25 0 0 1 442.0492,1108.3659 L449.3408,1135.4167 L710.4167,1135.4167 A4.1667,4.1667 0 0 1 714.5833,1139.5833 L714.5833,1216.668 A4.1667,4.1667 0 0 1 710.4167,1220.8346 L373.9583,1220.8346 A4.1667,4.1667 0 0 1 369.7917,1216.668 L369.7917,1108.3659 A4.1667,4.1667 0 0 1 373.9583,1104.1992" fill="none" style="stroke:#4E5D6C;stroke-width:2.0833;"/><line style="stroke:#4E5D6C;stroke-width:2.0833;" x1="369.7917" x2="449.3408" y1="1135.4167" y2="1135.4167"/><text fill="#4E5D6C" font-family="'Verdana'" font-size="12.5" font-weight="bold" lengthAdjust="spacing" textLength="55.5908" x="379.1667" y="1123.0937">Storage</text></g><!--entity Email--><g class="entity" data-entity="Email" data-source-line="5" data-uid="ent0003" id="entity_Email"><rect fill="url(#g76wd0jcm1rb21)" height="56.2174" rx="4.1667" ry="4.1667" style="stroke:#EC7211;stroke-width:1.0417;" width="141.0116" x="154.4896" y="106.543"/><rect fill="url(#g76wd0jcm1rb21)" height="10.4167" style="stroke:#EC7211;stroke-width:1.0417;" width="15.625" x="274.6678" y="111.7513"/><rect fill="url(#g76wd0jcm1rb21)" height="2.0833" style="stroke:#EC7211;stroke-width:1.0417;" width="4.1667" x="272.5845" y="113.8346"/><rect fill="url(#g76wd0jcm1rb21)" height="2.0833" style="stroke:#EC7211;stroke-width:1.0417;" width="4.1667" x="272.5845" y="118.0013"/><text fill="#FFFFFF" font-family="'Verdana'" font-size="12.5" lengthAdjust="spacing" textLength="88.9282" x="175.3229" y="144.1874">Email Address</text></g><!--entity Phone--><g class="entity" data-entity="Phone" data-source-line="6" data-uid="ent0004" id="entity_Phone"><rect fill="url(#g76wd0jcm1rb21)" height="56.2174" rx="4.1667" ry="4.1667" style="stroke:#EC7211;stroke-width:1.0417;" width="144.991" x="331.6667" y="106.543"/><rect fill="url(#g76wd0jcm1rb21)" height="10.4167" style="stroke:#EC7211;stroke-width:1.0417;" width="15.625" x="455.8244" y="111.7513"/><rect fill="url(#g76wd0jcm1rb21)" height="2.0833" style="stroke:#EC7211;stroke-width:1.0417;" width="4.1667" x="453.741" y="113.8346"/><rect fill="url(#g76wd0jcm1rb21)" height="2.0833" style="stroke:#EC7211;stroke-width:1.0417;" width="4.1667" x="453.741" y="118.0013"/><text fill="#FFFFFF" font-family="'Verdana'" font-size="12.5" lengthAdjust="spacing" textLength="92.9077" x="352.5" y="144.1874">Phone Number</text></g><!--entity Password--><g class="entity" data-entity="Password" data-source-line="7" data-uid="ent0005" id="entity_Password"><rect fill="url(#g76wd0jcm1rb21)" height="56.2174" rx="4.1667" ry="4.1667" style="stroke:#EC7211;stroke-width:1.0417;" width="111.2508" x="513.125" y="106.543"/><rect fill="url(#g76wd0jcm1rb21)" height="10.4167" style="stroke:#EC7211;stroke-width:1.0417;" width="15.625" x="603.5425" y="111.7513"/><rect fill="url(#g76wd0jcm1rb21)" height="2.0833" style="stroke:#EC7211;stroke-width:1.0417;" width="4.1667" x="601.4591" y="113.8346"/><rect fill="url(#g76wd0jcm1rb21)" height="2.0833" style="stroke:#EC7211;stroke-width:1.0417;" width="4.1667" x="601.4591" y="118.0013"/><text fill="#FFFFFF" font-family="'Verdana'" font-size="12.5" lengthAdjust="spacing" textLength="59.1675" x="533.9583" y="144.1874">Password</text></g><!--entity OTP--><g class="entity" data-entity="OTP" data-source-line="8" data-uid="ent0006" id="entity_OTP"><rect fill="url(#g76wd0jcm1rb21)" height="56.2174" rx="4.1667" ry="4.1667" style="stroke:#EC7211;stroke-width:1.0417;" width="113.0697" x="661.1771" y="106.543"/><rect fill="url(#g76wd0jcm1rb21)" height="10.4167" style="stroke:#EC7211;stroke-width:1.0417;" width="15.625" x="753.4134" y="111.7513"/><rect fill="url(#g76wd0jcm1rb21)" height="2.0833" style="stroke:#EC7211;stroke-width:1.0417;" width="4.1667" x="751.3301" y="113.8346"/><rect fill="url(#g76wd0jcm1rb21)" height="2.0833" style="stroke:#EC7211;stroke-width:1.0417;" width="4.1667" x="751.3301" y="118.0013"/><text fill="#FFFFFF" font-family="'Verdana'" font-size="12.5" lengthAdjust="spacing" textLength="60.9863" x="682.0104" y="144.1874">OTP Code</text></g><!--entity Validation--><g class="entity" data-entity="Validation" data-source-line="12" data-uid="ent0008" id="entity_Validation"><rect fill="url(#g76wd0jcm1rb21)" height="56.2174" rx="4.1667" ry="4.1667" style="stroke:#EC7211;stroke-width:1.0417;" width="151.119" x="396.3125" y="248.1784"/><rect fill="url(#g76wd0jcm1rb21)" height="10.4167" style="stroke:#EC7211;stroke-width:1.0417;" width="15.625" x="526.5981" y="253.3867"/><rect fill="url(#g76wd0jcm1rb21)" height="2.0833" style="stroke:#EC7211;stroke-width:1.0417;" width="4.1667" x="524.5148" y="255.4701"/><rect fill="url(#g76wd0jcm1rb21)" height="2.0833" style="stroke:#EC7211;stroke-width:1.0417;" width="4.1667" x="524.5148" y="259.6367"/><text fill="#FFFFFF" font-family="'Verdana'" font-size="12.5" lengthAdjust="spacing" textLength="99.0356" x="417.1458" y="285.8228">Input Validation</text></g><!--entity Formatting--><g class="entity" data-entity="Formatting" data-source-line="13" data-uid="ent0009" id="entity_Formatting"><rect fill="url(#g76wd0jcm1rb21)" height="56.2174" rx="4.1667" ry="4.1667" style="stroke:#EC7211;stroke-width:1.0417;" width="154.8482" x="394.4479" y="366.8971"/><rect fill="url(#g76wd0jcm1rb21)" height="10.4167" style="stroke:#EC7211;stroke-width:1.0417;" width="15.625" x="528.4628" y="372.1055"/><rect fill="url(#g76wd0jcm1rb21)" height="2.0833" style="stroke:#EC7211;stroke-width:1.0417;" width="4.1667" x="526.3795" y="374.1888"/><rect fill="url(#g76wd0jcm1rb21)" height="2.0833" style="stroke:#EC7211;stroke-width:1.0417;" width="4.1667" x="526.3795" y="378.3555"/><text fill="#FFFFFF" font-family="'Verdana'" font-size="12.5" lengthAdjust="spacing" textLength="102.7649" x="415.2813" y="404.5416">Data Formatting</text></g><!--entity StateMgmt--><g class="entity" data-entity="StateMgmt" data-source-line="14" data-uid="ent0010" id="entity_StateMgmt"><rect fill="url(#g76wd0jcm1rb21)" height="56.2174" rx="4.1667" ry="4.1667" style="stroke:#EC7211;stroke-width:1.0417;" width="171.4864" x="386.1354" y="485.6159"/><rect fill="url(#g76wd0jcm1rb21)" height="10.4167" style="stroke:#EC7211;stroke-width:1.0417;" width="15.625" x="536.7885" y="490.8242"/><rect fill="url(#g76wd0jcm1rb21)" height="2.0833" style="stroke:#EC7211;stroke-width:1.0417;" width="4.1667" x="534.7052" y="492.9076"/><rect fill="url(#g76wd0jcm1rb21)" height="2.0833" style="stroke:#EC7211;stroke-width:1.0417;" width="4.1667" x="534.7052" y="497.0742"/><text fill="#FFFFFF" font-family="'Verdana'" font-size="12.5" lengthAdjust="spacing" textLength="119.4031" x="406.9688" y="523.2603">State Management</text></g><!--entity UserPool--><g class="entity" data-entity="UserPool" data-source-line="18" data-uid="ent0012" id="entity_UserPool"><rect fill="url(#g76wd0jcm1rb21)" height="56.2174" rx="4.1667" ry="4.1667" style="stroke:#EC7211;stroke-width:1.0417;" width="110.8541" x="416.4479" y="627.2513"/><rect fill="url(#g76wd0jcm1rb21)" height="10.4167" style="stroke:#EC7211;stroke-width:1.0417;" width="15.625" x="506.4687" y="632.4596"/><rect fill="url(#g76wd0jcm1rb21)" height="2.0833" style="stroke:#EC7211;stroke-width:1.0417;" width="4.1667" x="504.3853" y="634.543"/><rect fill="url(#g76wd0jcm1rb21)" height="2.0833" style="stroke:#EC7211;stroke-width:1.0417;" width="4.1667" x="504.3853" y="638.7096"/><text fill="#FFFFFF" font-family="'Verdana'" font-size="12.5" lengthAdjust="spacing" textLength="58.7708" x="437.2813" y="664.8958">User Pool</text></g><!--entity UserAttributes--><g class="entity" data-entity="UserAttributes" data-source-line="19" data-uid="ent0013" id="entity_UserAttributes"><rect fill="url(#g76wd0jcm1rb21)" height="56.2174" rx="4.1667" ry="4.1667" style="stroke:#EC7211;stroke-width:1.0417;" width="146.4742" x="188.2188" y="745.9596"/><rect fill="url(#g76wd0jcm1rb21)" height="10.4167" style="stroke:#EC7211;stroke-width:1.0417;" width="15.625" x="313.8596" y="751.168"/><rect fill="url(#g76wd0jcm1rb21)" height="2.0833" style="stroke:#EC7211;stroke-width:1.0417;" width="4.1667" x="311.7763" y="753.2513"/><rect fill="url(#g76wd0jcm1rb21)" height="2.0833" style="stroke:#EC7211;stroke-width:1.0417;" width="4.1667" x="311.7763" y="757.418"/><text fill="#FFFFFF" font-family="'Verdana'" font-size="12.5" lengthAdjust="spacing" textLength="94.3909" x="209.0521" y="783.6041">User Attributes</text></g><!--entity Sessions--><g class="entity" data-entity="Sessions" data-source-line="20" data-uid="ent0014" id="entity_Sessions"><rect fill="url(#g76wd0jcm1rb21)" height="56.2174" rx="4.1667" ry="4.1667" style="stroke:#EC7211;stroke-width:1.0417;" width="202.0223" x="370.8646" y="745.9596"/><rect fill="url(#g76wd0jcm1rb21)" height="10.4167" style="stroke:#EC7211;stroke-width:1.0417;" width="15.625" x="552.0535" y="751.168"/><rect fill="url(#g76wd0jcm1rb21)" height="2.0833" style="stroke:#EC7211;stroke-width:1.0417;" width="4.1667" x="549.9702" y="753.2513"/><rect fill="url(#g76wd0jcm1rb21)" height="2.0833" style="stroke:#EC7211;stroke-width:1.0417;" width="4.1667" x="549.9702" y="757.418"/><text fill="#FFFFFF" font-family="'Verdana'" font-size="12.5" lengthAdjust="spacing" textLength="149.939" x="391.6979" y="783.6041">Authentication Sessions</text></g><!--entity Tokens--><g class="entity" data-entity="Tokens" data-source-line="21" data-uid="ent0015" id="entity_Tokens"><rect fill="url(#g76wd0jcm1rb21)" height="56.2174" rx="4.1667" ry="4.1667" style="stroke:#EC7211;stroke-width:1.0417;" width="124.3856" x="609.6771" y="745.9596"/><rect fill="url(#g76wd0jcm1rb21)" height="10.4167" style="stroke:#EC7211;stroke-width:1.0417;" width="15.625" x="713.2293" y="751.168"/><rect fill="url(#g76wd0jcm1rb21)" height="2.0833" style="stroke:#EC7211;stroke-width:1.0417;" width="4.1667" x="711.146" y="753.2513"/><rect fill="url(#g76wd0jcm1rb21)" height="2.0833" style="stroke:#EC7211;stroke-width:1.0417;" width="4.1667" x="711.146" y="757.418"/><text fill="#FFFFFF" font-family="'Verdana'" font-size="12.5" lengthAdjust="spacing" textLength="72.3022" x="630.5104" y="783.6041">JWT Tokens</text></g><!--entity OTPGeneration--><g class="entity" data-entity="OTPGeneration" data-source-line="25" data-uid="ent0017" id="entity_OTPGeneration"><rect fill="url(#g76wd0jcm1rb21)" height="56.2174" rx="4.1667" ry="4.1667" style="stroke:#EC7211;stroke-width:1.0417;" width="150.8016" x="194.3958" y="887.5951"/><rect fill="url(#g76wd0jcm1rb21)" height="10.4167" style="stroke:#EC7211;stroke-width:1.0417;" width="15.625" x="324.3641" y="892.8034"/><rect fill="url(#g76wd0jcm1rb21)" height="2.0833" style="stroke:#EC7211;stroke-width:1.0417;" width="4.1667" x="322.2808" y="894.8867"/><rect fill="url(#g76wd0jcm1rb21)" height="2.0833" style="stroke:#EC7211;stroke-width:1.0417;" width="4.1667" x="322.2808" y="899.0534"/><text fill="#FFFFFF" font-family="'Verdana'" font-size="12.5" lengthAdjust="spacing" textLength="98.7183" x="215.2292" y="925.2395">OTP Generation</text></g><!--entity WhatsAppSend--><g class="entity" data-entity="WhatsAppSend" data-source-line="26" data-uid="ent0018" id="entity_WhatsAppSend"><rect fill="url(#g76wd0jcm1rb21)" height="56.2174" rx="4.1667" ry="4.1667" style="stroke:#EC7211;stroke-width:1.0417;" width="170.6441" x="184.4688" y="1006.3138"/><rect fill="url(#g76wd0jcm1rb21)" height="10.4167" style="stroke:#EC7211;stroke-width:1.0417;" width="15.625" x="334.2795" y="1011.5221"/><rect fill="url(#g76wd0jcm1rb21)" height="2.0833" style="stroke:#EC7211;stroke-width:1.0417;" width="4.1667" x="332.1962" y="1013.6055"/><rect fill="url(#g76wd0jcm1rb21)" height="2.0833" style="stroke:#EC7211;stroke-width:1.0417;" width="4.1667" x="332.1962" y="1017.7721"/><text fill="#FFFFFF" font-family="'Verdana'" font-size="12.5" lengthAdjust="spacing" textLength="118.5608" x="205.3021" y="1043.9583">WhatsApp Sending</text></g><!--entity Verification--><g class="entity" data-entity="Verification" data-source-line="27" data-uid="ent0019" id="entity_Verification"><rect fill="url(#g76wd0jcm1rb21)" height="56.2174" rx="4.1667" ry="4.1667" style="stroke:#EC7211;stroke-width:1.0417;" width="152.2725" x="387.4063" y="887.5951"/><rect fill="url(#g76wd0jcm1rb21)" height="10.4167" style="stroke:#EC7211;stroke-width:1.0417;" width="15.625" x="518.8455" y="892.8034"/><rect fill="url(#g76wd0jcm1rb21)" height="2.0833" style="stroke:#EC7211;stroke-width:1.0417;" width="4.1667" x="516.7621" y="894.8867"/><rect fill="url(#g76wd0jcm1rb21)" height="2.0833" style="stroke:#EC7211;stroke-width:1.0417;" width="4.1667" x="516.7621" y="899.0534"/><text fill="#FFFFFF" font-family="'Verdana'" font-size="12.5" lengthAdjust="spacing" textLength="100.1892" x="408.2396" y="925.2395">OTP Verification</text></g><!--entity StatusUpdate--><g class="entity" data-entity="StatusUpdate" data-source-line="28" data-uid="ent0020" id="entity_StatusUpdate"><rect fill="url(#g76wd0jcm1rb21)" height="56.2174" rx="4.1667" ry="4.1667" style="stroke:#EC7211;stroke-width:1.0417;" width="147.6705" x="391.7917" y="1006.3138"/><rect fill="url(#g76wd0jcm1rb21)" height="10.4167" style="stroke:#EC7211;stroke-width:1.0417;" width="15.625" x="518.6288" y="1011.5221"/><rect fill="url(#g76wd0jcm1rb21)" height="2.0833" style="stroke:#EC7211;stroke-width:1.0417;" width="4.1667" x="516.5455" y="1013.6055"/><rect fill="url(#g76wd0jcm1rb21)" height="2.0833" style="stroke:#EC7211;stroke-width:1.0417;" width="4.1667" x="516.5455" y="1017.7721"/><text fill="#FFFFFF" font-family="'Verdana'" font-size="12.5" lengthAdjust="spacing" textLength="95.5872" x="412.625" y="1043.9583">Status Updates</text></g><!--entity SendZen--><g class="entity" data-entity="SendZen" data-source-line="32" data-uid="ent0022" id="entity_SendZen"><rect fill="url(#g76wd0jcm1rb21)" height="56.2174" rx="4.1667" ry="4.1667" style="stroke:#EC7211;stroke-width:1.0417;" width="131.4901" x="22.7917" y="1147.9492"/><rect fill="url(#g76wd0jcm1rb21)" height="10.4167" style="stroke:#EC7211;stroke-width:1.0417;" width="15.625" x="133.4484" y="1153.1576"/><rect fill="url(#g76wd0jcm1rb21)" height="2.0833" style="stroke:#EC7211;stroke-width:1.0417;" width="4.1667" x="131.3651" y="1155.2409"/><rect fill="url(#g76wd0jcm1rb21)" height="2.0833" style="stroke:#EC7211;stroke-width:1.0417;" width="4.1667" x="131.3651" y="1159.4076"/><text fill="#FFFFFF" font-family="'Verdana'" font-size="12.5" lengthAdjust="spacing" textLength="79.4067" x="43.625" y="1185.5937">SendZen API</text></g><!--entity EmailService--><g class="entity" data-entity="EmailService" data-source-line="33" data-uid="ent0023" id="entity_EmailService"><rect fill="url(#g76wd0jcm1rb21)" height="56.2174" rx="4.1667" ry="4.1667" style="stroke:#EC7211;stroke-width:1.0417;" width="136.9344" x="190.9063" y="1147.9492"/><rect fill="url(#g76wd0jcm1rb21)" height="10.4167" style="stroke:#EC7211;stroke-width:1.0417;" width="15.625" x="307.0073" y="1153.1576"/><rect fill="url(#g76wd0jcm1rb21)" height="2.0833" style="stroke:#EC7211;stroke-width:1.0417;" width="4.1667" x="304.924" y="1155.2409"/><rect fill="url(#g76wd0jcm1rb21)" height="2.0833" style="stroke:#EC7211;stroke-width:1.0417;" width="4.1667" x="304.924" y="1159.4076"/><text fill="#FFFFFF" font-family="'Verdana'" font-size="12.5" lengthAdjust="spacing" textLength="84.8511" x="211.7396" y="1185.5937">Email Service</text></g><!--entity CloudWatch--><g class="entity" data-entity="CloudWatch" data-source-line="37" data-uid="ent0025" id="entity_CloudWatch"><rect fill="url(#g76wd0jcm1rb21)" height="56.2174" rx="4.1667" ry="4.1667" style="stroke:#EC7211;stroke-width:1.0417;" width="160.5367" x="537.4375" y="1147.9492"/><rect fill="url(#g76wd0jcm1rb21)" height="10.4167" style="stroke:#EC7211;stroke-width:1.0417;" width="15.625" x="677.1409" y="1153.1576"/><rect fill="url(#g76wd0jcm1rb21)" height="2.0833" style="stroke:#EC7211;stroke-width:1.0417;" width="4.1667" x="675.0575" y="1155.2409"/><rect fill="url(#g76wd0jcm1rb21)" height="2.0833" style="stroke:#EC7211;stroke-width:1.0417;" width="4.1667" x="675.0575" y="1159.4076"/><text fill="#FFFFFF" font-family="'Verdana'" font-size="12.5" lengthAdjust="spacing" textLength="108.4534" x="558.2708" y="1185.5937">CloudWatch Logs</text></g><!--entity UserData--><g class="entity" data-entity="UserData" data-source-line="38" data-uid="ent0026" id="entity_UserData"><rect fill="url(#g76wd0jcm1rb21)" height="56.2174" rx="4.1667" ry="4.1667" style="stroke:#EC7211;stroke-width:1.0417;" width="114.3941" x="386.5521" y="1147.9492"/><rect fill="url(#g76wd0jcm1rb21)" height="10.4167" style="stroke:#EC7211;stroke-width:1.0417;" width="15.625" x="480.1129" y="1153.1576"/><rect fill="url(#g76wd0jcm1rb21)" height="2.0833" style="stroke:#EC7211;stroke-width:1.0417;" width="4.1667" x="478.0295" y="1155.2409"/><rect fill="url(#g76wd0jcm1rb21)" height="2.0833" style="stroke:#EC7211;stroke-width:1.0417;" width="4.1667" x="478.0295" y="1159.4076"/><text fill="#FFFFFF" font-family="'Verdana'" font-size="12.5" lengthAdjust="spacing" textLength="62.3108" x="407.3854" y="1185.5937">User Data</text></g><!--link Email to Validation--><g class="link" data-entity-1="Email" data-entity-2="Validation" data-source-line="41" data-uid="lnk27" id="link_Email_Validation"><path d="M271.2708,163.2201 C284.8542,171.2096 299.75,179.8971 313.5417,187.7617 C349.4167,208.2201 384.7365,227.7397 415.924,244.8126" fill="none" id="Email-to-Validation" style="stroke:#EC7211;stroke-width:3.125;"/><polygon fill="#EC7211" points="421.4063,247.8138,415.1836,239.6572,416.8377,245.3128,411.182,246.9669,421.4063,247.8138" style="stroke:#EC7211;stroke-width:3.125;"/></g><!--link Phone to Validation--><g class="link" data-entity-1="Phone" data-entity-2="Validation" data-source-line="42" data-uid="lnk28" id="link_Phone_Validation"><path d="M417.5417,163.2617 C429.4167,187.7305 443.9398,217.6588 455.794,242.1067" fill="none" id="Phone-to-Validation" style="stroke:#EC7211;stroke-width:3.125;"/><polygon fill="#EC7211" points="458.5208,247.7305,458.1798,237.4769,456.2485,243.044,450.6814,241.1127,458.5208,247.7305" style="stroke:#EC7211;stroke-width:3.125;"/></g><!--link Password to Validation--><g class="link" data-entity-1="Password" data-entity-2="Validation" data-source-line="43" data-uid="lnk29" id="link_Password_Validation"><path d="M549.6146,163.2617 C532.625,187.7305 511.5116,218.1481 494.5429,242.596" fill="none" id="Password-to-Validation" style="stroke:#EC7211;stroke-width:3.125;"/><polygon fill="#EC7211" points="490.9792,247.7305,499.7477,242.4046,493.9489,243.4518,492.9018,237.653,490.9792,247.7305" style="stroke:#EC7211;stroke-width:3.125;"/></g><!--link OTP to Validation--><g class="link" data-entity-1="OTP" data-entity-2="Validation" data-source-line="44" data-uid="lnk30" id="link_OTP_Validation"><path d="M680.2083,163.1888 C668.4167,171.4284 655.2188,180.2617 642.7083,187.7617 C606.2708,209.6055 569.3658,228.6539 535.8658,245.0184" fill="none" id="OTP-to-Validation" style="stroke:#EC7211;stroke-width:3.125;"/><polygon fill="#EC7211" points="530.25,247.7617,540.5025,247.3907,534.9298,245.4757,536.8448,239.903,530.25,247.7617" style="stroke:#EC7211;stroke-width:3.125;"/></g><!--link Validation to Formatting--><g class="link" data-entity-1="Validation" data-entity-2="Formatting" data-source-line="46" data-uid="lnk31" id="link_Validation_Formatting"><path d="M471.875,304.6784 C471.875,323.2617 471.875,341.5013 471.875,360.1367" fill="none" id="Validation-to-Formatting" style="stroke:#EC7211;stroke-width:3.125;"/><polygon fill="#EC7211" points="471.875,366.3867,476.0417,357.0117,471.875,361.1784,467.7083,357.0117,471.875,366.3867" style="stroke:#EC7211;stroke-width:3.125;"/></g><!--link Formatting to StateMgmt--><g class="link" data-entity-1="Formatting" data-entity-2="StateMgmt" data-source-line="47" data-uid="lnk32" id="link_Formatting_StateMgmt"><path d="M471.875,423.3867 C471.875,441.9701 471.875,460.2201 471.875,478.8555" fill="none" id="Formatting-to-StateMgmt" style="stroke:#EC7211;stroke-width:3.125;"/><polygon fill="#EC7211" points="471.875,485.1055,476.0417,475.7305,471.875,479.8971,467.7083,475.7305,471.875,485.1055" style="stroke:#EC7211;stroke-width:3.125;"/></g><!--link StateMgmt to UserPool--><g class="link" data-entity-1="StateMgmt" data-entity-2="UserPool" data-source-line="48" data-uid="lnk33" id="link_StateMgmt_UserPool"><path d="M471.875,542.3346 C471.875,566.8034 471.875,596.1055 471.875,620.5534" fill="none" id="StateMgmt-to-UserPool" style="stroke:#EC7211;stroke-width:3.125;"/><polygon fill="#EC7211" points="471.875,626.8034,476.0417,617.4284,471.875,621.5951,467.7083,617.4284,471.875,626.8034" style="stroke:#EC7211;stroke-width:3.125;"/></g><!--link UserPool to UserAttributes--><g class="link" data-entity-1="UserPool" data-entity-2="UserAttributes" data-source-line="50" data-uid="lnk34" id="link_UserPool_UserAttributes"><path d="M422.2708,683.8867 C388.7396,702.4805 350.0909,723.8974 316.5596,742.4912" fill="none" id="UserPool-to-UserAttributes" style="stroke:#EC7211;stroke-width:3.125;"/><polygon fill="#EC7211" points="311.0938,745.5221,321.3132,744.6196,315.6487,742.9964,317.2719,737.3318,311.0938,745.5221" style="stroke:#EC7211;stroke-width:3.125;"/></g><!--link UserPool to Sessions--><g class="link" data-entity-1="UserPool" data-entity-2="Sessions" data-source-line="51" data-uid="lnk35" id="link_UserPool_Sessions"><path d="M471.875,683.7409 C471.875,702.3242 471.875,720.5742 471.875,739.1992" fill="none" id="UserPool-to-Sessions" style="stroke:#EC7211;stroke-width:3.125;"/><polygon fill="#EC7211" points="471.875,745.4492,476.0417,736.0742,471.875,740.2409,467.7083,736.0742,471.875,745.4492" style="stroke:#EC7211;stroke-width:3.125;"/></g><!--link UserPool to Tokens--><g class="link" data-entity-1="UserPool" data-entity-2="Tokens" data-source-line="52" data-uid="lnk36" id="link_UserPool_Tokens"><path d="M518.7708,683.7409 C550.6354,702.3242 587.236,723.6764 619.1839,742.3014" fill="none" id="UserPool-to-Tokens" style="stroke:#EC7211;stroke-width:3.125;"/><polygon fill="#EC7211" points="624.5833,745.4492,618.5827,737.1279,620.0838,742.8261,614.3856,744.3272,624.5833,745.4492" style="stroke:#EC7211;stroke-width:3.125;"/></g><!--link UserAttributes to OTPGeneration--><g class="link" data-entity-1="UserAttributes" data-entity-2="OTPGeneration" data-source-line="54" data-uid="lnk37" id="link_UserAttributes_OTPGeneration"><path d="M263.1042,802.6888 C264.5625,827.1471 266.3153,856.4707 267.7737,880.9186" fill="none" id="UserAttributes-to-OTPGeneration" style="stroke:#EC7211;stroke-width:3.125;"/><polygon fill="#EC7211" points="268.1458,887.1576,271.7469,877.5511,267.8357,881.9585,263.4283,878.0473,268.1458,887.1576" style="stroke:#EC7211;stroke-width:3.125;"/></g><!--link OTPGeneration to WhatsAppSend--><g class="link" data-entity-1="OTPGeneration" data-entity-2="WhatsAppSend" data-source-line="55" data-uid="lnk38" id="link_OTPGeneration_WhatsAppSend"><path d="M269.7917,944.0951 C269.7917,962.6784 269.7917,980.918 269.7917,999.5534" fill="none" id="OTPGeneration-to-WhatsAppSend" style="stroke:#EC7211;stroke-width:3.125;"/><polygon fill="#EC7211" points="269.7917,1005.8034,273.9583,996.4284,269.7917,1000.5951,265.625,996.4284,269.7917,1005.8034" style="stroke:#EC7211;stroke-width:3.125;"/></g><!--link WhatsAppSend to SendZen--><g class="link" data-entity-1="WhatsAppSend" data-entity-2="SendZen" data-source-line="56" data-uid="lnk39" id="link_WhatsAppSend_SendZen"><path d="M221.7396,1062.8659 C205.7604,1072.6367 188.1563,1084.1471 172.9167,1095.8659 C152.375,1111.6576 135.5498,1127.2332 119.5081,1143.1603" fill="none" id="WhatsAppSend-to-SendZen" style="stroke:#EC7211;stroke-width:3.125;"/><polygon fill="#EC7211" points="115.0729,1147.5638,124.6615,1143.9153,118.7689,1143.8942,118.7901,1138.0017,115.0729,1147.5638" style="stroke:#EC7211;stroke-width:3.125;"/></g><!--link Sessions to Verification--><g class="link" data-entity-1="Sessions" data-entity-2="Verification" data-source-line="58" data-uid="lnk40" id="link_Sessions_Verification"><path d="M470.2292,802.6888 C468.7708,827.1471 467.018,856.4707 465.5597,880.9186" fill="none" id="Sessions-to-Verification" style="stroke:#EC7211;stroke-width:3.125;"/><polygon fill="#EC7211" points="465.1875,887.1576,469.905,878.0473,465.4976,881.9585,461.5865,877.5511,465.1875,887.1576" style="stroke:#EC7211;stroke-width:3.125;"/></g><!--link Verification to StatusUpdate--><g class="link" data-entity-1="Verification" data-entity-2="StatusUpdate" data-source-line="59" data-uid="lnk41" id="link_Verification_StatusUpdate"><path d="M464.0313,944.0951 C464.3646,962.6784 464.6903,980.919 465.0236,999.5544" fill="none" id="Verification-to-StatusUpdate" style="stroke:#EC7211;stroke-width:3.125;"/><polygon fill="#EC7211" points="465.1354,1005.8034,469.1338,996.3554,465.0423,1000.5959,460.8018,996.5044,465.1354,1005.8034" style="stroke:#EC7211;stroke-width:3.125;"/></g><!--link StatusUpdate to UserData--><g class="link" data-entity-1="StatusUpdate" data-entity-2="UserData" data-source-line="60" data-uid="lnk42" id="link_StatusUpdate_UserData"><path d="M461.3021,1063.0326 C457.4688,1087.5013 452.864,1116.8788 449.0306,1141.3267" fill="none" id="StatusUpdate-to-UserData" style="stroke:#EC7211;stroke-width:3.125;"/><polygon fill="#EC7211" points="448.0625,1147.5013,453.6311,1138.8849,448.8693,1142.3558,445.3983,1137.594,448.0625,1147.5013" style="stroke:#EC7211;stroke-width:3.125;"/></g><!--link OTPGeneration to CloudWatch--><g class="link" data-entity-1="OTPGeneration" data-entity-2="CloudWatch" data-source-line="62" data-uid="lnk43" id="link_OTPGeneration_CloudWatch"><path d="M345.5417,938.5326 C428.0313,962.5221 549.3646,998.7201 557.2917,1006.3138 C597.0313,1044.4284 609.9206,1104.279 614.5768,1141.4248" fill="none" id="OTPGeneration-to-CloudWatch" style="stroke:#EC7211;stroke-width:3.125;"/><polygon fill="#EC7211" points="615.3542,1147.6263,618.3224,1137.8059,614.7064,1142.4584,610.0538,1138.8423,615.3542,1147.6263" style="stroke:#EC7211;stroke-width:3.125;"/></g><!--link WhatsAppSend to CloudWatch--><g class="link" data-entity-1="WhatsAppSend" data-entity-2="CloudWatch" data-source-line="63" data-uid="lnk44" id="link_WhatsAppSend_CloudWatch"><path d="M314.8646,1063.0117 C332.6354,1072.5117 353.6458,1082.1159 373.9583,1087.5326 C405.1042,1095.8346 488.6563,1084.3346 518.75,1095.8659 C547.5104,1106.8867 569.9593,1125.1408 588.4385,1143.3908" fill="none" id="WhatsAppSend-to-CloudWatch" style="stroke:#EC7211;stroke-width:3.125;"/><polygon fill="#EC7211" points="592.8854,1147.7826,589.1429,1138.2303,589.1797,1144.1228,583.2872,1144.1595,592.8854,1147.7826" style="stroke:#EC7211;stroke-width:3.125;"/></g><!--link Verification to CloudWatch--><g class="link" data-entity-1="Verification" data-entity-2="CloudWatch" data-source-line="64" data-uid="lnk45" id="link_Verification_CloudWatch"><path d="M540.1458,940.6992 C571.2292,954.6159 603.9792,975.6263 621.875,1006.3138 C647.5625,1050.3555 638.0765,1106.4369 628.2952,1141.7078" fill="none" id="Verification-to-CloudWatch" style="stroke:#EC7211;stroke-width:3.125;"/><polygon fill="#EC7211" points="626.625,1147.7305,633.1454,1139.8099,628.0168,1142.7116,625.1152,1137.5829,626.625,1147.7305" style="stroke:#EC7211;stroke-width:3.125;"/></g><!--link StatusUpdate to CloudWatch--><g class="link" data-entity-1="StatusUpdate" data-entity-2="CloudWatch" data-source-line="65" data-uid="lnk46" id="link_StatusUpdate_CloudWatch"><path d="M495.6667,1063.0326 C522.3333,1087.5013 556.4781,1118.828 583.1239,1143.2759" fill="none" id="StatusUpdate-to-CloudWatch" style="stroke:#EC7211;stroke-width:3.125;"/><polygon fill="#EC7211" points="587.7292,1147.5013,583.6382,1138.093,583.8914,1143.9801,578.0043,1144.2334,587.7292,1147.5013" style="stroke:#EC7211;stroke-width:3.125;"/></g><!--SRC=[RL9TRzim37pth-3wdhymmEZQeKEx6KZM01lsmCIS8zIM0fbU1WpxxvCeMH_9tdHtb7WYxnsVQ2B0oxmn5lL03IiU2JuW8poEvj8qPpo-uK1mztKc2q_wlF0T_6a0lZzCg4Pe-zxIFFy0d44OBtKdema-BzE1h2X2Y8BpV36s3sm4NlYow-3Uz2I20ytVelUZDPf9zz1PStJTb1wY2J44hpYg7baPBTSpz2NXCyPEoEmkIaM6lcBBo0Glg5spYJHBYP0lmyILatQ_TJO7hTX41pANpfXHRddaGL9QPgiE2zESz4pvgdPnIz2iZc8OjlvxHeVg5VYwJ_iTxCmRHIaSAs_FE1rwl9sH7-r7qcJpX1oL6L-pFo7FxVdiMkf-dT9AUcvzw9Mi-XdDXc4Nn3hCnNtqx3OGFnsem5IE7tupMOsZwsf_AUSwElODlv66jdkASn2SKnVhS-eYKRs-PHVgWUARzwDP-ZtoyGJFPWZ6CfVsvTEIDkM1Vp8qtMpUbz4A8RycOwIlUJ-wAwh9Pv6AJEQZA3cAwIHy2bkpdX9TPApIKg8gDeQfgM-AL2UbGg9N6Ib1R1SMrwnzmn3Ao9GW_JQbfGJfSxAM_tWfrddZfD1kEXRQJR-i_GC0]--></g></svg>