<svg xmlns="http://www.w3.org/2000/svg" xmlns:xlink="http://www.w3.org/1999/xlink" contentStyleType="text/css" data-diagram-type="DESCRIPTION" height="848.9583px" preserveAspectRatio="none" style="width:850px;height:848px;" version="1.1" viewBox="0 0 850 848" width="850px" zoomAndPan="magnify"><title>Error Handling Flow</title><defs><linearGradient id="ge4oqawftb14s0" x1="50%" x2="50%" y1="0%" y2="100%"><stop offset="0%" stop-color="#FFFFFF"/><stop offset="100%" stop-color="#EEEEEE"/></linearGradient><linearGradient id="ge4oqawftb14s1" x1="50%" x2="50%" y1="0%" y2="100%"><stop offset="0%" stop-color="#F18E3E"/><stop offset="100%" stop-color="#EC7211"/></linearGradient></defs><g><g class="title" data-source-line="2"><rect fill="url(#ge4oqawftb14s0)" height="45.0846" rx="4.1667" ry="4.1667" style="stroke:#EEEEEE;stroke-width:1.0417;" width="254.9032" x="290.2568" y="5.2083"/><text fill="#EC7211" font-family="'Verdana'" font-size="20.8333" font-weight="bold" lengthAdjust="spacing" textLength="234.0698" x="300.6734" y="34.963">Error Handling Flow</text></g><!--cluster Error Sources--><g class="cluster" data-entity="Error Sources" data-source-line="4" data-uid="ent0002" id="cluster_Error Sources"><path d="M44.7917,62.793 L149.0784,62.793 A6.25,6.25 0 0 1 153.245,66.9596 L160.5367,94.0104 L736.4583,94.0104 A4.1667,4.1667 0 0 1 740.625,98.1771 L740.625,175.2617 A4.1667,4.1667 0 0 1 736.4583,179.4284 L44.7917,179.4284 A4.1667,4.1667 0 0 1 40.625,175.2617 L40.625,66.9596 A4.1667,4.1667 0 0 1 44.7917,62.793" fill="none" style="stroke:#4E5D6C;stroke-width:2.0833;"/><line style="stroke:#4E5D6C;stroke-width:2.0833;" x1="40.625" x2="160.5367" y1="94.0104" y2="94.0104"/><text fill="#4E5D6C" font-family="'Verdana'" font-size="12.5" font-weight="bold" lengthAdjust="spacing" textLength="95.9534" x="50" y="81.6874">Error Sources</text></g><!--cluster Error Detection--><g class="cluster" data-entity="Error Detection" data-source-line="11" data-uid="ent0007" id="cluster_Error Detection"><path d="M12.5,204.4284 L129.2684,204.4284 A6.25,6.25 0 0 1 133.4351,208.5951 L140.7267,235.6458 L838.5417,235.6458 A4.1667,4.1667 0 0 1 842.7083,239.8125 L842.7083,316.8867 A4.1667,4.1667 0 0 1 838.5417,321.0534 L12.5,321.0534 A4.1667,4.1667 0 0 1 8.3333,316.8867 L8.3333,208.5951 A4.1667,4.1667 0 0 1 12.5,204.4284" fill="none" style="stroke:#4E5D6C;stroke-width:2.0833;"/><line style="stroke:#4E5D6C;stroke-width:2.0833;" x1="8.3333" x2="140.7267" y1="235.6458" y2="235.6458"/><text fill="#4E5D6C" font-family="'Verdana'" font-size="12.5" font-weight="bold" lengthAdjust="spacing" textLength="108.4351" x="17.7083" y="223.3228">Error Detection</text></g><!--cluster Error Processing--><g class="cluster" data-entity="Error Processing" data-source-line="18" data-uid="ent0012" id="cluster_Error Processing"><path d="M10.4167,346.0534 L135.5347,346.0534 A6.25,6.25 0 0 1 139.7013,350.2201 L146.993,377.2708 L618.75,377.2708 A4.1667,4.1667 0 0 1 622.9167,381.4375 L622.9167,577.2409 A4.1667,4.1667 0 0 1 618.75,581.4076 L10.4167,581.4076 A4.1667,4.1667 0 0 1 6.25,577.2409 L6.25,350.2201 A4.1667,4.1667 0 0 1 10.4167,346.0534" fill="none" style="stroke:#4E5D6C;stroke-width:2.0833;"/><line style="stroke:#4E5D6C;stroke-width:2.0833;" x1="6.25" x2="146.993" y1="377.2708" y2="377.2708"/><text fill="#4E5D6C" font-family="'Verdana'" font-size="12.5" font-weight="bold" lengthAdjust="spacing" textLength="116.7847" x="15.625" y="364.9478">Error Processing</text></g><!--cluster Error Display--><g class="cluster" data-entity="Error Display" data-source-line="25" data-uid="ent0017" id="cluster_Error Display"><path d="M69.7917,606.4076 L170.0134,606.4076 A6.25,6.25 0 0 1 174.1801,610.5742 L181.4718,637.625 L561.4583,637.625 A4.1667,4.1667 0 0 1 565.625,641.7917 L565.625,837.5951 A4.1667,4.1667 0 0 1 561.4583,841.7617 L69.7917,841.7617 A4.1667,4.1667 0 0 1 65.625,837.5951 L65.625,610.5742 A4.1667,4.1667 0 0 1 69.7917,606.4076" fill="none" style="stroke:#4E5D6C;stroke-width:2.0833;"/><line style="stroke:#4E5D6C;stroke-width:2.0833;" x1="65.625" x2="181.4718" y1="637.625" y2="637.625"/><text fill="#4E5D6C" font-family="'Verdana'" font-size="12.5" font-weight="bold" lengthAdjust="spacing" textLength="91.8884" x="75" y="625.302">Error Display</text></g><!--entity UserInput--><g class="entity" data-entity="UserInput" data-source-line="5" data-uid="ent0003" id="entity_UserInput"><rect fill="url(#ge4oqawftb14s1)" height="56.2174" rx="4.1667" ry="4.1667" style="stroke:#EC7211;stroke-width:1.0417;" width="158.3639" x="57.2813" y="106.543"/><rect fill="url(#ge4oqawftb14s1)" height="10.4167" style="stroke:#EC7211;stroke-width:1.0417;" width="15.625" x="194.8118" y="111.7513"/><rect fill="url(#ge4oqawftb14s1)" height="2.0833" style="stroke:#EC7211;stroke-width:1.0417;" width="4.1667" x="192.7284" y="113.8346"/><rect fill="url(#ge4oqawftb14s1)" height="2.0833" style="stroke:#EC7211;stroke-width:1.0417;" width="4.1667" x="192.7284" y="118.0013"/><text fill="#FFFFFF" font-family="'Verdana'" font-size="12.5" lengthAdjust="spacing" textLength="106.2805" x="78.1146" y="144.1874">User Input Errors</text></g><!--entity Network--><g class="entity" data-entity="Network" data-source-line="6" data-uid="ent0004" id="entity_Network"><rect fill="url(#ge4oqawftb14s1)" height="56.2174" rx="4.1667" ry="4.1667" style="stroke:#EC7211;stroke-width:1.0417;" width="145.7235" x="252.1354" y="106.543"/><rect fill="url(#ge4oqawftb14s1)" height="10.4167" style="stroke:#EC7211;stroke-width:1.0417;" width="15.625" x="377.0256" y="111.7513"/><rect fill="url(#ge4oqawftb14s1)" height="2.0833" style="stroke:#EC7211;stroke-width:1.0417;" width="4.1667" x="374.9422" y="113.8346"/><rect fill="url(#ge4oqawftb14s1)" height="2.0833" style="stroke:#EC7211;stroke-width:1.0417;" width="4.1667" x="374.9422" y="118.0013"/><text fill="#FFFFFF" font-family="'Verdana'" font-size="12.5" lengthAdjust="spacing" textLength="93.6401" x="272.9688" y="144.1874">Network Errors</text></g><!--entity API--><g class="entity" data-entity="API" data-source-line="7" data-uid="ent0005" id="entity_API"><rect fill="url(#ge4oqawftb14s1)" height="56.2174" rx="4.1667" ry="4.1667" style="stroke:#EC7211;stroke-width:1.0417;" width="113.3077" x="433.9688" y="106.543"/><rect fill="url(#ge4oqawftb14s1)" height="10.4167" style="stroke:#EC7211;stroke-width:1.0417;" width="15.625" x="526.4431" y="111.7513"/><rect fill="url(#ge4oqawftb14s1)" height="2.0833" style="stroke:#EC7211;stroke-width:1.0417;" width="4.1667" x="524.3598" y="113.8346"/><rect fill="url(#ge4oqawftb14s1)" height="2.0833" style="stroke:#EC7211;stroke-width:1.0417;" width="4.1667" x="524.3598" y="118.0013"/><text fill="#FFFFFF" font-family="'Verdana'" font-size="12.5" lengthAdjust="spacing" textLength="61.2244" x="454.8021" y="144.1874">API Errors</text></g><!--entity System--><g class="entity" data-entity="System" data-source-line="8" data-uid="ent0006" id="entity_System"><rect fill="url(#ge4oqawftb14s1)" height="56.2174" rx="4.1667" ry="4.1667" style="stroke:#EC7211;stroke-width:1.0417;" width="140.1449" x="584.0938" y="106.543"/><rect fill="url(#ge4oqawftb14s1)" height="10.4167" style="stroke:#EC7211;stroke-width:1.0417;" width="15.625" x="703.4053" y="111.7513"/><rect fill="url(#ge4oqawftb14s1)" height="2.0833" style="stroke:#EC7211;stroke-width:1.0417;" width="4.1667" x="701.3219" y="113.8346"/><rect fill="url(#ge4oqawftb14s1)" height="2.0833" style="stroke:#EC7211;stroke-width:1.0417;" width="4.1667" x="701.3219" y="118.0013"/><text fill="#FFFFFF" font-family="'Verdana'" font-size="12.5" lengthAdjust="spacing" textLength="88.0615" x="604.9271" y="144.1874">System Errors</text></g><!--entity Validation--><g class="entity" data-entity="Validation" data-source-line="12" data-uid="ent0008" id="entity_Validation"><rect fill="url(#ge4oqawftb14s1)" height="56.2174" rx="4.1667" ry="4.1667" style="stroke:#EC7211;stroke-width:1.0417;" width="151.119" x="25.4792" y="248.1784"/><rect fill="url(#ge4oqawftb14s1)" height="10.4167" style="stroke:#EC7211;stroke-width:1.0417;" width="15.625" x="155.7648" y="253.3867"/><rect fill="url(#ge4oqawftb14s1)" height="2.0833" style="stroke:#EC7211;stroke-width:1.0417;" width="4.1667" x="153.6815" y="255.4701"/><rect fill="url(#ge4oqawftb14s1)" height="2.0833" style="stroke:#EC7211;stroke-width:1.0417;" width="4.1667" x="153.6815" y="259.6367"/><text fill="#FFFFFF" font-family="'Verdana'" font-size="12.5" lengthAdjust="spacing" textLength="99.0356" x="46.3125" y="285.8228">Input Validation</text></g><!--entity NetworkCheck--><g class="entity" data-entity="NetworkCheck" data-source-line="13" data-uid="ent0009" id="entity_NetworkCheck"><rect fill="url(#ge4oqawftb14s1)" height="56.2174" rx="4.1667" ry="4.1667" style="stroke:#EC7211;stroke-width:1.0417;" width="175.0936" x="213.5" y="248.1784"/><rect fill="url(#ge4oqawftb14s1)" height="10.4167" style="stroke:#EC7211;stroke-width:1.0417;" width="15.625" x="367.7603" y="253.3867"/><rect fill="url(#ge4oqawftb14s1)" height="2.0833" style="stroke:#EC7211;stroke-width:1.0417;" width="4.1667" x="365.6769" y="255.4701"/><rect fill="url(#ge4oqawftb14s1)" height="2.0833" style="stroke:#EC7211;stroke-width:1.0417;" width="4.1667" x="365.6769" y="259.6367"/><text fill="#FFFFFF" font-family="'Verdana'" font-size="12.5" lengthAdjust="spacing" textLength="123.0103" x="234.3333" y="285.8228">Network Monitoring</text></g><!--entity APIResponse--><g class="entity" data-entity="APIResponse" data-source-line="14" data-uid="ent0010" id="entity_APIResponse"><rect fill="url(#ge4oqawftb14s1)" height="56.2174" rx="4.1667" ry="4.1667" style="stroke:#EC7211;stroke-width:1.0417;" width="178.8534" x="425.1563" y="248.1784"/><rect fill="url(#ge4oqawftb14s1)" height="10.4167" style="stroke:#EC7211;stroke-width:1.0417;" width="15.625" x="583.1763" y="253.3867"/><rect fill="url(#ge4oqawftb14s1)" height="2.0833" style="stroke:#EC7211;stroke-width:1.0417;" width="4.1667" x="581.0929" y="255.4701"/><rect fill="url(#ge4oqawftb14s1)" height="2.0833" style="stroke:#EC7211;stroke-width:1.0417;" width="4.1667" x="581.0929" y="259.6367"/><text fill="#FFFFFF" font-family="'Verdana'" font-size="12.5" lengthAdjust="spacing" textLength="126.77" x="445.9896" y="285.8228">API Response Check</text></g><!--entity SystemCheck--><g class="entity" data-entity="SystemCheck" data-source-line="15" data-uid="ent0011" id="entity_SystemCheck"><rect fill="url(#ge4oqawftb14s1)" height="56.2174" rx="4.1667" ry="4.1667" style="stroke:#EC7211;stroke-width:1.0417;" width="186.141" x="640.2604" y="248.1784"/><rect fill="url(#ge4oqawftb14s1)" height="10.4167" style="stroke:#EC7211;stroke-width:1.0417;" width="15.625" x="805.568" y="253.3867"/><rect fill="url(#ge4oqawftb14s1)" height="2.0833" style="stroke:#EC7211;stroke-width:1.0417;" width="4.1667" x="803.4847" y="255.4701"/><rect fill="url(#ge4oqawftb14s1)" height="2.0833" style="stroke:#EC7211;stroke-width:1.0417;" width="4.1667" x="803.4847" y="259.6367"/><text fill="#FFFFFF" font-family="'Verdana'" font-size="12.5" lengthAdjust="spacing" textLength="134.0576" x="661.0938" y="285.8228">System Health Check</text></g><!--entity Categorization--><g class="entity" data-entity="Categorization" data-source-line="19" data-uid="ent0013" id="entity_Categorization"><rect fill="url(#ge4oqawftb14s1)" height="56.2174" rx="4.1667" ry="4.1667" style="stroke:#EC7211;stroke-width:1.0417;" width="178.359" x="213.9479" y="389.8034"/><rect fill="url(#ge4oqawftb14s1)" height="10.4167" style="stroke:#EC7211;stroke-width:1.0417;" width="15.625" x="371.4736" y="395.0117"/><rect fill="url(#ge4oqawftb14s1)" height="2.0833" style="stroke:#EC7211;stroke-width:1.0417;" width="4.1667" x="369.3902" y="397.0951"/><rect fill="url(#ge4oqawftb14s1)" height="2.0833" style="stroke:#EC7211;stroke-width:1.0417;" width="4.1667" x="369.3902" y="401.2617"/><text fill="#FFFFFF" font-family="'Verdana'" font-size="12.5" lengthAdjust="spacing" textLength="126.2756" x="234.7813" y="427.4478">Error Categorization</text></g><!--entity Logging--><g class="entity" data-entity="Logging" data-source-line="20" data-uid="ent0014" id="entity_Logging"><rect fill="url(#ge4oqawftb14s1)" height="56.2174" rx="4.1667" ry="4.1667" style="stroke:#EC7211;stroke-width:1.0417;" width="136.8306" x="23.25" y="508.5221"/><rect fill="url(#ge4oqawftb14s1)" height="10.4167" style="stroke:#EC7211;stroke-width:1.0417;" width="15.625" x="139.2473" y="513.7305"/><rect fill="url(#ge4oqawftb14s1)" height="2.0833" style="stroke:#EC7211;stroke-width:1.0417;" width="4.1667" x="137.164" y="515.8138"/><rect fill="url(#ge4oqawftb14s1)" height="2.0833" style="stroke:#EC7211;stroke-width:1.0417;" width="4.1667" x="137.164" y="519.9805"/><text fill="#FFFFFF" font-family="'Verdana'" font-size="12.5" lengthAdjust="spacing" textLength="84.7473" x="44.0833" y="546.1666">Error Logging</text></g><!--entity UserMessage--><g class="entity" data-entity="UserMessage" data-source-line="21" data-uid="ent0015" id="entity_UserMessage"><rect fill="url(#ge4oqawftb14s1)" height="56.2174" rx="4.1667" ry="4.1667" style="stroke:#EC7211;stroke-width:1.0417;" width="213.0391" x="196.6042" y="508.5221"/><rect fill="url(#ge4oqawftb14s1)" height="10.4167" style="stroke:#EC7211;stroke-width:1.0417;" width="15.625" x="388.81" y="513.7305"/><rect fill="url(#ge4oqawftb14s1)" height="2.0833" style="stroke:#EC7211;stroke-width:1.0417;" width="4.1667" x="386.7266" y="515.8138"/><rect fill="url(#ge4oqawftb14s1)" height="2.0833" style="stroke:#EC7211;stroke-width:1.0417;" width="4.1667" x="386.7266" y="519.9805"/><text fill="#FFFFFF" font-family="'Verdana'" font-size="12.5" lengthAdjust="spacing" textLength="160.9558" x="217.4375" y="546.1666">User Message Generation</text></g><!--entity Recovery--><g class="entity" data-entity="Recovery" data-source-line="22" data-uid="ent0016" id="entity_Recovery"><rect fill="url(#ge4oqawftb14s1)" height="56.2174" rx="4.1667" ry="4.1667" style="stroke:#EC7211;stroke-width:1.0417;" width="160.4574" x="445.8125" y="508.5221"/><rect fill="url(#ge4oqawftb14s1)" height="10.4167" style="stroke:#EC7211;stroke-width:1.0417;" width="15.625" x="585.4365" y="513.7305"/><rect fill="url(#ge4oqawftb14s1)" height="2.0833" style="stroke:#EC7211;stroke-width:1.0417;" width="4.1667" x="583.3532" y="515.8138"/><rect fill="url(#ge4oqawftb14s1)" height="2.0833" style="stroke:#EC7211;stroke-width:1.0417;" width="4.1667" x="583.3532" y="519.9805"/><text fill="#FFFFFF" font-family="'Verdana'" font-size="12.5" lengthAdjust="spacing" textLength="108.374" x="466.6458" y="546.1666">Recovery Actions</text></g><!--entity ErrorUI--><g class="entity" data-entity="ErrorUI" data-source-line="26" data-uid="ent0018" id="entity_ErrorUI"><rect fill="url(#ge4oqawftb14s1)" height="56.2174" rx="4.1667" ry="4.1667" style="stroke:#EC7211;stroke-width:1.0417;" width="182.9122" x="211.6667" y="650.1576"/><rect fill="url(#ge4oqawftb14s1)" height="10.4167" style="stroke:#EC7211;stroke-width:1.0417;" width="15.625" x="373.7455" y="655.3659"/><rect fill="url(#ge4oqawftb14s1)" height="2.0833" style="stroke:#EC7211;stroke-width:1.0417;" width="4.1667" x="371.6622" y="657.4492"/><rect fill="url(#ge4oqawftb14s1)" height="2.0833" style="stroke:#EC7211;stroke-width:1.0417;" width="4.1667" x="371.6622" y="661.6159"/><text fill="#FFFFFF" font-family="'Verdana'" font-size="12.5" lengthAdjust="spacing" textLength="130.8289" x="232.5" y="687.802">Error UI Components</text></g><!--entity HelpText--><g class="entity" data-entity="HelpText" data-source-line="27" data-uid="ent0019" id="entity_HelpText"><rect fill="url(#ge4oqawftb14s1)" height="56.2174" rx="4.1667" ry="4.1667" style="stroke:#EC7211;stroke-width:1.0417;" width="112.1785" x="82.4479" y="768.8763"/><rect fill="url(#ge4oqawftb14s1)" height="10.4167" style="stroke:#EC7211;stroke-width:1.0417;" width="15.625" x="173.7931" y="774.0846"/><rect fill="url(#ge4oqawftb14s1)" height="2.0833" style="stroke:#EC7211;stroke-width:1.0417;" width="4.1667" x="171.7098" y="776.168"/><rect fill="url(#ge4oqawftb14s1)" height="2.0833" style="stroke:#EC7211;stroke-width:1.0417;" width="4.1667" x="171.7098" y="780.3346"/><text fill="#FFFFFF" font-family="'Verdana'" font-size="12.5" lengthAdjust="spacing" textLength="60.0952" x="103.2813" y="806.5208">Help Text</text></g><!--entity ActionButtons--><g class="entity" data-entity="ActionButtons" data-source-line="28" data-uid="ent0020" id="entity_ActionButtons"><rect fill="url(#ge4oqawftb14s1)" height="56.2174" rx="4.1667" ry="4.1667" style="stroke:#EC7211;stroke-width:1.0417;" width="143.807" x="231.2188" y="768.8763"/><rect fill="url(#ge4oqawftb14s1)" height="10.4167" style="stroke:#EC7211;stroke-width:1.0417;" width="15.625" x="354.1924" y="774.0846"/><rect fill="url(#ge4oqawftb14s1)" height="2.0833" style="stroke:#EC7211;stroke-width:1.0417;" width="4.1667" x="352.109" y="776.168"/><rect fill="url(#ge4oqawftb14s1)" height="2.0833" style="stroke:#EC7211;stroke-width:1.0417;" width="4.1667" x="352.109" y="780.3346"/><text fill="#FFFFFF" font-family="'Verdana'" font-size="12.5" lengthAdjust="spacing" textLength="91.7236" x="252.0521" y="806.5208">Action Buttons</text></g><!--entity RetryOptions--><g class="entity" data-entity="RetryOptions" data-source-line="29" data-uid="ent0021" id="entity_RetryOptions"><rect fill="url(#ge4oqawftb14s1)" height="56.2174" rx="4.1667" ry="4.1667" style="stroke:#EC7211;stroke-width:1.0417;" width="138.1002" x="411.1563" y="768.8763"/><rect fill="url(#ge4oqawftb14s1)" height="10.4167" style="stroke:#EC7211;stroke-width:1.0417;" width="15.625" x="528.4231" y="774.0846"/><rect fill="url(#ge4oqawftb14s1)" height="2.0833" style="stroke:#EC7211;stroke-width:1.0417;" width="4.1667" x="526.3398" y="776.168"/><rect fill="url(#ge4oqawftb14s1)" height="2.0833" style="stroke:#EC7211;stroke-width:1.0417;" width="4.1667" x="526.3398" y="780.3346"/><text fill="#FFFFFF" font-family="'Verdana'" font-size="12.5" lengthAdjust="spacing" textLength="86.0168" x="431.9896" y="806.5208">Retry Options</text></g><!--link UserInput to Validation--><g class="link" data-entity-1="UserInput" data-entity-2="Validation" data-source-line="32" data-uid="lnk22" id="link_UserInput_Validation"><path d="M129.4583,163.2617 C123.25,187.7305 115.7675,217.2248 109.5591,241.6727" fill="none" id="UserInput-to-Validation" style="stroke:#EC7211;stroke-width:3.125;"/><polygon fill="#EC7211" points="108.0208,247.7305,114.3668,239.6694,109.3028,242.6824,106.2898,237.6183,108.0208,247.7305" style="stroke:#EC7211;stroke-width:3.125;"/></g><!--link Network to NetworkCheck--><g class="link" data-entity-1="Network" data-entity-2="NetworkCheck" data-source-line="33" data-uid="lnk23" id="link_Network_NetworkCheck"><path d="M320.2708,163.2617 C316.0625,187.7305 311.016,217.1227 306.8181,241.5706" fill="none" id="Network-to-NetworkCheck" style="stroke:#EC7211;stroke-width:3.125;"/><polygon fill="#EC7211" points="305.7604,247.7305,311.4535,239.1958,306.6418,242.5973,303.2404,237.7856,305.7604,247.7305" style="stroke:#EC7211;stroke-width:3.125;"/></g><!--link API to APIResponse--><g class="link" data-entity-1="API" data-entity-2="APIResponse" data-source-line="34" data-uid="lnk24" id="link_API_APIResponse"><path d="M495.3542,163.2617 C499.5625,187.7305 504.609,217.1227 508.8069,241.5706" fill="none" id="API-to-APIResponse" style="stroke:#EC7211;stroke-width:3.125;"/><polygon fill="#EC7211" points="509.8646,247.7305,512.3846,237.7856,508.9832,242.5973,504.1715,239.1958,509.8646,247.7305" style="stroke:#EC7211;stroke-width:3.125;"/></g><!--link System to SystemCheck--><g class="link" data-entity-1="System" data-entity-2="SystemCheck" data-source-line="35" data-uid="lnk25" id="link_System_SystemCheck"><path d="M669.8125,163.2617 C683.6875,187.7305 700.7693,217.8469 714.6443,242.2949" fill="none" id="System-to-SystemCheck" style="stroke:#EC7211;stroke-width:3.125;"/><polygon fill="#EC7211" points="717.7292,247.7305,716.7256,237.5204,715.1584,243.2008,709.4781,241.6336,717.7292,247.7305" style="stroke:#EC7211;stroke-width:3.125;"/></g><!--link Validation to Categorization--><g class="link" data-entity-1="Validation" data-entity-2="Categorization" data-source-line="37" data-uid="lnk26" id="link_Validation_Categorization"><path d="M140.9688,304.8971 C176.3958,329.3659 222.7319,361.3667 258.1382,385.8146" fill="none" id="Validation-to-Categorization" style="stroke:#EC7211;stroke-width:3.125;"/><polygon fill="#EC7211" points="263.2813,389.3659,257.9342,380.6103,258.9954,386.4065,253.1992,387.4677,263.2813,389.3659" style="stroke:#EC7211;stroke-width:3.125;"/></g><!--link NetworkCheck to Categorization--><g class="link" data-entity-1="NetworkCheck" data-entity-2="Categorization" data-source-line="38" data-uid="lnk27" id="link_NetworkCheck_Categorization"><path d="M301.4583,304.8971 C301.8229,329.3659 302.261,358.6687 302.6256,383.1166" fill="none" id="NetworkCheck-to-Categorization" style="stroke:#EC7211;stroke-width:3.125;"/><polygon fill="#EC7211" points="302.7188,389.3659,306.7452,379.9298,302.6411,384.1581,298.4128,380.0541,302.7188,389.3659" style="stroke:#EC7211;stroke-width:3.125;"/></g><!--link APIResponse to Categorization--><g class="link" data-entity-1="APIResponse" data-entity-2="Categorization" data-source-line="39" data-uid="lnk28" id="link_APIResponse_Categorization"><path d="M472.8021,304.8971 C435.7396,329.3659 387.0813,361.4758 350.0292,385.9238" fill="none" id="APIResponse-to-Categorization" style="stroke:#EC7211;stroke-width:3.125;"/><polygon fill="#EC7211" points="344.8125,389.3659,354.9323,387.6805,349.1598,386.4974,350.3428,380.7249,344.8125,389.3659" style="stroke:#EC7211;stroke-width:3.125;"/></g><!--link SystemCheck to Categorization--><g class="link" data-entity-1="SystemCheck" data-entity-2="Categorization" data-source-line="40" data-uid="lnk29" id="link_SystemCheck_Categorization"><path d="M679.125,304.8971 C661.1771,313.4076 640.9167,322.3867 621.875,329.3867 C546.0729,357.2721 463.345,379.4666 398.7512,395.1228" fill="none" id="SystemCheck-to-Categorization" style="stroke:#EC7211;stroke-width:3.125;"/><polygon fill="#EC7211" points="392.6771,396.5951,402.7698,398.4361,397.7389,395.3682,400.8068,390.3373,392.6771,396.5951" style="stroke:#EC7211;stroke-width:3.125;"/></g><!--link Categorization to Logging--><g class="link" data-entity-1="Categorization" data-entity-2="Logging" data-source-line="42" data-uid="lnk30" id="link_Categorization_Logging"><path d="M253.2813,446.4492 C219.5833,465.043 180.7226,486.4721 147.0143,505.0659" fill="none" id="Categorization-to-Logging" style="stroke:#EC7211;stroke-width:3.125;"/><polygon fill="#EC7211" points="141.5417,508.0846,151.7631,507.2049,146.1022,505.569,147.7381,499.9081,141.5417,508.0846" style="stroke:#EC7211;stroke-width:3.125;"/></g><!--link Categorization to UserMessage--><g class="link" data-entity-1="Categorization" data-entity-2="UserMessage" data-source-line="43" data-uid="lnk31" id="link_Categorization_UserMessage"><path d="M303.125,446.3034 C303.125,464.8867 303.125,483.1367 303.125,501.7617" fill="none" id="Categorization-to-UserMessage" style="stroke:#EC7211;stroke-width:3.125;"/><polygon fill="#EC7211" points="303.125,508.0117,307.2917,498.6367,303.125,502.8034,298.9583,498.6367,303.125,508.0117" style="stroke:#EC7211;stroke-width:3.125;"/></g><!--link Categorization to Recovery--><g class="link" data-entity-1="Categorization" data-entity-2="Recovery" data-source-line="44" data-uid="lnk32" id="link_Categorization_Recovery"><path d="M355.6667,446.4492 C391.1979,465.043 432.3895,486.593 467.9207,505.1868" fill="none" id="Categorization-to-Recovery" style="stroke:#EC7211;stroke-width:3.125;"/><polygon fill="#EC7211" points="473.4583,508.0846,467.0839,500.0461,468.8437,505.6698,463.22,507.4296,473.4583,508.0846" style="stroke:#EC7211;stroke-width:3.125;"/></g><!--link Logging to ErrorUI--><g class="link" data-entity-1="Logging" data-entity-2="ErrorUI" data-source-line="46" data-uid="lnk33" id="link_Logging_ErrorUI"><path d="M133.4479,565.2513 C170.5104,589.7096 219.1687,621.8196 256.2208,646.2675" fill="none" id="Logging-to-ErrorUI" style="stroke:#EC7211;stroke-width:3.125;"/><polygon fill="#EC7211" points="261.4375,649.7096,255.9072,641.0686,257.0902,646.8412,251.3177,648.0243,261.4375,649.7096" style="stroke:#EC7211;stroke-width:3.125;"/></g><!--link UserMessage to ErrorUI--><g class="link" data-entity-1="UserMessage" data-entity-2="ErrorUI" data-source-line="47" data-uid="lnk34" id="link_UserMessage_ErrorUI"><path d="M303.125,565.2513 C303.125,589.7096 303.125,619.0117 303.125,643.4596" fill="none" id="UserMessage-to-ErrorUI" style="stroke:#EC7211;stroke-width:3.125;"/><polygon fill="#EC7211" points="303.125,649.7096,307.2917,640.3346,303.125,644.5013,298.9583,640.3346,303.125,649.7096" style="stroke:#EC7211;stroke-width:3.125;"/></g><!--link Recovery to ErrorUI--><g class="link" data-entity-1="Recovery" data-entity-2="ErrorUI" data-source-line="48" data-uid="lnk35" id="link_Recovery_ErrorUI"><path d="M482,565.2513 C442.9167,589.7096 391.4225,621.9453 352.3704,646.3932" fill="none" id="Recovery-to-ErrorUI" style="stroke:#EC7211;stroke-width:3.125;"/><polygon fill="#EC7211" points="347.0729,649.7096,357.2302,648.2667,351.4875,646.9459,352.8083,641.2033,347.0729,649.7096" style="stroke:#EC7211;stroke-width:3.125;"/></g><!--link ErrorUI to HelpText--><g class="link" data-entity-1="ErrorUI" data-entity-2="HelpText" data-source-line="50" data-uid="lnk36" id="link_ErrorUI_HelpText"><path d="M264.5417,706.6576 C238.3125,725.2409 208.849,746.1163 182.5574,764.7517" fill="none" id="ErrorUI-to-HelpText" style="stroke:#EC7211;stroke-width:3.125;"/><polygon fill="#EC7211" points="177.4583,768.3659,187.5163,766.344,181.7075,765.3541,182.6974,759.5453,177.4583,768.3659" style="stroke:#EC7211;stroke-width:3.125;"/></g><!--link ErrorUI to ActionButtons--><g class="link" data-entity-1="ErrorUI" data-entity-2="ActionButtons" data-source-line="51" data-uid="lnk37" id="link_ErrorUI_ActionButtons"><path d="M303.125,706.6576 C303.125,725.2409 303.125,743.4805 303.125,762.1159" fill="none" id="ErrorUI-to-ActionButtons" style="stroke:#EC7211;stroke-width:3.125;"/><polygon fill="#EC7211" points="303.125,768.3659,307.2917,758.9909,303.125,763.1576,298.9583,758.9909,303.125,768.3659" style="stroke:#EC7211;stroke-width:3.125;"/></g><!--link ErrorUI to RetryOptions--><g class="link" data-entity-1="ErrorUI" data-entity-2="RetryOptions" data-source-line="52" data-uid="lnk38" id="link_ErrorUI_RetryOptions"><path d="M344.6458,706.6576 C372.8542,725.2409 404.8332,746.2916 433.1145,764.927" fill="none" id="ErrorUI-to-RetryOptions" style="stroke:#EC7211;stroke-width:3.125;"/><polygon fill="#EC7211" points="438.3333,768.3659,432.7976,759.7283,433.9843,765.5002,428.2124,766.6868,438.3333,768.3659" style="stroke:#EC7211;stroke-width:3.125;"/></g><!--SRC=[RPBBRi8m44Nt_eefUtwX4gKFaA15KBgfkh32A4G4ExA7Kbhrt-jdCYdPsUUEPsxcveRsU4IGPplMHgeI1LLK8pmOemtCfDhLbIhXiTPd8HfP76I9C8hgHfzCWNO4FmBWVMlHm5mr9ugFxGT82vu6w4kUaSxQ7BYUa5SdgpbNtDNJpSKI7haGYVYzydEFX0LLMYL7qSoRhAkTz3YyxgxSqLAhYhHndyfTJVTOjDRMQ1kjB4AWsMAcpEeCPKrxLXPvR7RjUcMqMw9revFjYAUIi7IElZlhVTILBdHPPkVft0QoTAtzi2TKQBfMNakIBrrZeJ_HN60IzXVtdE7GfYlRrFBICxoTmrGVtJ9GKMmG-3QaECEwWLVyeY3ucx-4rOQ9S7SYoeCZIYJQ8-VjfU7U74d0-sj_CnYFRtd6EM2FUwdwI3ta6QO0FUQPYQvVqFxbmDiEwMp2aCmc3ScYVmybEUG1YGSx8BUPYjGZq1mKUzpZxU_1eKY70Dj4EUpdo1KUtny0]--></g></svg>