<svg xmlns="http://www.w3.org/2000/svg" xmlns:xlink="http://www.w3.org/1999/xlink" contentStyleType="text/css" data-diagram-type="STATE" height="1365.625px" preserveAspectRatio="none" style="width:1601px;height:1365px;" version="1.1" viewBox="0 0 1601 1365" width="1601.0417px" zoomAndPan="magnify"><title>Enhanced User Experience Flow</title><defs><linearGradient id="g18ze689f83mnu0" x1="50%" x2="50%" y1="0%" y2="100%"><stop offset="0%" stop-color="#FFFFFF"/><stop offset="100%" stop-color="#EEEEEE"/></linearGradient><linearGradient id="g18ze689f83mnu1" x1="50%" x2="50%" y1="0%" y2="100%"><stop offset="0%" stop-color="#F18E3E"/><stop offset="100%" stop-color="#EC7211"/></linearGradient></defs><g><g class="title" data-source-line="2"><rect fill="url(#g18ze689f83mnu0)" height="45.0846" rx="4.1667" ry="4.1667" style="stroke:#EEEEEE;stroke-width:1.0417;" width="394.989" x="596.2545" y="5.2083"/><text fill="#EC7211" font-family="'Verdana'" font-size="20.8333" font-weight="bold" lengthAdjust="spacing" textLength="374.1557" x="606.6711" y="34.963">Enhanced User Experience Flow</text></g><!--cluster SignupPage--><g class="cluster" data-entity="SignupPage" data-source-line="37" data-uid="ent0002" id="cluster_SignupPage"><path d="M11.4583,165.918 L372.9167,165.918 A4.1667,4.1667 0 0 1 377.0833,170.0846 L377.0833,194.8812 L7.2917,194.8812 L7.2917,170.0846 A4.1667,4.1667 0 0 1 11.4583,165.918" fill="#F18E3E"/><rect fill="none" height="1193.7396" rx="4.1667" ry="4.1667" style="stroke:#000000;stroke-width:0.5208;" width="369.7917" x="7.2917" y="165.918"/><line style="stroke:#000000;stroke-width:0.5208;" x1="7.2917" x2="377.0833" y1="194.8812" y2="194.8812"/><text fill="#4E5D6C" font-family="'Verdana'" font-size="11.4583" lengthAdjust="spacing" textLength="67.7821" x="158.2965" y="185.9289">SignupPage</text></g><!--cluster EmailConfirmation--><g class="cluster" data-entity="EmailConfirmation" data-source-line="46" data-uid="ent0003" id="cluster_EmailConfirmation"><path d="M422.9167,334.6367 L769.7917,334.6367 A4.1667,4.1667 0 0 1 773.9583,338.8034 L773.9583,363.5999 L418.75,363.5999 L418.75,338.8034 A4.1667,4.1667 0 0 1 422.9167,334.6367" fill="#F18E3E"/><rect fill="none" height="287.2917" rx="4.1667" ry="4.1667" style="stroke:#000000;stroke-width:0.5208;" width="355.2083" x="418.75" y="334.6367"/><line style="stroke:#000000;stroke-width:0.5208;" x1="418.75" x2="773.9583" y1="363.5999" y2="363.5999"/><text fill="#4E5D6C" font-family="'Verdana'" font-size="11.4583" lengthAdjust="spacing" textLength="106.1239" x="543.2922" y="354.6476">EmailConfirmation</text></g><!--cluster WhatsAppOTP--><g class="cluster" data-entity="WhatsAppOTP" data-source-line="53" data-uid="ent0004" id="cluster_WhatsAppOTP"><path d="M819.7917,506.9284 L1122.9167,506.9284 A4.1667,4.1667 0 0 1 1127.0833,511.0951 L1127.0833,535.8916 L815.625,535.8916 L815.625,511.0951 A4.1667,4.1667 0 0 1 819.7917,506.9284" fill="#F18E3E"/><rect fill="none" height="437.5104" rx="4.1667" ry="4.1667" style="stroke:#000000;stroke-width:0.5208;" width="311.4583" x="815.625" y="506.9284"/><line style="stroke:#000000;stroke-width:0.5208;" x1="815.625" x2="1127.0833" y1="535.8916" y2="535.8916"/><text fill="#4E5D6C" font-family="'Verdana'" font-size="11.4583" lengthAdjust="spacing" textLength="81.3889" x="930.6597" y="526.9393">WhatsAppOTP</text></g><ellipse cx="88.5417" cy="227.3763" fill="#0073BB" rx="10.4167" ry="10.4167" style="stroke:#222222;stroke-width:1.0417;"/><g id="SignupPage.EmailInput"><rect fill="url(#g18ze689f83mnu1)" height="55.0049" rx="4.1667" ry="4.1667" style="stroke:#000000;stroke-width:0.5208;" width="92.7099" x="42.1875" y="369.6263"/><line style="stroke:#000000;stroke-width:0.5208;" x1="42.1875" x2="134.8974" y1="403.7979" y2="403.7979"/><text fill="#4E5D6C" font-family="'Verdana'" font-size="11.4583" lengthAdjust="spacing" textLength="61.4599" x="57.8125" y="390.6789">EmailInput</text></g><g id="SignupPage.PhoneInput"><rect fill="url(#g18ze689f83mnu1)" height="55.0049" rx="4.1667" ry="4.1667" style="stroke:#000000;stroke-width:0.5208;" width="96.4137" x="40.3333" y="541.9284"/><line style="stroke:#000000;stroke-width:0.5208;" x1="40.3333" x2="136.747" y1="576.0999" y2="576.0999"/><text fill="#4E5D6C" font-family="'Verdana'" font-size="11.4583" lengthAdjust="spacing" textLength="65.1637" x="55.9583" y="562.9809">PhoneInput</text></g><g id="SignupPage.PasswordInput"><rect fill="url(#g18ze689f83mnu1)" height="55.0049" rx="4.1667" ry="4.1667" style="stroke:#000000;stroke-width:0.5208;" width="115.1566" x="32" y="864.4388"/><line style="stroke:#000000;stroke-width:0.5208;" x1="32" x2="147.1566" y1="898.6104" y2="898.6104"/><text fill="#4E5D6C" font-family="'Verdana'" font-size="11.4583" lengthAdjust="spacing" textLength="83.9066" x="47.625" y="885.4914">PasswordInput</text></g><g id="SignupPage.Submit"><rect fill="url(#g18ze689f83mnu1)" height="55.0049" rx="4.1667" ry="4.1667" style="stroke:#000000;stroke-width:0.5208;" width="71.8969" x="102.5938" y="1168.1992"/><line style="stroke:#000000;stroke-width:0.5208;" x1="102.5938" x2="174.4906" y1="1202.3708" y2="1202.3708"/><text fill="#4E5D6C" font-family="'Verdana'" font-size="11.4583" lengthAdjust="spacing" textLength="40.6469" x="118.2188" y="1189.2518">Submit</text></g><ellipse cx="118.75" cy="1323.1992" fill="none" rx="11.4583" ry="11.4583" style="stroke:#0073BB;stroke-width:1.0417;"/><ellipse cx="118.75" cy="1323.1992" fill="#222222" rx="6.25" ry="6.25" style="stroke:#0073BB;stroke-width:1.0417;"/><ellipse cx="513.5417" cy="397.1367" fill="#0073BB" rx="10.4167" ry="10.4167" style="stroke:#222222;stroke-width:1.0417;"/><g id="EmailConfirmation.CodeInput"><rect fill="url(#g18ze689f83mnu1)" height="55.0049" rx="4.1667" ry="4.1667" style="stroke:#000000;stroke-width:0.5208;" width="90.2537" x="443.4167" y="541.9284"/><line style="stroke:#000000;stroke-width:0.5208;" x1="443.4167" x2="533.6704" y1="576.0999" y2="576.0999"/><text fill="#4E5D6C" font-family="'Verdana'" font-size="11.4583" lengthAdjust="spacing" textLength="59.0037" x="459.0417" y="562.9809">CodeInput</text></g><ellipse cx="455.2083" cy="397.1367" fill="none" rx="11.4583" ry="11.4583" style="stroke:#0073BB;stroke-width:1.0417;"/><ellipse cx="455.2083" cy="397.1367" fill="#222222" rx="6.25" ry="6.25" style="stroke:#0073BB;stroke-width:1.0417;"/><ellipse cx="851.0417" cy="569.4284" fill="#0073BB" rx="10.4167" ry="10.4167" style="stroke:#222222;stroke-width:1.0417;"/><g id="WhatsAppOTP.OTPInput"><rect fill="url(#g18ze689f83mnu1)" height="55.0049" rx="4.1667" ry="4.1667" style="stroke:#000000;stroke-width:0.5208;" width="83.8476" x="840.3646" y="864.4388"/><line style="stroke:#000000;stroke-width:0.5208;" x1="840.3646" x2="924.2121" y1="898.6104" y2="898.6104"/><text fill="#4E5D6C" font-family="'Verdana'" font-size="11.4583" lengthAdjust="spacing" textLength="52.5976" x="855.9896" y="885.4914">OTPInput</text></g><ellipse cx="909.375" cy="569.4284" fill="none" rx="11.4583" ry="11.4583" style="stroke:#0073BB;stroke-width:1.0417;"/><ellipse cx="909.375" cy="569.4284" fill="#222222" rx="6.25" ry="6.25" style="stroke:#0073BB;stroke-width:1.0417;"/><path d="M1156.2396,704.2201 L1347.9342,704.2201 A4.1667,4.1667 0 0 1 1352.1009,708.3867 L1352.1009,738.3916 L1152.0729,738.3916 L1152.0729,708.3867 A4.1667,4.1667 0 0 1 1156.2396,704.2201" fill="#F18E3E"/><rect fill="none" height="375.432" rx="4.1667" ry="4.1667" style="stroke:#000000;stroke-width:0.5208;" width="200.028" x="1152.0729" y="704.2201"/><line style="stroke:#000000;stroke-width:0.5208;" x1="1152.0729" x2="1352.1009" y1="738.3916" y2="738.3916"/><text fill="#4E5D6C" font-family="'Verdana'" font-size="11.4583" lengthAdjust="spacing" textLength="46.1243" x="1229.0248" y="725.2726">Success</text><ellipse cx="1253.875" cy="760.2666" fill="#0073BB" rx="10.4167" ry="10.4167" style="stroke:#222222;stroke-width:1.0417;"/><g id="Success.UserInfo"><rect fill="url(#g18ze689f83mnu1)" height="55.0049" rx="4.1667" ry="4.1667" style="stroke:#000000;stroke-width:0.5208;" width="79.0527" x="1214.3542" y="834.2249"/><line style="stroke:#000000;stroke-width:0.5208;" x1="1214.3542" x2="1293.4069" y1="868.3965" y2="868.3965"/><text fill="#4E5D6C" font-family="'Verdana'" font-size="11.4583" lengthAdjust="spacing" textLength="47.8027" x="1229.9792" y="855.2775">UserInfo</text></g><g id="Success.Continue"><rect fill="url(#g18ze689f83mnu1)" height="55.0049" rx="4.1667" ry="4.1667" style="stroke:#000000;stroke-width:0.5208;" width="82.7733" x="1164.5729" y="952.777"/><line style="stroke:#000000;stroke-width:0.5208;" x1="1164.5729" x2="1247.3463" y1="986.9486" y2="986.9486"/><text fill="#4E5D6C" font-family="'Verdana'" font-size="11.4583" lengthAdjust="spacing" textLength="51.5233" x="1180.1979" y="973.8296">Continue</text></g><g id="Success.Logout"><rect fill="url(#g18ze689f83mnu1)" height="55.0049" rx="4.1667" ry="4.1667" style="stroke:#000000;stroke-width:0.5208;" width="70.6828" x="1266.4479" y="952.777"/><line style="stroke:#000000;stroke-width:0.5208;" x1="1266.4479" x2="1337.1307" y1="986.9486" y2="986.9486"/><text fill="#4E5D6C" font-family="'Verdana'" font-size="11.4583" lengthAdjust="spacing" textLength="39.4328" x="1282.0729" y="973.8296">Logout</text></g><ellipse cx="1252.8333" cy="1057.777" fill="none" rx="11.4583" ry="11.4583" style="stroke:#0073BB;stroke-width:1.0417;"/><ellipse cx="1252.8333" cy="1057.777" fill="#222222" rx="6.25" ry="6.25" style="stroke:#0073BB;stroke-width:1.0417;"/><!--link *start*Success to UserInfo--><g class="link" data-entity-1=".start.Success" data-entity-2="UserInfo" data-source-line="61" data-uid="lnk45" id="link_.start.Success_UserInfo"><path d="M1253.875,771.2041 C1253.875,785.7354 1253.875,807.1208 1253.875,827.8499" fill="none" id="*start*Success-to-UserInfo" style="stroke:#000000;stroke-width:3.125;"/><polygon fill="#000000" points="1253.875,834.0999,1258.0417,824.7249,1253.875,828.8916,1249.7083,824.7249,1253.875,834.0999" style="stroke:#000000;stroke-width:3.125;"/><text fill="#4E5D6C" font-family="'Verdana'" font-size="12.5" lengthAdjust="spacing" textLength="61.4441" x="1260.125" y="807.2861">Load user</text></g><!--link UserInfo to Continue--><g class="link" data-entity-1="UserInfo" data-entity-2="Continue" data-source-line="62" data-uid="lnk47" id="link_UserInfo_Continue"><path d="M1222.1354,889.6104 C1217.3333,895.1729 1213.0208,901.3812 1210.125,907.9854 C1204.0521,921.8187 1202.6536,932.4043 1203.0286,946.2376" fill="none" id="UserInfo-to-Continue" style="stroke:#000000;stroke-width:3.125;"/><polygon fill="#000000" points="1203.1979,952.4854,1207.109,943.0009,1203.0568,947.2789,1198.7787,943.2267,1203.1979,952.4854" style="stroke:#000000;stroke-width:3.125;"/><text fill="#4E5D6C" font-family="'Verdana'" font-size="12.5" lengthAdjust="spacing" textLength="56.2073" x="1216.375" y="925.8381">Continue</text></g><!--link UserInfo to Logout--><g class="link" data-entity-1="UserInfo" data-entity-2="Logout" data-source-line="63" data-uid="lnk49" id="link_UserInfo_Logout"><path d="M1269.0521,889.6729 C1272.1458,895.6104 1275.2396,901.9437 1277.8333,907.9854 C1284.0208,922.3708 1287.7896,932.9614 1292.0501,946.4926" fill="none" id="UserInfo-to-Logout" style="stroke:#000000;stroke-width:3.125;"/><polygon fill="#000000" points="1293.9271,952.4541,1295.0859,942.2605,1292.3629,947.4862,1287.1372,944.7632,1293.9271,952.4541" style="stroke:#000000;stroke-width:3.125;"/><text fill="#4E5D6C" font-family="'Verdana'" font-size="12.5" lengthAdjust="spacing" textLength="43.0176" x="1293.4583" y="925.8381">Logout</text></g><!--link Continue to *end*Success--><g class="link" data-entity-1="Continue" data-entity-2=".end.Success" data-source-line="64" data-uid="lnk51" id="link_Continue_.end.Success"><path d="M1222.6146,1008.1208 C1231.1458,1021.8395 1237.6799,1032.3542 1243.7528,1042.125" fill="none" id="Continue-to-*end*Success" style="stroke:#000000;stroke-width:3.125;"/><polygon fill="#000000" points="1247.0521,1047.4333,1245.642,1037.2714,1244.3027,1043.0097,1238.5644,1041.6704,1247.0521,1047.4333" style="stroke:#000000;stroke-width:3.125;"/></g><!--link Logout to *end*Success--><g class="link" data-entity-1="Logout" data-entity-2=".end.Success" data-source-line="65" data-uid="lnk52" id="link_Logout_.end.Success"><path d="M1284.3958,1008.1208 C1275.4896,1021.8395 1268.6222,1032.4204 1262.2784,1042.1912" fill="none" id="Logout-to-*end*Success" style="stroke:#000000;stroke-width:3.125;"/><polygon fill="#000000" points="1258.875,1047.4333,1267.4748,1041.8391,1261.7112,1043.0649,1260.4854,1037.3012,1258.875,1047.4333" style="stroke:#000000;stroke-width:3.125;"/></g><ellipse cx="200" cy="73.2096" fill="#0073BB" rx="10.4167" ry="10.4167" style="stroke:#222222;stroke-width:1.0417;"/><g id="LoginPage"><rect fill="url(#g18ze689f83mnu1)" height="55.0049" rx="4.1667" ry="4.1667" style="stroke:#000000;stroke-width:0.5208;" width="90.6174" x="802.6042" y="369.6263"/><line style="stroke:#000000;stroke-width:0.5208;" x1="802.6042" x2="893.2215" y1="403.7979" y2="403.7979"/><text fill="#4E5D6C" font-family="'Verdana'" font-size="11.4583" lengthAdjust="spacing" textLength="59.3674" x="818.2292" y="390.6789">LoginPage</text></g><ellipse cx="1252.0833" cy="1195.6992" fill="none" rx="11.4583" ry="11.4583" style="stroke:#0073BB;stroke-width:1.0417;"/><ellipse cx="1252.0833" cy="1195.6992" fill="#222222" rx="6.25" ry="6.25" style="stroke:#0073BB;stroke-width:1.0417;"/><g class="entity" data-entity="GMN2" data-source-line="70" data-uid="ent0003" id="entity_GMN2"><path d="M405.4479,206.5742 L405.4479,248.1758 A4.1667,4.1667 0 0 0 409.6146,252.3424 L690.3783,252.3424 A4.1667,4.1667 0 0 0 694.545,248.1758 L694.545,212.8242 L684.1283,202.4076 L409.6146,202.4076 A4.1667,4.1667 0 0 0 405.4479,206.5742" fill="#0073BB" style="stroke:#005C96;stroke-width:1.0417;"/><path d="M684.1283,202.4076 L684.1283,210.7409 A2.0833,2.0833 0 0 0 686.2117,212.8242 L694.545,212.8242 L684.1283,202.4076" fill="#0073BB" style="stroke:#005C96;stroke-width:1.0417;"/><text fill="#FFFFFF" font-family="'Verdana'" font-size="12.5" lengthAdjust="spacing" textLength="256.8054" x="416.9063" y="224.427">User enters email, phone, and password.</text><text fill="#FFFFFF" font-family="'Verdana'" font-size="12.5" lengthAdjust="spacing" textLength="218.2617" x="416.9063" y="238.9778">Transitions to confirmation if valid.</text></g><g class="entity" data-entity="GMN5" data-source-line="75" data-uid="ent0006" id="entity_GMN5"><path d="M1100.1458,376.3346 L1100.1458,417.9362 A4.1667,4.1667 0 0 0 1104.3125,422.1029 L1366.5155,422.1029 A4.1667,4.1667 0 0 0 1370.6821,417.9362 L1370.6821,382.5846 L1360.2655,372.168 L1104.3125,372.168 A4.1667,4.1667 0 0 0 1100.1458,376.3346" fill="#0073BB" style="stroke:#005C96;stroke-width:1.0417;"/><path d="M1360.2655,372.168 L1360.2655,380.5013 A2.0833,2.0833 0 0 0 1362.3488,382.5846 L1370.6821,382.5846 L1360.2655,372.168" fill="#0073BB" style="stroke:#005C96;stroke-width:1.0417;"/><text fill="#FFFFFF" font-family="'Verdana'" font-size="12.5" lengthAdjust="spacing" textLength="121.9421" x="1111.6042" y="394.1874">Code sent to email.</text><text fill="#FFFFFF" font-family="'Verdana'" font-size="12.5" lengthAdjust="spacing" textLength="238.2446" x="1111.6042" y="408.7382">User must confirm before proceeding.</text></g><g class="entity" data-entity="GMN8" data-source-line="80" data-uid="ent0009" id="entity_GMN8"><path d="M1155.2813,548.6263 L1155.2813,590.2279 A4.1667,4.1667 0 0 0 1159.4479,594.3945 L1388.4661,594.3945 A4.1667,4.1667 0 0 0 1392.6327,590.2279 L1392.6327,554.8763 L1382.2161,544.4596 L1159.4479,544.4596 A4.1667,4.1667 0 0 0 1155.2813,548.6263" fill="#0073BB" style="stroke:#005C96;stroke-width:1.0417;"/><path d="M1382.2161,544.4596 L1382.2161,552.793 A2.0833,2.0833 0 0 0 1384.2994,554.8763 L1392.6327,554.8763 L1382.2161,544.4596" fill="#0073BB" style="stroke:#005C96;stroke-width:1.0417;"/><text fill="#FFFFFF" font-family="'Verdana'" font-size="12.5" lengthAdjust="spacing" textLength="144.2566" x="1166.7396" y="566.4791">OTP sent to WhatsApp.</text><text fill="#FFFFFF" font-family="'Verdana'" font-size="12.5" lengthAdjust="spacing" textLength="205.0598" x="1166.7396" y="581.0299">Final verification before success.</text></g><g class="entity" data-entity="GMN11" data-source-line="85" data-uid="ent0012" id="entity_GMN11"><path d="M1388.5417,871.1367 L1388.5417,887.7721 L1352.2188,891.9388 L1388.5417,896.1055 L1388.5417,912.7383 A4.1667,4.1667 0 0 0 1392.7083,916.9049 L1590.623,916.9049 A4.1667,4.1667 0 0 0 1594.7896,912.7383 L1594.7896,877.3867 L1584.373,866.9701 L1392.7083,866.9701 A4.1667,4.1667 0 0 0 1388.5417,871.1367" fill="#0073BB" style="stroke:#005C96;stroke-width:1.0417;"/><path d="M1584.373,866.9701 L1584.373,875.3034 A2.0833,2.0833 0 0 0 1586.4563,877.3867 L1594.7896,877.3867 L1584.373,866.9701" fill="#0073BB" style="stroke:#005C96;stroke-width:1.0417;"/><text fill="#FFFFFF" font-family="'Verdana'" font-size="12.5" lengthAdjust="spacing" textLength="173.9563" x="1400" y="888.9895">User logged in successfully.</text><text fill="#FFFFFF" font-family="'Verdana'" font-size="12.5" lengthAdjust="spacing" textLength="165.033" x="1400" y="903.5403">Can view profile or logout.</text></g><!--link *start* to SignupPage--><g class="link" data-entity-1=".start." data-entity-2="SignupPage" data-source-line="11" data-uid="lnk3" id="link_.start._SignupPage"><path d="M200,83.7617 C200,91.9544 200,104.7493 200,119.3851 C200,126.703 200,134.481 200,142.3741 C200,146.3207 200,150.296 200,154.2569 C200,156.2374 200,158.2143 200,160.1821 C200,161.1661 200,162.1478 200,163.1265 C200,163.6159 200,164.1046 200,164.5924 C200,164.8363 200,158.83 200,159.0735" fill="none" id="*start*-to-SignupPage" style="stroke:#000000;stroke-width:3.125;"/><polygon fill="#000000" points="200,165.3235,204.1667,155.9485,200,160.1152,195.8333,155.9485,200,165.3235" style="stroke:#000000;stroke-width:3.125;"/><text fill="#4E5D6C" font-family="'Verdana'" font-size="12.5" lengthAdjust="spacing" textLength="30.5359" x="206.25" y="132.7291">Start</text></g><!--link SignupPage to EmailConfirmation--><g class="link" data-entity-1="SignupPage" data-entity-2="EmailConfirmation" data-source-line="14" data-uid="lnk4" id="link_SignupPage_EmailConfirmation"><path d="M378.0018,269.4786 C378.6673,269.6384 379.3328,269.7982 379.9982,269.9581 C382.6597,270.5979 385.3197,271.2388 387.9758,271.8804 C393.2879,273.1636 398.5844,274.4495 403.8454,275.7341 C414.3674,278.3034 424.7477,280.8676 434.829,283.3946 C454.9917,288.4487 473.9581,293.3545 490.4692,297.8561 C523.4915,306.8594 546.6927,314.2461 550,317.9701 C552.8177,321.1406 555.1058,324.6888 556.9512,328.4766 C557.8739,330.3706 556.586,326.4378 557.2982,328.4343" fill="none" id="SignupPage-to-EmailConfirmation" style="stroke:#000000;stroke-width:3.125;"/><polygon fill="#000000" points="559.3981,334.3209,560.1726,324.091,557.6482,329.4154,552.3238,326.8909,559.3981,334.3209" style="stroke:#000000;stroke-width:3.125;"/><text fill="#4E5D6C" font-family="'Verdana'" font-size="12.5" lengthAdjust="spacing" textLength="76.7639" x="533.3333" y="301.4478">Valid signup</text></g><!--link EmailConfirmation to SignupPage--><g class="link" data-entity-1="EmailConfirmation" data-entity-2="SignupPage" data-source-line="21" data-uid="lnk10" id="link_EmailConfirmation_SignupPage"><path d="M560.7245,334.5282 C560.6791,334.4056 560.6333,334.2832 560.587,334.161 C560.4945,333.9166 560.4003,333.673 560.3042,333.4304 C559.5361,331.4888 558.6549,329.603 557.6481,327.7918 C555.6344,324.1693 553.1185,320.8451 550,317.9701 C536.8854,305.8659 406.9688,313.668 389.5833,309.6367 C386.8366,308.9984 384.0794,308.3224 381.3151,307.6118 C379.933,307.2565 384.5849,308.5145 383.1995,308.1423" fill="none" id="EmailConfirmation-to-SignupPage" style="stroke:#000000;stroke-width:3.125;"/><polygon fill="#000000" points="377.1637,306.5203,385.1361,312.9772,382.1936,307.8719,387.2988,304.9293,377.1637,306.5203" style="stroke:#000000;stroke-width:3.125;"/><text fill="#4E5D6C" font-family="'Verdana'" font-size="12.5" lengthAdjust="spacing" textLength="30.3467" x="395.8333" y="301.4478">Back</text></g><!--link SignupPage to SignupPage--><g class="link" data-entity-1="SignupPage" data-entity-2="SignupPage" data-source-line="15" data-uid="lnk5" id="link_SignupPage_SignupPage"><path d="M359.375,226.9701 C371.7396,210.0638 395.9167,210.1992 395.9167,227.3763 C395.9167,244.543 375.4291,249.7232 363.0646,232.8169" fill="none" id="SignupPage-to-SignupPage" style="stroke:#000000;stroke-width:3.125;"/><polygon fill="#000000" points="359.375,227.7721,361.5461,237.799,362.4496,231.9761,368.2725,232.8796,359.375,227.7721" style="stroke:#000000;stroke-width:3.125;"/><text fill="#4E5D6C" font-family="'Verdana'" font-size="12.5" lengthAdjust="spacing" textLength="127.6978" x="407.375" y="232.2083">Invalid input &#171;error&#187;</text></g><!--link SignupPage to LoginPage--><g class="link" data-entity-1="SignupPage" data-entity-2="LoginPage" data-source-line="16" data-uid="lnk7" id="link_SignupPage_LoginPage"><path d="M378.162,251.2995 C379.7755,251.5074 381.3918,251.7157 383.0103,251.9243 C386.2474,252.3415 389.4937,252.76 392.746,253.1794 C399.2508,254.0181 405.7799,254.8604 412.3086,255.7031 C516.7682,269.1862 621.1302,282.7721 623.9583,283.5951 C650.4271,291.2409 653.5625,302.6159 680.2083,309.6367 C702.2188,315.4284 762.0729,307.5221 782.2917,317.9701 C804.1667,329.2617 818.2672,346.0595 829.663,363.872" fill="none" id="SignupPage-to-LoginPage" style="stroke:#000000;stroke-width:3.125;"/><polygon fill="#000000" points="833.0313,369.1367,831.4888,358.9941,830.2244,364.7494,824.4691,363.4851,833.0313,369.1367" style="stroke:#000000;stroke-width:3.125;"/><text fill="#4E5D6C" font-family="'Verdana'" font-size="12.5" lengthAdjust="spacing" textLength="92.2729" x="686.4583" y="301.4478">Switch to login</text></g><!--link LoginPage to SignupPage--><g class="link" data-entity-1="LoginPage" data-entity-2="SignupPage" data-source-line="32" data-uid="lnk17" id="link_LoginPage_SignupPage"><path d="M841.7292,369.1784 C834.0833,342.5846 818.25,303.1159 788.5417,283.5951 C713.8438,234.4909 476.4271,261.4701 387.5,252.3451 C384.9294,252.0811 382.3394,251.8107 379.7339,251.5345 C379.0825,251.4655 384.6448,252.0596 383.9915,251.9898" fill="none" id="LoginPage-to-SignupPage" style="stroke:#000000;stroke-width:3.125;"/><polygon fill="#000000" points="377.7768,251.3263,386.6565,256.4647,382.9557,251.8792,387.5412,248.1784,377.7768,251.3263" style="stroke:#000000;stroke-width:3.125;"/><text fill="#4E5D6C" font-family="'Verdana'" font-size="12.5" lengthAdjust="spacing" textLength="103.5217" x="818.75" y="301.4478">Switch to signup</text></g><!--link EmailConfirmation to WhatsAppOTP--><g class="link" data-entity-1="EmailConfirmation" data-entity-2="WhatsAppOTP" data-source-line="19" data-uid="lnk8" id="link_EmailConfirmation_WhatsAppOTP"><path d="M774.2862,485.5923 C776.8899,485.5656 779.4912,485.5392 782.0878,485.5134 C787.2809,485.4618 792.4551,485.4124 797.592,485.3668 C807.8657,485.2757 817.9898,485.2001 827.8165,485.1531 C847.4698,485.0591 865.9332,485.0798 882.0236,485.321 C914.2044,485.8034 936.8932,487.168 940.625,490.2617 C943.9349,493.0052 946.6875,496.2298 948.9693,499.7788 C950.1101,501.5533 951.1333,503.4088 952.0496,505.3259 C952.2786,505.8052 949.9667,500.5752 950.1826,501.0618" fill="none" id="EmailConfirmation-to-WhatsAppOTP" style="stroke:#000000;stroke-width:3.125;"/><polygon fill="#000000" points="952.7169,506.7749,952.7242,496.5157,950.605,502.014,945.1067,499.8948,952.7169,506.7749" style="stroke:#000000;stroke-width:3.125;"/><text fill="#4E5D6C" font-family="'Verdana'" font-size="12.5" lengthAdjust="spacing" textLength="103.656" x="597.9167" y="473.7395">Valid email code</text></g><!--link WhatsAppOTP to EmailConfirmation--><g class="link" data-entity-1="WhatsAppOTP" data-entity-2="EmailConfirmation" data-source-line="26" data-uid="lnk13" id="link_WhatsAppOTP_EmailConfirmation"><path d="M952.6232,506.89 C952.4085,506.4018 952.1874,505.9171 951.9597,505.4361 C951.0489,503.5122 950.0326,501.6481 948.9,499.8634 C946.6349,496.2939 943.9049,493.0417 940.625,490.2617 C932.849,483.668 891.9141,482.9987 850.474,483.2708 C829.7539,483.4069 808.9076,483.7783 792.0166,483.7622 C787.7939,483.7582 783.8183,483.7299 780.1538,483.6677 C778.3215,483.6366 776.567,483.597 774.8982,483.5477 C774.6896,483.5416 780.7293,483.7315 780.5234,483.725" fill="none" id="WhatsAppOTP-to-EmailConfirmation" style="stroke:#000000;stroke-width:3.125;"/><polygon fill="#000000" points="774.2764,483.5288,783.516,487.9877,779.4822,483.6923,783.7776,479.6585,774.2764,483.5288" style="stroke:#000000;stroke-width:3.125;"/><text fill="#4E5D6C" font-family="'Verdana'" font-size="12.5" lengthAdjust="spacing" textLength="85.7727" x="763.5417" y="473.7395">Back (signup)</text></g><!--link EmailConfirmation to EmailConfirmation--><g class="link" data-entity-1="EmailConfirmation" data-entity-2="EmailConfirmation" data-source-line="20" data-uid="lnk9" id="link_EmailConfirmation_EmailConfirmation"><path d="M756.25,396.7201 C768.6146,379.1888 792.7917,379.3242 792.7917,397.1367 C792.7917,414.9388 772.2183,420.1807 759.8537,402.6599" fill="none" id="EmailConfirmation-to-EmailConfirmation" style="stroke:#000000;stroke-width:3.125;"/><polygon fill="#000000" points="756.25,397.5534,758.2512,407.6155,759.2531,401.8088,765.0598,402.8106,756.25,397.5534" style="stroke:#000000;stroke-width:3.125;"/><text fill="#4E5D6C" font-family="'Verdana'" font-size="12.5" lengthAdjust="spacing" textLength="164.1357" x="804.25" y="401.9687">Invalid email code &#171;error&#187;</text></g><!--link WhatsAppOTP to Success--><g class="link" data-entity-1="WhatsAppOTP" data-entity-2="Success" data-source-line="24" data-uid="lnk11" id="link_WhatsAppOTP_Success"><path d="M1127.7034,755.6921 C1130.4404,758.667 1133.1664,761.63 1135.8778,764.577 C1141.3004,770.4709 1142.4324,771.7013 1147.7058,777.4331" fill="none" id="WhatsAppOTP-to-Success" style="stroke:#000000;stroke-width:3.125;"/><polygon fill="#000000" points="1151.9375,782.0326,1148.6563,772.3122,1148.4111,778.1996,1142.5236,777.9545,1151.9375,782.0326" style="stroke:#000000;stroke-width:3.125;"/><text fill="#4E5D6C" font-family="'Verdana'" font-size="12.5" lengthAdjust="spacing" textLength="60.0769" x="1050" y="664.7812">Valid OTP</text></g><!--link WhatsAppOTP to WhatsAppOTP--><g class="link" data-entity-1="WhatsAppOTP" data-entity-2="WhatsAppOTP" data-source-line="25" data-uid="lnk12" id="link_WhatsAppOTP_WhatsAppOTP"><path d="M1109.375,568.8971 C1121.7396,546.793 1145.9167,546.9701 1145.9167,569.4284 C1145.9167,591.8763 1124.7908,597.508 1112.4262,575.4038" fill="none" id="WhatsAppOTP-to-WhatsAppOTP" style="stroke:#000000;stroke-width:3.125;"/><polygon fill="#000000" points="1109.375,569.9492,1110.3154,580.1653,1111.9177,574.4947,1117.5882,576.097,1109.375,569.9492" style="stroke:#000000;stroke-width:3.125;"/><text fill="#4E5D6C" font-family="'Verdana'" font-size="12.5" lengthAdjust="spacing" textLength="120.5566" x="1157.375" y="574.2603">Invalid OTP &#171;error&#187;</text></g><!--link WhatsAppOTP to LoginPage--><g class="link" data-entity-1="WhatsAppOTP" data-entity-2="LoginPage" data-source-line="27" data-uid="lnk14" id="link_WhatsAppOTP_LoginPage"><path d="M981.3757,506.4384 C981.4083,506.2469 981.4404,506.0553 981.472,505.8636 C981.5353,505.4802 981.5967,505.0964 981.6562,504.7123 C981.8942,503.1758 982.1016,501.6341 982.2752,500.09 C982.6223,497.0018 982.8339,493.9041 982.883,490.8195 C983.0794,478.4811 980.6771,466.3529 973.9583,455.8867 C956.3438,428.4388 928.0977,415.5113 899.7331,407.8759" fill="none" id="WhatsAppOTP-to-LoginPage" style="stroke:#000000;stroke-width:3.125;"/><polygon fill="#000000" points="893.6979,406.2513,901.6676,412.7116,898.7272,407.6051,903.8337,404.6648,893.6979,406.2513" style="stroke:#000000;stroke-width:3.125;"/><text fill="#4E5D6C" font-family="'Verdana'" font-size="12.5" lengthAdjust="spacing" textLength="74.5239" x="988.5417" y="473.7395">Back (login)</text></g><!--link LoginPage to WhatsAppOTP--><g class="link" data-entity-1="LoginPage" data-entity-2="WhatsAppOTP" data-source-line="30" data-uid="lnk15" id="link_LoginPage_WhatsAppOTP"><path d="M852.5313,425.0638 C857.2396,443.9596 866.5,468.2305 884.375,481.9284 C904.4375,497.293 922.1979,472.9596 940.625,490.2617 C943.7591,493.2044 946.3786,496.5801 948.5621,500.2407 C949.6538,502.071 950.6366,503.9725 951.5202,505.9267 C951.6306,506.171 949.2385,500.6884 949.3459,500.9342" fill="none" id="LoginPage-to-WhatsAppOTP" style="stroke:#000000;stroke-width:3.125;"/><polygon fill="#000000" points="951.8469,506.662,951.9138,496.403,949.7627,501.8889,944.2768,499.7377,951.8469,506.662" style="stroke:#000000;stroke-width:3.125;"/><text fill="#4E5D6C" font-family="'Verdana'" font-size="12.5" lengthAdjust="spacing" textLength="69.5374" x="890.625" y="473.7395">Valid email</text></g><!--link LoginPage to LoginPage--><g class="link" data-entity-1="LoginPage" data-entity-2="LoginPage" data-source-line="31" data-uid="lnk16" id="link_LoginPage_LoginPage"><path d="M893.7396,383.8138 C913.1458,382.8138 929.6875,387.2513 929.6875,397.1367 C929.6875,407.0117 919.3874,411.7846 899.9811,410.7742" fill="none" id="LoginPage-to-LoginPage" style="stroke:#000000;stroke-width:3.125;"/><polygon fill="#000000" points="893.7396,410.4492,902.8853,415.0977,898.9409,410.72,903.3186,406.7757,893.7396,410.4492" style="stroke:#000000;stroke-width:3.125;"/><text fill="#4E5D6C" font-family="'Verdana'" font-size="12.5" lengthAdjust="spacing" textLength="130.0171" x="941.1458" y="401.9687">Invalid email &#171;error&#187;</text></g><!--link Success to *end*--><g class="link" data-entity-1="Success" data-entity-2=".end." data-source-line="34" data-uid="lnk19" id="link_Success_.end."><path d="M1252.0833,1079.7409 C1252.0833,1124.8242 1252.0833,1159.1055 1252.0833,1177.6888" fill="none" id="Success-to-*end*" style="stroke:#000000;stroke-width:3.125;"/><polygon fill="#000000" points="1252.0833,1183.9388,1256.25,1174.5638,1252.0833,1178.7305,1247.9167,1174.5638,1252.0833,1183.9388" style="stroke:#000000;stroke-width:3.125;"/><text fill="#4E5D6C" font-family="'Verdana'" font-size="12.5" lengthAdjust="spacing" textLength="56.2073" x="1258.3333" y="1128.7603">Continue</text></g><!--link *start*SignupPage to EmailInput--><g class="link" data-entity-1=".start.SignupPage" data-entity-2="EmailInput" data-source-line="38" data-uid="lnk22" id="link_.start.SignupPage_EmailInput"><path d="M88.5417,237.9076 C88.5417,262.8555 88.5417,324.668 88.5417,362.8867" fill="none" id="*start*SignupPage-to-EmailInput" style="stroke:#000000;stroke-width:3.125;"/><polygon fill="#000000" points="88.5417,369.1367,92.7083,359.7617,88.5417,363.9284,84.375,359.7617,88.5417,369.1367" style="stroke:#000000;stroke-width:3.125;"/></g><!--link EmailInput to PhoneInput--><g class="link" data-entity-1="EmailInput" data-entity-2="PhoneInput" data-source-line="39" data-uid="lnk24" id="link_EmailInput_PhoneInput"><path d="M88.5417,425.1471 C88.5417,457.0117 88.5417,503.4701 88.5417,535.293" fill="none" id="EmailInput-to-PhoneInput" style="stroke:#000000;stroke-width:3.125;"/><polygon fill="#000000" points="88.5417,541.543,92.7083,532.168,88.5417,536.3346,84.375,532.168,88.5417,541.543" style="stroke:#000000;stroke-width:3.125;"/><text fill="#4E5D6C" font-family="'Verdana'" font-size="12.5" lengthAdjust="spacing" textLength="69.5374" x="94.7917" y="473.7395">Valid email</text></g><!--link PhoneInput to PasswordInput--><g class="link" data-entity-1="PhoneInput" data-entity-2="PasswordInput" data-source-line="40" data-uid="lnk26" id="link_PhoneInput_PasswordInput"><path d="M88.625,597.2409 C88.8229,657.5534 89.2816,797.2722 89.4795,857.7305" fill="none" id="PhoneInput-to-PasswordInput" style="stroke:#000000;stroke-width:3.125;"/><polygon fill="#000000" points="89.5,863.9805,93.636,854.5919,89.483,858.7722,85.3027,854.6192,89.5,863.9805" style="stroke:#000000;stroke-width:3.125;"/><text fill="#4E5D6C" font-family="'Verdana'" font-size="12.5" lengthAdjust="spacing" textLength="74.1821" x="95.8333" y="664.7812">Valid phone</text></g><!--link PasswordInput to Submit--><g class="link" data-entity-1="PasswordInput" data-entity-2="Submit" data-source-line="41" data-uid="lnk28" id="link_PasswordInput_Submit"><path d="M93.9271,919.7513 C103.2188,977.0013 123.9258,1104.582 133.2071,1161.7695" fill="none" id="PasswordInput-to-Submit" style="stroke:#000000;stroke-width:3.125;"/><polygon fill="#000000" points="134.2083,1167.9388,136.8193,1158.0174,133.374,1162.7977,128.5936,1159.3524,134.2083,1167.9388" style="stroke:#000000;stroke-width:3.125;"/><text fill="#4E5D6C" font-family="'Verdana'" font-size="12.5" lengthAdjust="spacing" textLength="94.6289" x="134.375" y="1128.7603">Valid password</text></g><!--link Submit to *end*SignupPage--><g class="link" data-entity-1="Submit" data-entity-2=".end.SignupPage" data-source-line="42" data-uid="lnk30" id="link_Submit_.end.SignupPage"><path d="M134.2917,1223.6471 C129.9792,1250.9909 124.485,1285.8382 121.4329,1305.1715" fill="none" id="Submit-to-*end*SignupPage" style="stroke:#000000;stroke-width:3.125;"/><polygon fill="#000000" points="120.4583,1311.3451,126.0359,1302.7345,121.2705,1306.2004,117.8045,1301.435,120.4583,1311.3451" style="stroke:#000000;stroke-width:3.125;"/><text fill="#4E5D6C" font-family="'Verdana'" font-size="12.5" lengthAdjust="spacing" textLength="44.342" x="136.4583" y="1272.302">Submit</text></g><!--link *start*EmailConfirmation to CodeInput--><g class="link" data-entity-1=".start.EmailConfirmation" data-entity-2="CodeInput" data-source-line="47" data-uid="lnk33" id="link_.start.EmailConfirmation_CodeInput"><path d="M512.125,407.8138 C508.3854,433.2721 499.0537,496.8176 493.3766,535.4843" fill="none" id="*start*EmailConfirmation-to-CodeInput" style="stroke:#000000;stroke-width:3.125;"/><polygon fill="#000000" points="492.4688,541.668,497.9531,532.9977,493.2253,536.5149,489.7081,531.7871,492.4688,541.668" style="stroke:#000000;stroke-width:3.125;"/></g><!--link CodeInput to Submit--><g class="link" data-entity-1="CodeInput" data-entity-2="Submit" data-source-line="48" data-uid="lnk34" id="link_CodeInput_Submit"><path d="M489.4896,597.3451 C491.1146,687.168 483.8958,980.1576 330.2083,1136.9492 C288.8542,1179.1367 224.1408,1190.3015 181.1304,1193.3327" fill="none" id="CodeInput-to-Submit" style="stroke:#000000;stroke-width:3.125;"/><polygon fill="#000000" points="174.8958,1193.7721,184.5406,1197.2694,180.0913,1193.406,183.9547,1188.9567,174.8958,1193.7721" style="stroke:#000000;stroke-width:3.125;"/><text fill="#4E5D6C" font-family="'Verdana'" font-size="12.5" lengthAdjust="spacing" textLength="65.21" x="491.6667" y="896.7708">Valid code</text></g><!--link Submit to *end*EmailConfirmation--><g class="link" data-entity-1="Submit" data-entity-2=".end.EmailConfirmation" data-source-line="49" data-uid="lnk36" id="link_Submit_.end.EmailConfirmation"><path d="M174.7396,1182.8242 C197.3646,1173.6784 225.3854,1158.8242 242.7083,1136.9492 C265.8854,1107.6784 414.1146,525.9701 425,490.2617 C434.125,460.3242 443.9186,431.1975 449.6998,414.26" fill="none" id="Submit-to-*end*EmailConfirmation" style="stroke:#000000;stroke-width:3.125;"/><polygon fill="#000000" points="451.7188,408.3451,444.7471,415.8715,450.0363,413.2742,452.6336,418.5634,451.7188,408.3451" style="stroke:#000000;stroke-width:3.125;"/><text fill="#4E5D6C" font-family="'Verdana'" font-size="12.5" lengthAdjust="spacing" textLength="44.342" x="387.5" y="664.7812">Submit</text></g><!--link *start*WhatsAppOTP to OTPInput--><g class="link" data-entity-1=".start.WhatsAppOTP" data-entity-2="OTPInput" data-source-line="54" data-uid="lnk39" id="link_.start.WhatsAppOTP_OTPInput"><path d="M851.9792,580.0534 C856.1458,622.8555 872.5492,791.0204 879.1012,858.1559" fill="none" id="*start*WhatsAppOTP-to-OTPInput" style="stroke:#000000;stroke-width:3.125;"/><polygon fill="#000000" points="879.7083,864.3763,882.9447,854.6409,879.2024,859.1926,874.6507,855.4504,879.7083,864.3763" style="stroke:#000000;stroke-width:3.125;"/></g><!--link OTPInput to Submit--><g class="link" data-entity-1="OTPInput" data-entity-2="Submit" data-source-line="55" data-uid="lnk40" id="link_OTPInput_Submit"><path d="M846.9063,919.9284 C778.0938,970.9076 619.7083,1081.3242 468.75,1136.9492 C366.3646,1174.668 243.0462,1187.6446 181.0567,1192.1238" fill="none" id="OTPInput-to-Submit" style="stroke:#000000;stroke-width:3.125;"/><polygon fill="#000000" points="174.8229,1192.5742,184.4738,1196.0544,180.0177,1192.1989,183.8733,1187.7427,174.8229,1192.5742" style="stroke:#000000;stroke-width:3.125;"/><text fill="#4E5D6C" font-family="'Verdana'" font-size="12.5" lengthAdjust="spacing" textLength="60.0769" x="534.375" y="1128.7603">Valid OTP</text></g><!--link Submit to *end*WhatsAppOTP--><g class="link" data-entity-1="Submit" data-entity-2=".end.WhatsAppOTP" data-source-line="56" data-uid="lnk42" id="link_Submit_.end.WhatsAppOTP"><path d="M174.6563,1192.2721 C324.5625,1182.0326 892.25,1139.4909 942.7083,1079.6576 C1050.2708,952.0951 964.6354,869.6367 942.7083,704.2201 C938.7396,674.2721 932.3125,667.9076 925,638.5951 C919.9479,618.3451 915.9747,600.6582 913.0268,587.2207" fill="none" id="Submit-to-*end*WhatsAppOTP" style="stroke:#000000;stroke-width:3.125;"/><polygon fill="#000000" points="911.6875,581.1159,909.6265,591.166,912.8036,586.2032,917.7663,589.3803,911.6875,581.1159" style="stroke:#000000;stroke-width:3.125;"/><text fill="#4E5D6C" font-family="'Verdana'" font-size="12.5" lengthAdjust="spacing" textLength="44.342" x="1001.0417" y="896.7708">Submit</text></g><!--link SignupPage to GMN2--><g class="link" data-entity-1="SignupPage" data-entity-2="GMN2" data-source-line="70" data-uid="lnk4" id="link_SignupPage_GMN2"><path d="M377.8815,227.3763 C378.4136,227.3763 378.9457,227.3763 379.4779,227.3763 C387.9922,227.3763 396.5065,227.3763 405.0208,227.3763" fill="none" id="SignupPage-GMN2" style="stroke:#000000;stroke-width:3.125;stroke-dasharray:7.2917,7.2917;"/></g><!--link EmailConfirmation to GMN5--><g class="link" data-entity-1="EmailConfirmation" data-entity-2="GMN5" data-source-line="75" data-uid="lnk7" id="link_EmailConfirmation_GMN5"><path d="M669.3049,334.5965 C672.4205,333.0629 675.5759,331.532 678.7672,330.008 C691.5323,323.9117 704.8722,317.9244 718.5435,312.3081 C745.8861,301.0755 774.5547,291.3268 802.6042,285.1576 C916.0938,260.1888 952.6875,251.9909 1064.0625,285.1576 C1120.7708,302.043 1176.1979,344.3242 1208.0208,371.8346" fill="none" id="EmailConfirmation-GMN5" style="stroke:#000000;stroke-width:3.125;stroke-dasharray:7.2917,7.2917;"/></g><!--link WhatsAppOTP to GMN8--><g class="link" data-entity-1="WhatsAppOTP" data-entity-2="GMN8" data-source-line="80" data-uid="lnk10" id="link_WhatsAppOTP_GMN8"><path d="M1127.1329,569.4284 C1128.1585,569.4284 1129.1841,569.4284 1130.2096,569.4284 C1138.4141,569.4284 1146.6185,569.4284 1154.8229,569.4284" fill="none" id="WhatsAppOTP-GMN8" style="stroke:#000000;stroke-width:3.125;stroke-dasharray:7.2917,7.2917;"/></g><!--SRC=[XLN1Rjim3BtxApZii7LeUncmGr44QB84A51i1TgjXs47rQOTeOvaI7AoOTY_ZvGiMtQSzHBOvAFudlWOlt5Rt268WxtGHgWACoTTZR1MMw5oBE2RHGFhNmqQYHI0JQqFMMPVf6g44JkmJZY4Fnd0KkGlbT6jAbQwrkRwMkHExd6nWBURpvjFwuzp63H66m_Ph9Vh9KEqAT3uD3pNXAVO3Q4E8RJqeRzPzkF3JxYuMC23h5JRt8iAuGeUd30kozwbKKUwh7HIAvibOQvTxuIiLrgLqkm48-Y8xwAM1LWFdE97lMxLtaFf9be7lPHfpPskf8hq3jBbMt0QQeuoqMCAAT_ZB1_vj1NEtZJDryVxdZ0o4d9Tu8cYEQrHmb2Sw9W_PdG5F4uMaH9AwQTnNzpcELhRawRu4MOiBZBaju7Qj6PE6tE3zs6EPqSLwLG2qa_aZDKCkLJB4Ftl22QujC_ujWSruugndtl3T8RCuXKob5VW2aYtawh5YUsbScYKgCE6sYmiQWBWdOrBv2_mberCmU75v-wtMc5u7Ik5DEMHmje3hUyOt328mQDiiCFpJYR03a3OBZE8307U-xcLcTTwZ4ibhyZjKN7_F4VBxzGhb58xp9D94IaDUeyiukCS2TwKLpX4PvmOV9TDU_D_-wqgDHrqfqK1BRrJkW-7QmhkIeqsWP1_jPztUF3tsHLrJ2dKWMB0C_wYcP-YNp2osZhGPMBGhWqWwx71S-V1JUSWrE2NIq8-3flAsvAFt562NxpB3AcAssMJfaTEwJm1bfhpURxvPMIqQwsBBU0PIsqG6gDpn4AgwdIRn0DXtFtvCSCjDfA7jwSFRYdpeA3hOSCCJpVeXXnvqbzQXVo1YfLbMzU_kSTAADXBF33jKjBtNdiqJMWu_1y0]--></g></svg>