<svg xmlns="http://www.w3.org/2000/svg" xmlns:xlink="http://www.w3.org/1999/xlink" contentStyleType="text/css" data-diagram-type="DESCRIPTION" height="642.7083px" preserveAspectRatio="none" style="width:1987px;height:642px;" version="1.1" viewBox="0 0 1987 642" width="1987.5px" zoomAndPan="magnify"><title>Lambda Function Architecture</title><defs><linearGradient id="g1fh9vnkzqrvko0" x1="50%" x2="50%" y1="0%" y2="100%"><stop offset="0%" stop-color="#FFFFFF"/><stop offset="100%" stop-color="#EEEEEE"/></linearGradient><linearGradient id="g1fh9vnkzqrvko1" x1="50%" x2="50%" y1="0%" y2="100%"><stop offset="0%" stop-color="#F18E3E"/><stop offset="100%" stop-color="#EC7211"/></linearGradient></defs><g><g class="title" data-source-line="2"><rect fill="url(#g1fh9vnkzqrvko0)" height="45.0846" rx="4.1667" ry="4.1667" style="stroke:#EEEEEE;stroke-width:1.0417;" width="377.1057" x="797.9055" y="5.2083"/><text fill="#EC7211" font-family="'Verdana'" font-size="20.8333" font-weight="bold" lengthAdjust="spacing" textLength="356.2724" x="808.3221" y="34.963">Lambda Function Architecture</text></g><!--cluster Lambda Functions--><g class="cluster" data-entity="Lambda Functions" data-source-line="4" data-uid="ent0002" id="cluster_Lambda Functions"><path d="M10.4167,62.793 L147.7905,62.793 A6.25,6.25 0 0 1 151.9572,66.9596 L159.2489,94.0104 L1318.75,94.0104 A4.1667,4.1667 0 0 1 1322.9167,98.1771 L1322.9167,631.418 A4.1667,4.1667 0 0 1 1318.75,635.5846 L10.4167,635.5846 A4.1667,4.1667 0 0 1 6.25,631.418 L6.25,66.9596 A4.1667,4.1667 0 0 1 10.4167,62.793" fill="none" style="stroke:#4E5D6C;stroke-width:2.0833;"/><line style="stroke:#4E5D6C;stroke-width:2.0833;" x1="6.25" x2="159.2489" y1="94.0104" y2="94.0104"/><text fill="#4E5D6C" font-family="'Verdana'" font-size="12.5" font-weight="bold" lengthAdjust="spacing" textLength="129.0405" x="15.625" y="81.6874">Lambda Functions</text></g><!--cluster PreSignUp--><g class="cluster" data-entity="PreSignUp" data-source-line="5" data-uid="ent0003" id="cluster_PreSignUp"><path d="M35.4167,114.8763 L117.7856,114.8763 A6.25,6.25 0 0 1 121.9523,119.043 L129.244,146.0938 L266.6667,146.0938 A4.1667,4.1667 0 0 1 270.8333,150.2604 L270.8333,464.7826 A4.1667,4.1667 0 0 1 266.6667,468.9492 L35.4167,468.9492 A4.1667,4.1667 0 0 1 31.25,464.7826 L31.25,119.043 A4.1667,4.1667 0 0 1 35.4167,114.8763" fill="none" style="stroke:#4E5D6C;stroke-width:2.0833;"/><line style="stroke:#4E5D6C;stroke-width:2.0833;" x1="31.25" x2="129.244" y1="146.0938" y2="146.0938"/><text fill="#4E5D6C" font-family="'Verdana'" font-size="12.5" font-weight="bold" lengthAdjust="spacing" textLength="74.0356" x="40.625" y="133.7708">PreSignUp</text></g><!--cluster DefineAuthChallenge--><g class="cluster" data-entity="DefineAuthChallenge" data-source-line="11" data-uid="ent0007" id="cluster_DefineAuthChallenge"><path d="M300,114.8763 L457.6131,114.8763 A6.25,6.25 0 0 1 461.7798,119.043 L469.0715,146.0938 L510.4167,146.0938 A4.1667,4.1667 0 0 1 514.5833,150.2604 L514.5833,606.418 A4.1667,4.1667 0 0 1 510.4167,610.5846 L300,610.5846 A4.1667,4.1667 0 0 1 295.8333,606.418 L295.8333,119.043 A4.1667,4.1667 0 0 1 300,114.8763" fill="none" style="stroke:#4E5D6C;stroke-width:2.0833;"/><line style="stroke:#4E5D6C;stroke-width:2.0833;" x1="295.8333" x2="469.0715" y1="146.0938" y2="146.0938"/><text fill="#4E5D6C" font-family="'Verdana'" font-size="12.5" font-weight="bold" lengthAdjust="spacing" textLength="149.2798" x="305.2083" y="133.7708">DefineAuthChallenge</text></g><!--cluster CreateAuthChallenge--><g class="cluster" data-entity="CreateAuthChallenge" data-source-line="18" data-uid="ent0012" id="cluster_CreateAuthChallenge"><path d="M785.4167,114.8763 L943.7805,114.8763 A6.25,6.25 0 0 1 947.9472,119.043 L955.2389,146.0938 L1022.9167,146.0938 A4.1667,4.1667 0 0 1 1027.0833,150.2604 L1027.0833,606.418 A4.1667,4.1667 0 0 1 1022.9167,610.5846 L785.4167,610.5846 A4.1667,4.1667 0 0 1 781.25,606.418 L781.25,119.043 A4.1667,4.1667 0 0 1 785.4167,114.8763" fill="none" style="stroke:#4E5D6C;stroke-width:2.0833;"/><line style="stroke:#4E5D6C;stroke-width:2.0833;" x1="781.25" x2="955.2389" y1="146.0938" y2="146.0938"/><text fill="#4E5D6C" font-family="'Verdana'" font-size="12.5" font-weight="bold" lengthAdjust="spacing" textLength="150.0305" x="790.625" y="133.7708">CreateAuthChallenge</text></g><!--cluster VerifyAuthChallenge--><g class="cluster" data-entity="VerifyAuthChallenge" data-source-line="25" data-uid="ent0017" id="cluster_VerifyAuthChallenge"><path d="M543.75,114.8763 L697.5972,114.8763 A6.25,6.25 0 0 1 701.7639,119.043 L709.0556,146.0938 L752.0833,146.0938 A4.1667,4.1667 0 0 1 756.25,150.2604 L756.25,606.418 A4.1667,4.1667 0 0 1 752.0833,610.5846 L543.75,610.5846 A4.1667,4.1667 0 0 1 539.5833,606.418 L539.5833,119.043 A4.1667,4.1667 0 0 1 543.75,114.8763" fill="none" style="stroke:#4E5D6C;stroke-width:2.0833;"/><line style="stroke:#4E5D6C;stroke-width:2.0833;" x1="539.5833" x2="709.0556" y1="146.0938" y2="146.0938"/><text fill="#4E5D6C" font-family="'Verdana'" font-size="12.5" font-weight="bold" lengthAdjust="spacing" textLength="145.5139" x="548.9583" y="133.7708">VerifyAuthChallenge</text></g><!--cluster PostConfirmation--><g class="cluster" data-entity="PostConfirmation" data-source-line="32" data-uid="ent0022" id="cluster_PostConfirmation"><path d="M1056.25,114.8763 L1187.502,114.8763 A6.25,6.25 0 0 1 1191.6687,119.043 L1198.9604,146.0938 L1293.75,146.0938 A4.1667,4.1667 0 0 1 1297.9167,150.2604 L1297.9167,464.7826 A4.1667,4.1667 0 0 1 1293.75,468.9492 L1056.25,468.9492 A4.1667,4.1667 0 0 1 1052.0833,464.7826 L1052.0833,119.043 A4.1667,4.1667 0 0 1 1056.25,114.8763" fill="none" style="stroke:#4E5D6C;stroke-width:2.0833;"/><line style="stroke:#4E5D6C;stroke-width:2.0833;" x1="1052.0833" x2="1198.9604" y1="146.0938" y2="146.0938"/><text fill="#4E5D6C" font-family="'Verdana'" font-size="12.5" font-weight="bold" lengthAdjust="spacing" textLength="122.9187" x="1061.4583" y="133.7708">PostConfirmation</text></g><!--cluster External Dependencies--><g class="cluster" data-entity="External Dependencies" data-source-line="39" data-uid="ent0026" id="cluster_External Dependencies"><path d="M1352.0833,493.9492 L1522.7214,493.9492 A6.25,6.25 0 0 1 1526.888,498.1159 L1534.1797,525.1667 L1976.0417,525.1667 A4.1667,4.1667 0 0 1 1980.2083,529.3333 L1980.2083,606.418 A4.1667,4.1667 0 0 1 1976.0417,610.5846 L1352.0833,610.5846 A4.1667,4.1667 0 0 1 1347.9167,606.418 L1347.9167,498.1159 A4.1667,4.1667 0 0 1 1352.0833,493.9492" fill="none" style="stroke:#4E5D6C;stroke-width:2.0833;"/><line style="stroke:#4E5D6C;stroke-width:2.0833;" x1="1347.9167" x2="1534.1797" y1="525.1667" y2="525.1667"/><text fill="#4E5D6C" font-family="'Verdana'" font-size="12.5" font-weight="bold" lengthAdjust="spacing" textLength="162.3047" x="1357.2917" y="512.8437">External Dependencies</text></g><!--entity PS1--><g class="entity" data-entity="PS1" data-source-line="6" data-uid="ent0004" id="entity_PS1"><rect fill="url(#g1fh9vnkzqrvko1)" height="56.2174" rx="4.1667" ry="4.1667" style="stroke:#EC7211;stroke-width:1.0417;" width="199.2757" x="51.4063" y="158.6263"/><rect fill="url(#g1fh9vnkzqrvko1)" height="10.4167" style="stroke:#EC7211;stroke-width:1.0417;" width="15.625" x="229.8486" y="163.8346"/><rect fill="url(#g1fh9vnkzqrvko1)" height="2.0833" style="stroke:#EC7211;stroke-width:1.0417;" width="4.1667" x="227.7653" y="165.918"/><rect fill="url(#g1fh9vnkzqrvko1)" height="2.0833" style="stroke:#EC7211;stroke-width:1.0417;" width="4.1667" x="227.7653" y="170.0846"/><text fill="#FFFFFF" font-family="'Verdana'" font-size="12.5" lengthAdjust="spacing" textLength="147.1924" x="72.2396" y="196.2708">Validate phone number</text></g><!--entity PS2--><g class="entity" data-entity="PS2" data-source-line="7" data-uid="ent0005" id="entity_PS2"><rect fill="url(#g1fh9vnkzqrvko1)" height="56.2174" rx="4.1667" ry="4.1667" style="stroke:#EC7211;stroke-width:1.0417;" width="190.566" x="55.7604" y="277.3451"/><rect fill="url(#g1fh9vnkzqrvko1)" height="10.4167" style="stroke:#EC7211;stroke-width:1.0417;" width="15.625" x="225.4931" y="282.5534"/><rect fill="url(#g1fh9vnkzqrvko1)" height="2.0833" style="stroke:#EC7211;stroke-width:1.0417;" width="4.1667" x="223.4097" y="284.6367"/><rect fill="url(#g1fh9vnkzqrvko1)" height="2.0833" style="stroke:#EC7211;stroke-width:1.0417;" width="4.1667" x="223.4097" y="288.8034"/><text fill="#FFFFFF" font-family="'Verdana'" font-size="12.5" lengthAdjust="spacing" textLength="138.4827" x="76.5938" y="314.9895">Set auto-confirm false</text></g><!--entity PS3--><g class="entity" data-entity="PS3" data-source-line="8" data-uid="ent0006" id="entity_PS3"><rect fill="url(#g1fh9vnkzqrvko1)" height="56.2174" rx="4.1667" ry="4.1667" style="stroke:#EC7211;stroke-width:1.0417;" width="207.1309" x="47.4792" y="396.0638"/><rect fill="url(#g1fh9vnkzqrvko1)" height="10.4167" style="stroke:#EC7211;stroke-width:1.0417;" width="15.625" x="233.7768" y="401.2721"/><rect fill="url(#g1fh9vnkzqrvko1)" height="2.0833" style="stroke:#EC7211;stroke-width:1.0417;" width="4.1667" x="231.6934" y="403.3555"/><rect fill="url(#g1fh9vnkzqrvko1)" height="2.0833" style="stroke:#EC7211;stroke-width:1.0417;" width="4.1667" x="231.6934" y="407.5221"/><text fill="#FFFFFF" font-family="'Verdana'" font-size="12.5" lengthAdjust="spacing" textLength="155.0476" x="68.3125" y="433.7083">Enable email verification</text></g><!--entity DAC1--><g class="entity" data-entity="DAC1" data-source-line="12" data-uid="ent0008" id="entity_DAC1"><rect fill="url(#g1fh9vnkzqrvko1)" height="56.2174" rx="4.1667" ry="4.1667" style="stroke:#EC7211;stroke-width:1.0417;" width="184.6212" x="312.8958" y="158.6263"/><rect fill="url(#g1fh9vnkzqrvko1)" height="10.4167" style="stroke:#EC7211;stroke-width:1.0417;" width="15.625" x="476.6837" y="163.8346"/><rect fill="url(#g1fh9vnkzqrvko1)" height="2.0833" style="stroke:#EC7211;stroke-width:1.0417;" width="4.1667" x="474.6003" y="165.918"/><rect fill="url(#g1fh9vnkzqrvko1)" height="2.0833" style="stroke:#EC7211;stroke-width:1.0417;" width="4.1667" x="474.6003" y="170.0846"/><text fill="#FFFFFF" font-family="'Verdana'" font-size="12.5" lengthAdjust="spacing" textLength="132.5378" x="333.7292" y="196.2708">Determine client role</text></g><!--entity DAC2--><g class="entity" data-entity="DAC2" data-source-line="13" data-uid="ent0009" id="entity_DAC2"><rect fill="url(#g1fh9vnkzqrvko1)" height="56.2174" rx="4.1667" ry="4.1667" style="stroke:#EC7211;stroke-width:1.0417;" width="164.1561" x="323.1354" y="277.3451"/><rect fill="url(#g1fh9vnkzqrvko1)" height="10.4167" style="stroke:#EC7211;stroke-width:1.0417;" width="15.625" x="466.4582" y="282.5534"/><rect fill="url(#g1fh9vnkzqrvko1)" height="2.0833" style="stroke:#EC7211;stroke-width:1.0417;" width="4.1667" x="464.3748" y="284.6367"/><rect fill="url(#g1fh9vnkzqrvko1)" height="2.0833" style="stroke:#EC7211;stroke-width:1.0417;" width="4.1667" x="464.3748" y="288.8034"/><text fill="#FFFFFF" font-family="'Verdana'" font-size="12.5" lengthAdjust="spacing" textLength="112.0728" x="343.9688" y="314.9895">Check user status</text></g><!--entity DAC3--><g class="entity" data-entity="DAC3" data-source-line="14" data-uid="ent0010" id="entity_DAC3"><rect fill="url(#g1fh9vnkzqrvko1)" height="56.2174" rx="4.1667" ry="4.1667" style="stroke:#EC7211;stroke-width:1.0417;" width="169.1182" x="320.6458" y="396.0638"/><rect fill="url(#g1fh9vnkzqrvko1)" height="10.4167" style="stroke:#EC7211;stroke-width:1.0417;" width="15.625" x="468.9307" y="401.2721"/><rect fill="url(#g1fh9vnkzqrvko1)" height="2.0833" style="stroke:#EC7211;stroke-width:1.0417;" width="4.1667" x="466.8474" y="403.3555"/><rect fill="url(#g1fh9vnkzqrvko1)" height="2.0833" style="stroke:#EC7211;stroke-width:1.0417;" width="4.1667" x="466.8474" y="407.5221"/><text fill="#FFFFFF" font-family="'Verdana'" font-size="12.5" lengthAdjust="spacing" textLength="117.0349" x="341.4792" y="433.7083">Set challenge type</text></g><!--entity DAC4--><g class="entity" data-entity="DAC4" data-source-line="15" data-uid="ent0011" id="entity_DAC4"><rect fill="url(#g1fh9vnkzqrvko1)" height="56.2174" rx="4.1667" ry="4.1667" style="stroke:#EC7211;stroke-width:1.0417;" width="163.7777" x="323.3229" y="537.6992"/><rect fill="url(#g1fh9vnkzqrvko1)" height="10.4167" style="stroke:#EC7211;stroke-width:1.0417;" width="15.625" x="466.2673" y="542.9076"/><rect fill="url(#g1fh9vnkzqrvko1)" height="2.0833" style="stroke:#EC7211;stroke-width:1.0417;" width="4.1667" x="464.1839" y="544.9909"/><rect fill="url(#g1fh9vnkzqrvko1)" height="2.0833" style="stroke:#EC7211;stroke-width:1.0417;" width="4.1667" x="464.1839" y="549.1576"/><text fill="#FFFFFF" font-family="'Verdana'" font-size="12.5" lengthAdjust="spacing" textLength="111.6943" x="344.1563" y="575.3437">Handle retry logic</text></g><!--entity CAC1--><g class="entity" data-entity="CAC1" data-source-line="19" data-uid="ent0013" id="entity_CAC1"><rect fill="url(#g1fh9vnkzqrvko1)" height="56.2174" rx="4.1667" ry="4.1667" style="stroke:#EC7211;stroke-width:1.0417;" width="185.2498" x="811.5417" y="158.6263"/><rect fill="url(#g1fh9vnkzqrvko1)" height="10.4167" style="stroke:#EC7211;stroke-width:1.0417;" width="15.625" x="975.9582" y="163.8346"/><rect fill="url(#g1fh9vnkzqrvko1)" height="2.0833" style="stroke:#EC7211;stroke-width:1.0417;" width="4.1667" x="973.8748" y="165.918"/><rect fill="url(#g1fh9vnkzqrvko1)" height="2.0833" style="stroke:#EC7211;stroke-width:1.0417;" width="4.1667" x="973.8748" y="170.0846"/><text fill="#FFFFFF" font-family="'Verdana'" font-size="12.5" lengthAdjust="spacing" textLength="133.1665" x="832.375" y="196.2708">Generate secure OTP</text></g><!--entity CAC2--><g class="entity" data-entity="CAC2" data-source-line="20" data-uid="ent0014" id="entity_CAC2"><rect fill="url(#g1fh9vnkzqrvko1)" height="56.2174" rx="4.1667" ry="4.1667" style="stroke:#EC7211;stroke-width:1.0417;" width="211.4644" x="798.4375" y="277.3451"/><rect fill="url(#g1fh9vnkzqrvko1)" height="10.4167" style="stroke:#EC7211;stroke-width:1.0417;" width="15.625" x="989.0686" y="282.5534"/><rect fill="url(#g1fh9vnkzqrvko1)" height="2.0833" style="stroke:#EC7211;stroke-width:1.0417;" width="4.1667" x="986.9853" y="284.6367"/><rect fill="url(#g1fh9vnkzqrvko1)" height="2.0833" style="stroke:#EC7211;stroke-width:1.0417;" width="4.1667" x="986.9853" y="288.8034"/><text fill="#FFFFFF" font-family="'Verdana'" font-size="12.5" lengthAdjust="spacing" textLength="159.3811" x="819.2708" y="314.9895">Send WhatsApp message</text></g><!--entity CAC3--><g class="entity" data-entity="CAC3" data-source-line="21" data-uid="ent0015" id="entity_CAC3"><rect fill="url(#g1fh9vnkzqrvko1)" height="56.2174" rx="4.1667" ry="4.1667" style="stroke:#EC7211;stroke-width:1.0417;" width="171.0531" x="818.6354" y="396.0638"/><rect fill="url(#g1fh9vnkzqrvko1)" height="10.4167" style="stroke:#EC7211;stroke-width:1.0417;" width="15.625" x="968.8551" y="401.2721"/><rect fill="url(#g1fh9vnkzqrvko1)" height="2.0833" style="stroke:#EC7211;stroke-width:1.0417;" width="4.1667" x="966.7718" y="403.3555"/><rect fill="url(#g1fh9vnkzqrvko1)" height="2.0833" style="stroke:#EC7211;stroke-width:1.0417;" width="4.1667" x="966.7718" y="407.5221"/><text fill="#FFFFFF" font-family="'Verdana'" font-size="12.5" lengthAdjust="spacing" textLength="118.9697" x="839.4688" y="433.7083">Store OTP securely</text></g><!--entity CAC4--><g class="entity" data-entity="CAC4" data-source-line="22" data-uid="ent0016" id="entity_CAC4"><rect fill="url(#g1fh9vnkzqrvko1)" height="56.2174" rx="4.1667" ry="4.1667" style="stroke:#EC7211;stroke-width:1.0417;" width="137.4044" x="835.4688" y="537.6992"/><rect fill="url(#g1fh9vnkzqrvko1)" height="10.4167" style="stroke:#EC7211;stroke-width:1.0417;" width="15.625" x="952.0398" y="542.9076"/><rect fill="url(#g1fh9vnkzqrvko1)" height="2.0833" style="stroke:#EC7211;stroke-width:1.0417;" width="4.1667" x="949.9565" y="544.9909"/><rect fill="url(#g1fh9vnkzqrvko1)" height="2.0833" style="stroke:#EC7211;stroke-width:1.0417;" width="4.1667" x="949.9565" y="549.1576"/><text fill="#FFFFFF" font-family="'Verdana'" font-size="12.5" lengthAdjust="spacing" textLength="85.321" x="856.3021" y="575.3437">Handle errors</text></g><!--entity VAC1--><g class="entity" data-entity="VAC1" data-source-line="26" data-uid="ent0018" id="entity_VAC1"><rect fill="url(#g1fh9vnkzqrvko1)" height="56.2174" rx="4.1667" ry="4.1667" style="stroke:#EC7211;stroke-width:1.0417;" width="178.3101" x="558.7604" y="158.6263"/><rect fill="url(#g1fh9vnkzqrvko1)" height="10.4167" style="stroke:#EC7211;stroke-width:1.0417;" width="15.625" x="716.2372" y="163.8346"/><rect fill="url(#g1fh9vnkzqrvko1)" height="2.0833" style="stroke:#EC7211;stroke-width:1.0417;" width="4.1667" x="714.1539" y="165.918"/><rect fill="url(#g1fh9vnkzqrvko1)" height="2.0833" style="stroke:#EC7211;stroke-width:1.0417;" width="4.1667" x="714.1539" y="170.0846"/><text fill="#FFFFFF" font-family="'Verdana'" font-size="12.5" lengthAdjust="spacing" textLength="126.2268" x="579.5938" y="196.2708">Validate OTP format</text></g><!--entity VAC2--><g class="entity" data-entity="VAC2" data-source-line="27" data-uid="ent0019" id="entity_VAC2"><rect fill="url(#g1fh9vnkzqrvko1)" height="56.2174" rx="4.1667" ry="4.1667" style="stroke:#EC7211;stroke-width:1.0417;" width="162.5264" x="566.6563" y="277.3451"/><rect fill="url(#g1fh9vnkzqrvko1)" height="10.4167" style="stroke:#EC7211;stroke-width:1.0417;" width="15.625" x="708.3494" y="282.5534"/><rect fill="url(#g1fh9vnkzqrvko1)" height="2.0833" style="stroke:#EC7211;stroke-width:1.0417;" width="4.1667" x="706.266" y="284.6367"/><rect fill="url(#g1fh9vnkzqrvko1)" height="2.0833" style="stroke:#EC7211;stroke-width:1.0417;" width="4.1667" x="706.266" y="288.8034"/><text fill="#FFFFFF" font-family="'Verdana'" font-size="12.5" lengthAdjust="spacing" textLength="110.4431" x="587.4896" y="314.9895">Check OTP expiry</text></g><!--entity VAC3--><g class="entity" data-entity="VAC3" data-source-line="28" data-uid="ent0020" id="entity_VAC3"><rect fill="url(#g1fh9vnkzqrvko1)" height="56.2174" rx="4.1667" ry="4.1667" style="stroke:#EC7211;stroke-width:1.0417;" width="182.6742" x="556.5833" y="396.0638"/><rect fill="url(#g1fh9vnkzqrvko1)" height="10.4167" style="stroke:#EC7211;stroke-width:1.0417;" width="15.625" x="718.4242" y="401.2721"/><rect fill="url(#g1fh9vnkzqrvko1)" height="2.0833" style="stroke:#EC7211;stroke-width:1.0417;" width="4.1667" x="716.3408" y="403.3555"/><rect fill="url(#g1fh9vnkzqrvko1)" height="2.0833" style="stroke:#EC7211;stroke-width:1.0417;" width="4.1667" x="716.3408" y="407.5221"/><text fill="#FFFFFF" font-family="'Verdana'" font-size="12.5" lengthAdjust="spacing" textLength="130.5908" x="577.4167" y="433.7083">Compare OTP values</text></g><!--entity VAC4--><g class="entity" data-entity="VAC4" data-source-line="29" data-uid="ent0021" id="entity_VAC4"><rect fill="url(#g1fh9vnkzqrvko1)" height="56.2174" rx="4.1667" ry="4.1667" style="stroke:#EC7211;stroke-width:1.0417;" width="170.9737" x="562.4271" y="537.6992"/><rect fill="url(#g1fh9vnkzqrvko1)" height="10.4167" style="stroke:#EC7211;stroke-width:1.0417;" width="15.625" x="712.5675" y="542.9076"/><rect fill="url(#g1fh9vnkzqrvko1)" height="2.0833" style="stroke:#EC7211;stroke-width:1.0417;" width="4.1667" x="710.4841" y="544.9909"/><rect fill="url(#g1fh9vnkzqrvko1)" height="2.0833" style="stroke:#EC7211;stroke-width:1.0417;" width="4.1667" x="710.4841" y="549.1576"/><text fill="#FFFFFF" font-family="'Verdana'" font-size="12.5" lengthAdjust="spacing" textLength="118.8904" x="583.2604" y="575.3437">Update user status</text></g><!--entity PC1--><g class="entity" data-entity="PC1" data-source-line="33" data-uid="ent0023" id="entity_PC1"><rect fill="url(#g1fh9vnkzqrvko1)" height="56.2174" rx="4.1667" ry="4.1667" style="stroke:#EC7211;stroke-width:1.0417;" width="212.3678" x="1068.8125" y="158.6263"/><rect fill="url(#g1fh9vnkzqrvko1)" height="10.4167" style="stroke:#EC7211;stroke-width:1.0417;" width="15.625" x="1260.3469" y="163.8346"/><rect fill="url(#g1fh9vnkzqrvko1)" height="2.0833" style="stroke:#EC7211;stroke-width:1.0417;" width="4.1667" x="1258.2636" y="165.918"/><rect fill="url(#g1fh9vnkzqrvko1)" height="2.0833" style="stroke:#EC7211;stroke-width:1.0417;" width="4.1667" x="1258.2636" y="170.0846"/><text fill="#FFFFFF" font-family="'Verdana'" font-size="12.5" lengthAdjust="spacing" textLength="160.2844" x="1089.6458" y="196.2708">Update custom attributes</text></g><!--entity PC2--><g class="entity" data-entity="PC2" data-source-line="34" data-uid="ent0024" id="entity_PC2"><rect fill="url(#g1fh9vnkzqrvko1)" height="56.2174" rx="4.1667" ry="4.1667" style="stroke:#EC7211;stroke-width:1.0417;" width="180.5868" x="1084.7083" y="277.3451"/><rect fill="url(#g1fh9vnkzqrvko1)" height="10.4167" style="stroke:#EC7211;stroke-width:1.0417;" width="15.625" x="1244.4618" y="282.5534"/><rect fill="url(#g1fh9vnkzqrvko1)" height="2.0833" style="stroke:#EC7211;stroke-width:1.0417;" width="4.1667" x="1242.3784" y="284.6367"/><rect fill="url(#g1fh9vnkzqrvko1)" height="2.0833" style="stroke:#EC7211;stroke-width:1.0417;" width="4.1667" x="1242.3784" y="288.8034"/><text fill="#FFFFFF" font-family="'Verdana'" font-size="12.5" lengthAdjust="spacing" textLength="128.5034" x="1105.5417" y="314.9895">Set verification flags</text></g><!--entity PC3--><g class="entity" data-entity="PC3" data-source-line="35" data-uid="ent0025" id="entity_PC3"><rect fill="url(#g1fh9vnkzqrvko1)" height="56.2174" rx="4.1667" ry="4.1667" style="stroke:#EC7211;stroke-width:1.0417;" width="151.2594" x="1099.375" y="396.0638"/><rect fill="url(#g1fh9vnkzqrvko1)" height="10.4167" style="stroke:#EC7211;stroke-width:1.0417;" width="15.625" x="1229.801" y="401.2721"/><rect fill="url(#g1fh9vnkzqrvko1)" height="2.0833" style="stroke:#EC7211;stroke-width:1.0417;" width="4.1667" x="1227.7177" y="403.3555"/><rect fill="url(#g1fh9vnkzqrvko1)" height="2.0833" style="stroke:#EC7211;stroke-width:1.0417;" width="4.1667" x="1227.7177" y="407.5221"/><text fill="#FFFFFF" font-family="'Verdana'" font-size="12.5" lengthAdjust="spacing" textLength="99.176" x="1120.2083" y="433.7083">Complete setup</text></g><!--entity CognitoClient--><g class="entity" data-entity="CognitoClient" data-source-line="40" data-uid="ent0027" id="entity_CognitoClient"><rect fill="url(#g1fh9vnkzqrvko1)" height="56.2174" rx="4.1667" ry="4.1667" style="stroke:#EC7211;stroke-width:1.0417;" width="173.3175" x="1790.4271" y="537.6992"/><rect fill="url(#g1fh9vnkzqrvko1)" height="10.4167" style="stroke:#EC7211;stroke-width:1.0417;" width="15.625" x="1942.9112" y="542.9076"/><rect fill="url(#g1fh9vnkzqrvko1)" height="2.0833" style="stroke:#EC7211;stroke-width:1.0417;" width="4.1667" x="1940.8279" y="544.9909"/><rect fill="url(#g1fh9vnkzqrvko1)" height="2.0833" style="stroke:#EC7211;stroke-width:1.0417;" width="4.1667" x="1940.8279" y="549.1576"/><text fill="#FFFFFF" font-family="'Verdana'" font-size="12.5" lengthAdjust="spacing" textLength="121.2341" x="1811.2604" y="575.3437">AWS Cognito Client</text></g><!--entity SendZenAPI--><g class="entity" data-entity="SendZenAPI" data-source-line="41" data-uid="ent0028" id="entity_SendZenAPI"><rect fill="url(#g1fh9vnkzqrvko1)" height="56.2174" rx="4.1667" ry="4.1667" style="stroke:#EC7211;stroke-width:1.0417;" width="199.2391" x="1554.5521" y="537.6992"/><rect fill="url(#g1fh9vnkzqrvko1)" height="10.4167" style="stroke:#EC7211;stroke-width:1.0417;" width="15.625" x="1732.9578" y="542.9076"/><rect fill="url(#g1fh9vnkzqrvko1)" height="2.0833" style="stroke:#EC7211;stroke-width:1.0417;" width="4.1667" x="1730.8745" y="544.9909"/><rect fill="url(#g1fh9vnkzqrvko1)" height="2.0833" style="stroke:#EC7211;stroke-width:1.0417;" width="4.1667" x="1730.8745" y="549.1576"/><text fill="#FFFFFF" font-family="'Verdana'" font-size="12.5" lengthAdjust="spacing" textLength="147.1558" x="1575.3854" y="575.3437">SendZen WhatsApp API</text></g><!--entity Utils--><g class="entity" data-entity="Utils" data-source-line="42" data-uid="ent0029" id="entity_Utils"><rect fill="url(#g1fh9vnkzqrvko1)" height="56.2174" rx="4.1667" ry="4.1667" style="stroke:#EC7211;stroke-width:1.0417;" width="153.1881" x="1365.0729" y="537.6992"/><rect fill="url(#g1fh9vnkzqrvko1)" height="10.4167" style="stroke:#EC7211;stroke-width:1.0417;" width="15.625" x="1497.4277" y="542.9076"/><rect fill="url(#g1fh9vnkzqrvko1)" height="2.0833" style="stroke:#EC7211;stroke-width:1.0417;" width="4.1667" x="1495.3443" y="544.9909"/><rect fill="url(#g1fh9vnkzqrvko1)" height="2.0833" style="stroke:#EC7211;stroke-width:1.0417;" width="4.1667" x="1495.3443" y="549.1576"/><text fill="#FFFFFF" font-family="'Verdana'" font-size="12.5" lengthAdjust="spacing" textLength="101.1047" x="1385.9063" y="575.3437">Utility Functions</text></g><!--link PS1 to PS2--><g class="link" data-entity-1="PS1" data-entity-2="PS2" data-source-line="45" data-uid="lnk30" id="link_PS1_PS2"><path d="M151.0417,215.1263 C151.0417,233.7096 151.0417,251.9596 151.0417,270.5846" fill="none" id="PS1-to-PS2" style="stroke:#EC7211;stroke-width:3.125;"/><polygon fill="#EC7211" points="151.0417,276.8346,155.2083,267.4596,151.0417,271.6263,146.875,267.4596,151.0417,276.8346" style="stroke:#EC7211;stroke-width:3.125;"/></g><!--link PS2 to PS3--><g class="link" data-entity-1="PS2" data-entity-2="PS3" data-source-line="46" data-uid="lnk31" id="link_PS2_PS3"><path d="M151.0417,333.8451 C151.0417,352.4284 151.0417,370.668 151.0417,389.3034" fill="none" id="PS2-to-PS3" style="stroke:#EC7211;stroke-width:3.125;"/><polygon fill="#EC7211" points="151.0417,395.5534,155.2083,386.1784,151.0417,390.3451,146.875,386.1784,151.0417,395.5534" style="stroke:#EC7211;stroke-width:3.125;"/></g><!--link DAC1 to DAC2--><g class="link" data-entity-1="DAC1" data-entity-2="DAC2" data-source-line="48" data-uid="lnk32" id="link_DAC1_DAC2"><path d="M405.2083,215.1263 C405.2083,233.7096 405.2083,251.9596 405.2083,270.5846" fill="none" id="DAC1-to-DAC2" style="stroke:#EC7211;stroke-width:3.125;"/><polygon fill="#EC7211" points="405.2083,276.8346,409.375,267.4596,405.2083,271.6263,401.0417,267.4596,405.2083,276.8346" style="stroke:#EC7211;stroke-width:3.125;"/></g><!--link DAC2 to DAC3--><g class="link" data-entity-1="DAC2" data-entity-2="DAC3" data-source-line="49" data-uid="lnk33" id="link_DAC2_DAC3"><path d="M405.2083,333.8451 C405.2083,352.4284 405.2083,370.668 405.2083,389.3034" fill="none" id="DAC2-to-DAC3" style="stroke:#EC7211;stroke-width:3.125;"/><polygon fill="#EC7211" points="405.2083,395.5534,409.375,386.1784,405.2083,390.3451,401.0417,386.1784,405.2083,395.5534" style="stroke:#EC7211;stroke-width:3.125;"/></g><!--link DAC3 to DAC4--><g class="link" data-entity-1="DAC3" data-entity-2="DAC4" data-source-line="50" data-uid="lnk34" id="link_DAC3_DAC4"><path d="M405.2083,452.7826 C405.2083,477.2513 405.2083,506.5534 405.2083,531.0013" fill="none" id="DAC3-to-DAC4" style="stroke:#EC7211;stroke-width:3.125;"/><polygon fill="#EC7211" points="405.2083,537.2513,409.375,527.8763,405.2083,532.043,401.0417,527.8763,405.2083,537.2513" style="stroke:#EC7211;stroke-width:3.125;"/></g><!--link CAC1 to CAC2--><g class="link" data-entity-1="CAC1" data-entity-2="CAC2" data-source-line="52" data-uid="lnk35" id="link_CAC1_CAC2"><path d="M904.1667,215.1263 C904.1667,233.7096 904.1667,251.9596 904.1667,270.5846" fill="none" id="CAC1-to-CAC2" style="stroke:#EC7211;stroke-width:3.125;"/><polygon fill="#EC7211" points="904.1667,276.8346,908.3333,267.4596,904.1667,271.6263,900,267.4596,904.1667,276.8346" style="stroke:#EC7211;stroke-width:3.125;"/></g><!--link CAC2 to CAC3--><g class="link" data-entity-1="CAC2" data-entity-2="CAC3" data-source-line="53" data-uid="lnk36" id="link_CAC2_CAC3"><path d="M904.1667,333.8451 C904.1667,352.4284 904.1667,370.668 904.1667,389.3034" fill="none" id="CAC2-to-CAC3" style="stroke:#EC7211;stroke-width:3.125;"/><polygon fill="#EC7211" points="904.1667,395.5534,908.3333,386.1784,904.1667,390.3451,900,386.1784,904.1667,395.5534" style="stroke:#EC7211;stroke-width:3.125;"/></g><!--link CAC3 to CAC4--><g class="link" data-entity-1="CAC3" data-entity-2="CAC4" data-source-line="54" data-uid="lnk37" id="link_CAC3_CAC4"><path d="M904.1667,452.7826 C904.1667,477.2513 904.1667,506.5534 904.1667,531.0013" fill="none" id="CAC3-to-CAC4" style="stroke:#EC7211;stroke-width:3.125;"/><polygon fill="#EC7211" points="904.1667,537.2513,908.3333,527.8763,904.1667,532.043,900,527.8763,904.1667,537.2513" style="stroke:#EC7211;stroke-width:3.125;"/></g><!--link VAC1 to VAC2--><g class="link" data-entity-1="VAC1" data-entity-2="VAC2" data-source-line="56" data-uid="lnk38" id="link_VAC1_VAC2"><path d="M647.9167,215.1263 C647.9167,233.7096 647.9167,251.9596 647.9167,270.5846" fill="none" id="VAC1-to-VAC2" style="stroke:#EC7211;stroke-width:3.125;"/><polygon fill="#EC7211" points="647.9167,276.8346,652.0833,267.4596,647.9167,271.6263,643.75,267.4596,647.9167,276.8346" style="stroke:#EC7211;stroke-width:3.125;"/></g><!--link VAC2 to VAC3--><g class="link" data-entity-1="VAC2" data-entity-2="VAC3" data-source-line="57" data-uid="lnk39" id="link_VAC2_VAC3"><path d="M647.9167,333.8451 C647.9167,352.4284 647.9167,370.668 647.9167,389.3034" fill="none" id="VAC2-to-VAC3" style="stroke:#EC7211;stroke-width:3.125;"/><polygon fill="#EC7211" points="647.9167,395.5534,652.0833,386.1784,647.9167,390.3451,643.75,386.1784,647.9167,395.5534" style="stroke:#EC7211;stroke-width:3.125;"/></g><!--link VAC3 to VAC4--><g class="link" data-entity-1="VAC3" data-entity-2="VAC4" data-source-line="58" data-uid="lnk40" id="link_VAC3_VAC4"><path d="M647.9167,452.7826 C647.9167,477.2513 647.9167,506.5534 647.9167,531.0013" fill="none" id="VAC3-to-VAC4" style="stroke:#EC7211;stroke-width:3.125;"/><polygon fill="#EC7211" points="647.9167,537.2513,652.0833,527.8763,647.9167,532.043,643.75,527.8763,647.9167,537.2513" style="stroke:#EC7211;stroke-width:3.125;"/></g><!--link PC1 to PC2--><g class="link" data-entity-1="PC1" data-entity-2="PC2" data-source-line="60" data-uid="lnk41" id="link_PC1_PC2"><path d="M1175,215.1263 C1175,233.7096 1175,251.9596 1175,270.5846" fill="none" id="PC1-to-PC2" style="stroke:#EC7211;stroke-width:3.125;"/><polygon fill="#EC7211" points="1175,276.8346,1179.1667,267.4596,1175,271.6263,1170.8333,267.4596,1175,276.8346" style="stroke:#EC7211;stroke-width:3.125;"/></g><!--link PC2 to PC3--><g class="link" data-entity-1="PC2" data-entity-2="PC3" data-source-line="61" data-uid="lnk42" id="link_PC2_PC3"><path d="M1175,333.8451 C1175,352.4284 1175,370.668 1175,389.3034" fill="none" id="PC2-to-PC3" style="stroke:#EC7211;stroke-width:3.125;"/><polygon fill="#EC7211" points="1175,395.5534,1179.1667,386.1784,1175,390.3451,1170.8333,386.1784,1175,395.5534" style="stroke:#EC7211;stroke-width:3.125;"/></g><!--link DAC1 to CognitoClient--><g class="link" data-entity-1="DAC1" data-entity-2="CognitoClient" data-source-line="63" data-uid="lnk43" id="link_DAC1_CognitoClient"><path d="M497.8542,207.9076 C511.7917,210.5117 526.0313,212.9284 539.5833,214.8451 C874.4271,262.2096 970.9063,191.1576 1297.9167,277.3451 C1502.6042,331.3034 1528.9583,411.6367 1730.2083,477.2826 C1748.1667,483.1367 1754.6354,477.8971 1771.875,485.6159 C1800.2396,498.3242 1823.4585,515.7555 1843.396,533.1617" fill="none" id="DAC1-to-CognitoClient" style="stroke:#EC7211;stroke-width:3.125;"/><polygon fill="#EC7211" points="1848.1042,537.2721,1843.7822,527.9677,1844.1807,533.8468,1838.3016,534.2453,1848.1042,537.2721" style="stroke:#EC7211;stroke-width:3.125;"/></g><!--link CAC2 to SendZenAPI--><g class="link" data-entity-1="CAC2" data-entity-2="SendZenAPI" data-source-line="64" data-uid="lnk44" id="link_CAC2_SendZenAPI"><path d="M1010.0417,326.5326 C1089.8958,342.6055 1201.7292,367.2096 1297.9167,396.0638 C1406.3854,428.5951 1435.7813,433.7721 1536.4583,485.6159 C1565.3542,500.5013 1590.6923,517.4024 1613.3485,533.8503" fill="none" id="CAC2-to-SendZenAPI" style="stroke:#EC7211;stroke-width:3.125;"/><polygon fill="#EC7211" points="1618.4063,537.5221,1613.2675,528.6426,1614.1915,534.4623,1608.3718,535.3863,1618.4063,537.5221" style="stroke:#EC7211;stroke-width:3.125;"/></g><!--link VAC3 to Utils--><g class="link" data-entity-1="VAC3" data-entity-2="Utils" data-source-line="65" data-uid="lnk45" id="link_VAC3_Utils"><path d="M705.6875,452.6992 C728.6667,462.3138 755.6979,472.0221 781.25,477.2826 C834.7917,488.3138 972.7604,479.543 1027.0833,485.6159 C1145.9688,498.8971 1275.73,526.0362 1358.5633,544.9633" fill="none" id="VAC3-to-Utils" style="stroke:#EC7211;stroke-width:3.125;"/><polygon fill="#EC7211" points="1364.6563,546.3555,1356.4449,540.2052,1359.5788,545.1953,1354.5887,548.3291,1364.6563,546.3555" style="stroke:#EC7211;stroke-width:3.125;"/></g><!--link PC1 to CognitoClient--><g class="link" data-entity-1="PC1" data-entity-2="CognitoClient" data-source-line="66" data-uid="lnk46" id="link_PC1_CognitoClient"><path d="M1281.3854,195.043 C1367,204.5742 1488.1354,226.5742 1582.2917,277.3451 C1706.8542,344.5326 1811.3732,474.7008 1854.019,532.5133" fill="none" id="PC1-to-CognitoClient" style="stroke:#EC7211;stroke-width:3.125;"/><polygon fill="#EC7211" points="1857.7292,537.543,1855.517,527.5251,1854.6374,533.3516,1848.8108,532.4719,1857.7292,537.543" style="stroke:#EC7211;stroke-width:3.125;"/></g><!--SRC=[RPD1Qzmm48Nl_XNJtFVGRCu5eqtJGg66RHnew46h7TiYicIaSHfJyjyhoPBNMNpmij9y7ZtFU_f47VO8_A_R6SjrYmL9KWW_U7ywS_WwQa7IQ2Yjw2IXeD5YKGnSlF0MuUOASpVmhm1OofN5esprup3l0ppNNCap9uIXCnf1Z_q9xH_W3ghZvnav8W4VoUo4qOsqFJHSEKpCxSpSQtxoAh7dKi4hMjb8mOE2XEqzzkwVjPW3Db9ZELB7EguK-ezTP1sGqFQ-3499r0JMgFd8GycIBjQXU87HeGL7d4QNwxSNtI9t1fg6fS5-1hvnVVQYBPATG9bMYWpSRSXb5lsSjkK-e4ORfkXGU4FWvwygjcABs2FgCpnrd5mv3D2ZSxvfPh9WClExgOsQCl1HC5fhhCkrBQrrS63Qrheu7WvgZEqvnLRrrM136Ty6QQTSJZAPwGUUXBvoDQBBG9BvECJ-ryxKsrehuuZDoOg9MOIcDc9qP7hWH5QUHagdLMoLpdNWe56ypSnAiS9e3ur3gisHV5zTdlit7phD5Hnmy7QX5XBJ3Nekdux0JAib6M0nalFyvwrvfqW-_qPziRgilaSo5VmoO8yabQJfSb4Z4tPTaEJl7knsN-Bzya_wlo-AaFwuYZ4FFtcr3wjzNjqL1Sje31ZBQ4mJosZCJr5dD9fSPpGwMcSqsbTKYGophH8NPdbHzd4aoxchxrzQpjzRRRtu7m00]--></g></svg>