<svg xmlns="http://www.w3.org/2000/svg" xmlns:xlink="http://www.w3.org/1999/xlink" contentStyleType="text/css" data-diagram-type="DESCRIPTION" height="803.125px" preserveAspectRatio="none" style="width:845px;height:803px;" version="1.1" viewBox="0 0 845 803" width="845.8333px" zoomAndPan="magnify"><title>Frontend Component Interactions</title><defs><linearGradient id="gaeyer48aylip0" x1="50%" x2="50%" y1="0%" y2="100%"><stop offset="0%" stop-color="#FFFFFF"/><stop offset="100%" stop-color="#EEEEEE"/></linearGradient><linearGradient id="gaeyer48aylip1" x1="50%" x2="50%" y1="0%" y2="100%"><stop offset="0%" stop-color="#F18E3E"/><stop offset="100%" stop-color="#EC7211"/></linearGradient></defs><g><g class="title" data-source-line="2"><rect fill="url(#gaeyer48aylip0)" height="45.0846" rx="4.1667" ry="4.1667" style="stroke:#EEEEEE;stroke-width:1.0417;" width="419.1081" x="206.071" y="5.2083"/><text fill="#EC7211" font-family="'Verdana'" font-size="20.8333" font-weight="bold" lengthAdjust="spacing" textLength="398.2747" x="216.4876" y="34.963">Frontend Component Interactions</text></g><!--cluster Frontend Components--><g class="cluster" data-entity="Frontend Components" data-source-line="4" data-uid="ent0002" id="cluster_Frontend Components"><path d="M10.4167,62.793 L175.6042,62.793 A6.25,6.25 0 0 1 179.7709,66.9596 L187.0626,94.0104 L834.375,94.0104 A4.1667,4.1667 0 0 1 838.5417,98.1771 L838.5417,293.9701 A4.1667,4.1667 0 0 1 834.375,298.1367 L10.4167,298.1367 A4.1667,4.1667 0 0 1 6.25,293.9701 L6.25,66.9596 A4.1667,4.1667 0 0 1 10.4167,62.793" fill="none" style="stroke:#4E5D6C;stroke-width:2.0833;"/><line style="stroke:#4E5D6C;stroke-width:2.0833;" x1="6.25" x2="187.0626" y1="94.0104" y2="94.0104"/><text fill="#4E5D6C" font-family="'Verdana'" font-size="12.5" font-weight="bold" lengthAdjust="spacing" textLength="156.8542" x="15.625" y="81.6874">Frontend Components</text></g><!--cluster Authentication Logic--><g class="cluster" data-entity="Authentication Logic" data-source-line="13" data-uid="ent0009" id="cluster_Authentication Logic"><path d="M71.875,323.1367 L226.4303,323.1367 A6.25,6.25 0 0 1 230.5969,327.3034 L237.8886,354.3542 L420.8333,354.3542 A4.1667,4.1667 0 0 1 425,358.5208 L425,554.3242 A4.1667,4.1667 0 0 1 420.8333,558.4909 L71.875,558.4909 A4.1667,4.1667 0 0 1 67.7083,554.3242 L67.7083,327.3034 A4.1667,4.1667 0 0 1 71.875,323.1367" fill="none" style="stroke:#4E5D6C;stroke-width:2.0833;"/><line style="stroke:#4E5D6C;stroke-width:2.0833;" x1="67.7083" x2="237.8886" y1="354.3542" y2="354.3542"/><text fill="#4E5D6C" font-family="'Verdana'" font-size="12.5" font-weight="bold" lengthAdjust="spacing" textLength="146.2219" x="77.0833" y="342.0312">Authentication Logic</text></g><!--cluster AWS Services--><g class="cluster" data-entity="AWS Services" data-source-line="19" data-uid="ent0013" id="cluster_AWS Services"><path d="M454.1667,441.8555 L558.7219,441.8555 A6.25,6.25 0 0 1 562.8886,446.0221 L570.1803,473.0729 L645.8333,473.0729 A4.1667,4.1667 0 0 1 650,477.2396 L650,791.7617 A4.1667,4.1667 0 0 1 645.8333,795.9284 L454.1667,795.9284 A4.1667,4.1667 0 0 1 450,791.7617 L450,446.0221 A4.1667,4.1667 0 0 1 454.1667,441.8555" fill="none" style="stroke:#4E5D6C;stroke-width:2.0833;"/><line style="stroke:#4E5D6C;stroke-width:2.0833;" x1="450" x2="570.1803" y1="473.0729" y2="473.0729"/><text fill="#4E5D6C" font-family="'Verdana'" font-size="12.5" font-weight="bold" lengthAdjust="spacing" textLength="96.2219" x="459.375" y="460.7499">AWS Services</text></g><!--entity App--><g class="entity" data-entity="App" data-source-line="5" data-uid="ent0003" id="entity_App"><rect fill="url(#gaeyer48aylip1)" height="56.2174" rx="4.1667" ry="4.1667" style="stroke:#EC7211;stroke-width:1.0417;" width="97.8597" x="372.9479" y="106.543"/><rect fill="url(#gaeyer48aylip1)" height="10.4167" style="stroke:#EC7211;stroke-width:1.0417;" width="15.625" x="449.9743" y="111.7513"/><rect fill="url(#gaeyer48aylip1)" height="2.0833" style="stroke:#EC7211;stroke-width:1.0417;" width="4.1667" x="447.891" y="113.8346"/><rect fill="url(#gaeyer48aylip1)" height="2.0833" style="stroke:#EC7211;stroke-width:1.0417;" width="4.1667" x="447.891" y="118.0013"/><text fill="#FFFFFF" font-family="'Verdana'" font-size="12.5" lengthAdjust="spacing" textLength="45.7764" x="393.7813" y="144.1874">App.jsx</text></g><!--entity SignupForm--><g class="entity" data-entity="SignupForm" data-source-line="6" data-uid="ent0004" id="entity_SignupForm"><rect fill="url(#gaeyer48aylip1)" height="56.2174" rx="4.1667" ry="4.1667" style="stroke:#EC7211;stroke-width:1.0417;" width="131.3314" x="192.6667" y="225.2617"/><rect fill="url(#gaeyer48aylip1)" height="10.4167" style="stroke:#EC7211;stroke-width:1.0417;" width="15.625" x="303.1647" y="230.4701"/><rect fill="url(#gaeyer48aylip1)" height="2.0833" style="stroke:#EC7211;stroke-width:1.0417;" width="4.1667" x="301.0814" y="232.5534"/><rect fill="url(#gaeyer48aylip1)" height="2.0833" style="stroke:#EC7211;stroke-width:1.0417;" width="4.1667" x="301.0814" y="236.7201"/><text fill="#FFFFFF" font-family="'Verdana'" font-size="12.5" lengthAdjust="spacing" textLength="79.248" x="213.5" y="262.9062">Signup Form</text></g><!--entity LoginForm--><g class="entity" data-entity="LoginForm" data-source-line="7" data-uid="ent0005" id="entity_LoginForm"><rect fill="url(#gaeyer48aylip1)" height="56.2174" rx="4.1667" ry="4.1667" style="stroke:#EC7211;stroke-width:1.0417;" width="122.1517" x="360.8021" y="225.2617"/><rect fill="url(#gaeyer48aylip1)" height="10.4167" style="stroke:#EC7211;stroke-width:1.0417;" width="15.625" x="462.1204" y="230.4701"/><rect fill="url(#gaeyer48aylip1)" height="2.0833" style="stroke:#EC7211;stroke-width:1.0417;" width="4.1667" x="460.0371" y="232.5534"/><rect fill="url(#gaeyer48aylip1)" height="2.0833" style="stroke:#EC7211;stroke-width:1.0417;" width="4.1667" x="460.0371" y="236.7201"/><text fill="#FFFFFF" font-family="'Verdana'" font-size="12.5" lengthAdjust="spacing" textLength="70.0684" x="381.6354" y="262.9062">Login Form</text></g><!--entity OTPForm--><g class="entity" data-entity="OTPForm" data-source-line="8" data-uid="ent0006" id="entity_OTPForm"><rect fill="url(#gaeyer48aylip1)" height="56.2174" rx="4.1667" ry="4.1667" style="stroke:#EC7211;stroke-width:1.0417;" width="113.2222" x="519.4271" y="225.2617"/><rect fill="url(#gaeyer48aylip1)" height="10.4167" style="stroke:#EC7211;stroke-width:1.0417;" width="15.625" x="611.816" y="230.4701"/><rect fill="url(#gaeyer48aylip1)" height="2.0833" style="stroke:#EC7211;stroke-width:1.0417;" width="4.1667" x="609.7327" y="232.5534"/><rect fill="url(#gaeyer48aylip1)" height="2.0833" style="stroke:#EC7211;stroke-width:1.0417;" width="4.1667" x="609.7327" y="236.7201"/><text fill="#FFFFFF" font-family="'Verdana'" font-size="12.5" lengthAdjust="spacing" textLength="61.1389" x="540.2604" y="262.9062">OTP Form</text></g><!--entity ErrorDisplay--><g class="entity" data-entity="ErrorDisplay" data-source-line="9" data-uid="ent0007" id="entity_ErrorDisplay"><rect fill="url(#gaeyer48aylip1)" height="56.2174" rx="4.1667" ry="4.1667" style="stroke:#EC7211;stroke-width:1.0417;" width="133.0953" x="23.0313" y="225.2617"/><rect fill="url(#gaeyer48aylip1)" height="10.4167" style="stroke:#EC7211;stroke-width:1.0417;" width="15.625" x="135.2932" y="230.4701"/><rect fill="url(#gaeyer48aylip1)" height="2.0833" style="stroke:#EC7211;stroke-width:1.0417;" width="4.1667" x="133.2099" y="232.5534"/><rect fill="url(#gaeyer48aylip1)" height="2.0833" style="stroke:#EC7211;stroke-width:1.0417;" width="4.1667" x="133.2099" y="236.7201"/><text fill="#FFFFFF" font-family="'Verdana'" font-size="12.5" lengthAdjust="spacing" textLength="81.012" x="43.8646" y="262.9062">Error Display</text></g><!--entity SuccessDisplay--><g class="entity" data-entity="SuccessDisplay" data-source-line="10" data-uid="ent0008" id="entity_SuccessDisplay"><rect fill="url(#gaeyer48aylip1)" height="56.2174" rx="4.1667" ry="4.1667" style="stroke:#EC7211;stroke-width:1.0417;" width="152.4495" x="669.6042" y="225.2617"/><rect fill="url(#gaeyer48aylip1)" height="10.4167" style="stroke:#EC7211;stroke-width:1.0417;" width="15.625" x="801.2204" y="230.4701"/><rect fill="url(#gaeyer48aylip1)" height="2.0833" style="stroke:#EC7211;stroke-width:1.0417;" width="4.1667" x="799.137" y="232.5534"/><rect fill="url(#gaeyer48aylip1)" height="2.0833" style="stroke:#EC7211;stroke-width:1.0417;" width="4.1667" x="799.137" y="236.7201"/><text fill="#FFFFFF" font-family="'Verdana'" font-size="12.5" lengthAdjust="spacing" textLength="100.3662" x="690.4375" y="262.9062">Success Display</text></g><!--entity CognitoAuth--><g class="entity" data-entity="CognitoAuth" data-source-line="14" data-uid="ent0010" id="entity_CognitoAuth"><rect fill="url(#gaeyer48aylip1)" height="56.2174" rx="4.1667" ry="4.1667" style="stroke:#EC7211;stroke-width:1.0417;" width="189.6261" x="218.7292" y="366.8867"/><rect fill="url(#gaeyer48aylip1)" height="10.4167" style="stroke:#EC7211;stroke-width:1.0417;" width="15.625" x="387.5219" y="372.0951"/><rect fill="url(#gaeyer48aylip1)" height="2.0833" style="stroke:#EC7211;stroke-width:1.0417;" width="4.1667" x="385.4386" y="374.1784"/><rect fill="url(#gaeyer48aylip1)" height="2.0833" style="stroke:#EC7211;stroke-width:1.0417;" width="4.1667" x="385.4386" y="378.3451"/><text fill="#FFFFFF" font-family="'Verdana'" font-size="12.5" lengthAdjust="spacing" textLength="137.5427" x="239.5625" y="404.5312">cognitoCustomAuth.js</text></g><!--entity ErrorHandler--><g class="entity" data-entity="ErrorHandler" data-source-line="15" data-uid="ent0011" id="entity_ErrorHandler"><rect fill="url(#gaeyer48aylip1)" height="56.2174" rx="4.1667" ry="4.1667" style="stroke:#EC7211;stroke-width:1.0417;" width="136.2386" x="83.9688" y="485.6055"/><rect fill="url(#gaeyer48aylip1)" height="10.4167" style="stroke:#EC7211;stroke-width:1.0417;" width="15.625" x="199.374" y="490.8138"/><rect fill="url(#gaeyer48aylip1)" height="2.0833" style="stroke:#EC7211;stroke-width:1.0417;" width="4.1667" x="197.2907" y="492.8971"/><rect fill="url(#gaeyer48aylip1)" height="2.0833" style="stroke:#EC7211;stroke-width:1.0417;" width="4.1667" x="197.2907" y="497.0638"/><text fill="#FFFFFF" font-family="'Verdana'" font-size="12.5" lengthAdjust="spacing" textLength="84.1553" x="104.8021" y="523.2499">Error Handler</text></g><!--entity Validation--><g class="entity" data-entity="Validation" data-source-line="16" data-uid="ent0012" id="entity_Validation"><rect fill="url(#gaeyer48aylip1)" height="56.2174" rx="4.1667" ry="4.1667" style="stroke:#EC7211;stroke-width:1.0417;" width="151.119" x="256.7292" y="485.6055"/><rect fill="url(#gaeyer48aylip1)" height="10.4167" style="stroke:#EC7211;stroke-width:1.0417;" width="15.625" x="387.0148" y="490.8138"/><rect fill="url(#gaeyer48aylip1)" height="2.0833" style="stroke:#EC7211;stroke-width:1.0417;" width="4.1667" x="384.9315" y="492.8971"/><rect fill="url(#gaeyer48aylip1)" height="2.0833" style="stroke:#EC7211;stroke-width:1.0417;" width="4.1667" x="384.9315" y="497.0638"/><text fill="#FFFFFF" font-family="'Verdana'" font-size="12.5" lengthAdjust="spacing" textLength="99.0356" x="277.5625" y="523.2499">Input Validation</text></g><!--entity Cognito--><g class="entity" data-entity="Cognito" data-source-line="20" data-uid="ent0014" id="entity_Cognito"><rect fill="url(#gaeyer48aylip1)" height="56.2174" rx="4.1667" ry="4.1667" style="stroke:#EC7211;stroke-width:1.0417;" width="133.1563" x="475.0833" y="485.6055"/><rect fill="url(#gaeyer48aylip1)" height="10.4167" style="stroke:#EC7211;stroke-width:1.0417;" width="15.625" x="587.4063" y="490.8138"/><rect fill="url(#gaeyer48aylip1)" height="2.0833" style="stroke:#EC7211;stroke-width:1.0417;" width="4.1667" x="585.323" y="492.8971"/><rect fill="url(#gaeyer48aylip1)" height="2.0833" style="stroke:#EC7211;stroke-width:1.0417;" width="4.1667" x="585.323" y="497.0638"/><text fill="#FFFFFF" font-family="'Verdana'" font-size="12.5" lengthAdjust="spacing" textLength="81.073" x="495.9167" y="523.2499">AWS Cognito</text></g><!--entity Lambda--><g class="entity" data-entity="Lambda" data-source-line="21" data-uid="ent0015" id="entity_Lambda"><rect fill="url(#gaeyer48aylip1)" height="56.2174" rx="4.1667" ry="4.1667" style="stroke:#EC7211;stroke-width:1.0417;" width="166.7501" x="466.625" y="604.3242"/><rect fill="url(#gaeyer48aylip1)" height="10.4167" style="stroke:#EC7211;stroke-width:1.0417;" width="15.625" x="612.5417" y="609.5326"/><rect fill="url(#gaeyer48aylip1)" height="2.0833" style="stroke:#EC7211;stroke-width:1.0417;" width="4.1667" x="610.4584" y="611.6159"/><rect fill="url(#gaeyer48aylip1)" height="2.0833" style="stroke:#EC7211;stroke-width:1.0417;" width="4.1667" x="610.4584" y="615.7826"/><text fill="#FFFFFF" font-family="'Verdana'" font-size="12.5" lengthAdjust="spacing" textLength="114.6667" x="487.4583" y="641.9687">Lambda Functions</text></g><!--entity SendZen--><g class="entity" data-entity="SendZen" data-source-line="22" data-uid="ent0016" id="entity_SendZen"><rect fill="url(#gaeyer48aylip1)" height="56.2174" rx="4.1667" ry="4.1667" style="stroke:#EC7211;stroke-width:1.0417;" width="131.4901" x="484.25" y="723.043"/><rect fill="url(#gaeyer48aylip1)" height="10.4167" style="stroke:#EC7211;stroke-width:1.0417;" width="15.625" x="594.9067" y="728.2513"/><rect fill="url(#gaeyer48aylip1)" height="2.0833" style="stroke:#EC7211;stroke-width:1.0417;" width="4.1667" x="592.8234" y="730.3346"/><rect fill="url(#gaeyer48aylip1)" height="2.0833" style="stroke:#EC7211;stroke-width:1.0417;" width="4.1667" x="592.8234" y="734.5013"/><text fill="#FFFFFF" font-family="'Verdana'" font-size="12.5" lengthAdjust="spacing" textLength="79.4067" x="505.0833" y="760.6874">SendZen API</text></g><!--link App to SignupForm--><g class="link" data-entity-1="App" data-entity-2="SignupForm" data-source-line="25" data-uid="lnk17" id="link_App_SignupForm"><path d="M383.5313,163.0326 C357.4792,181.6159 328.2132,202.4864 302.0882,221.1218" fill="none" id="App-to-SignupForm" style="stroke:#EC7211;stroke-width:3.125;"/><polygon fill="#EC7211" points="297,224.7513,307.0519,222.6992,301.2401,221.7267,302.2126,215.915,297,224.7513" style="stroke:#EC7211;stroke-width:3.125;"/></g><!--link App to LoginForm--><g class="link" data-entity-1="App" data-entity-2="LoginForm" data-source-line="26" data-uid="lnk18" id="link_App_LoginForm"><path d="M421.875,163.0326 C421.875,181.6159 421.875,199.8659 421.875,218.5013" fill="none" id="App-to-LoginForm" style="stroke:#EC7211;stroke-width:3.125;"/><polygon fill="#EC7211" points="421.875,224.7513,426.0417,215.3763,421.875,219.543,417.7083,215.3763,421.875,224.7513" style="stroke:#EC7211;stroke-width:3.125;"/></g><!--link App to OTPForm--><g class="link" data-entity-1="App" data-entity-2="OTPForm" data-source-line="27" data-uid="lnk19" id="link_App_OTPForm"><path d="M458.0208,163.0326 C482.5833,181.6159 509.9738,202.3453 534.6092,220.9808" fill="none" id="App-to-OTPForm" style="stroke:#EC7211;stroke-width:3.125;"/><polygon fill="#EC7211" points="539.5938,224.7513,534.6306,215.7725,535.44,221.6092,529.6033,222.4185,539.5938,224.7513" style="stroke:#EC7211;stroke-width:3.125;"/></g><!--link App to ErrorDisplay--><g class="link" data-entity-1="App" data-entity-2="ErrorDisplay" data-source-line="28" data-uid="lnk20" id="link_App_ErrorDisplay"><path d="M372.4896,153.0221 C315.1771,173.1471 226.283,204.3489 162.3872,226.7656" fill="none" id="App-to-ErrorDisplay" style="stroke:#EC7211;stroke-width:3.125;"/><polygon fill="#EC7211" points="156.4896,228.8346,166.7153,229.6628,161.4042,227.1104,163.9566,221.7993,156.4896,228.8346" style="stroke:#EC7211;stroke-width:3.125;"/></g><!--link App to SuccessDisplay--><g class="link" data-entity-1="App" data-entity-2="SuccessDisplay" data-source-line="29" data-uid="lnk21" id="link_App_SuccessDisplay"><path d="M471.0729,153.4076 C523.7396,172.3659 602.0884,200.5712 663.4113,222.6545" fill="none" id="App-to-SuccessDisplay" style="stroke:#EC7211;stroke-width:3.125;"/><polygon fill="#EC7211" points="669.2917,224.7721,661.8829,217.6755,664.3914,223.0075,659.0594,225.516,669.2917,224.7721" style="stroke:#EC7211;stroke-width:3.125;"/></g><!--link SignupForm to CognitoAuth--><g class="link" data-entity-1="SignupForm" data-entity-2="CognitoAuth" data-source-line="31" data-uid="lnk22" id="link_SignupForm_CognitoAuth"><path d="M269.2396,281.9805 C278.9167,306.4492 290.6915,336.1891 300.3581,360.6371" fill="none" id="SignupForm-to-CognitoAuth" style="stroke:#EC7211;stroke-width:3.125;"/><polygon fill="#EC7211" points="302.6563,366.4492,303.0838,356.1989,300.7412,361.6058,295.3343,359.2631,302.6563,366.4492" style="stroke:#EC7211;stroke-width:3.125;"/></g><!--link LoginForm to CognitoAuth--><g class="link" data-entity-1="LoginForm" data-entity-2="CognitoAuth" data-source-line="32" data-uid="lnk23" id="link_LoginForm_CognitoAuth"><path d="M400.4688,281.9805 C381.4792,306.4492 357.7076,337.0643 338.7284,361.5123" fill="none" id="LoginForm-to-CognitoAuth" style="stroke:#EC7211;stroke-width:3.125;"/><polygon fill="#EC7211" points="334.8958,366.4492,343.9361,361.5989,338.0897,362.3351,337.3534,356.4887,334.8958,366.4492" style="stroke:#EC7211;stroke-width:3.125;"/></g><!--link OTPForm to CognitoAuth--><g class="link" data-entity-1="OTPForm" data-entity-2="CognitoAuth" data-source-line="33" data-uid="lnk24" id="link_OTPForm_CognitoAuth"><path d="M539.0833,281.918 C527.2188,290.2513 513.8229,299.1263 501.0417,306.4701 C461.9583,328.9388 421.8588,347.8964 385.2963,363.9381" fill="none" id="OTPForm-to-CognitoAuth" style="stroke:#EC7211;stroke-width:3.125;"/><polygon fill="#EC7211" points="379.5729,366.4492,389.832,366.4981,384.3424,364.3566,386.4839,358.867,379.5729,366.4492" style="stroke:#EC7211;stroke-width:3.125;"/></g><!--link CognitoAuth to Validation--><g class="link" data-entity-1="CognitoAuth" data-entity-2="Validation" data-source-line="35" data-uid="lnk25" id="link_CognitoAuth_Validation"><path d="M317.9375,423.3867 C320.9271,441.9701 323.874,460.299 326.8636,478.924" fill="none" id="CognitoAuth-to-Validation" style="stroke:#EC7211;stroke-width:3.125;"/><polygon fill="#EC7211" points="327.8542,485.0951,330.4824,475.1782,327.0287,479.9525,322.2544,476.4989,327.8542,485.0951" style="stroke:#EC7211;stroke-width:3.125;"/></g><!--link CognitoAuth to ErrorHandler--><g class="link" data-entity-1="CognitoAuth" data-entity-2="ErrorHandler" data-source-line="36" data-uid="lnk26" id="link_CognitoAuth_ErrorHandler"><path d="M254.5,423.5638 C248.9792,426.7305 243.5833,430.0638 238.5417,433.5221 C216.5729,448.6263 198.8772,464.5918 182.5126,480.8834" fill="none" id="CognitoAuth-to-ErrorHandler" style="stroke:#EC7211;stroke-width:3.125;"/><polygon fill="#EC7211" points="178.0833,485.293,187.6669,481.6315,181.7744,481.6184,181.7876,475.7258,178.0833,485.293" style="stroke:#EC7211;stroke-width:3.125;"/></g><!--link CognitoAuth to Cognito--><g class="link" data-entity-1="CognitoAuth" data-entity-2="Cognito" data-source-line="37" data-uid="lnk27" id="link_CognitoAuth_Cognito"><path d="M402.6563,423.5534 C410.3229,426.6576 417.8646,429.9909 425,433.5221 C454.1667,447.9805 479.5022,465.0576 501.9292,481.7034" fill="none" id="CognitoAuth-to-Cognito" style="stroke:#EC7211;stroke-width:3.125;"/><polygon fill="#EC7211" points="506.9479,485.4284,501.9032,476.4952,502.7657,482.3242,496.9366,483.1867,506.9479,485.4284" style="stroke:#EC7211;stroke-width:3.125;"/></g><!--link Cognito to Lambda--><g class="link" data-entity-1="Cognito" data-entity-2="Lambda" data-source-line="39" data-uid="lnk28" id="link_Cognito_Lambda"><path d="M543.625,542.1055 C544.9479,560.6888 546.2519,578.9443 547.5852,597.5797" fill="none" id="Cognito-to-Lambda" style="stroke:#EC7211;stroke-width:3.125;"/><polygon fill="#EC7211" points="548.0313,603.8138,551.5182,594.1653,547.6596,598.6187,543.2062,594.7601,548.0313,603.8138" style="stroke:#EC7211;stroke-width:3.125;"/></g><!--link Lambda to SendZen--><g class="link" data-entity-1="Lambda" data-entity-2="SendZen" data-source-line="40" data-uid="lnk29" id="link_Lambda_SendZen"><path d="M550,660.8242 C550,679.4076 550,697.6471 550,716.2826" fill="none" id="Lambda-to-SendZen" style="stroke:#EC7211;stroke-width:3.125;"/><polygon fill="#EC7211" points="550,722.5326,554.1667,713.1576,550,717.3242,545.8333,713.1576,550,722.5326" style="stroke:#EC7211;stroke-width:3.125;"/></g><!--link ErrorHandler to ErrorDisplay--><g class="link" data-entity-1="ErrorHandler" data-entity-2="ErrorDisplay" data-source-line="42" data-uid="lnk30" id="link_ErrorHandler_ErrorDisplay"><path d="M145.4167,485.1159 C133.3646,435.3346 109.5948,337.1073 97.626,287.6385" fill="none" id="ErrorHandler-to-ErrorDisplay" style="stroke:#EC7211;stroke-width:3.125;"/><polygon fill="#EC7211" points="96.1563,281.5638,94.3111,291.6557,97.381,286.6261,102.4107,289.6961,96.1563,281.5638" style="stroke:#EC7211;stroke-width:3.125;"/></g><!--link Validation to ErrorDisplay--><g class="link" data-entity-1="Validation" data-entity-2="ErrorDisplay" data-source-line="43" data-uid="lnk31" id="link_Validation_ErrorDisplay"><path d="M306.3333,485.293 C288.6875,468.1471 264.0104,446.8659 238.5417,433.5221 C222.8229,425.293 213.9479,434.0846 200,423.1055 C156.8542,389.168 171.6875,360.0638 140.625,314.8034 C132.8542,303.4909 127.451,296.522 118.7739,286.4803" fill="none" id="Validation-to-ErrorDisplay" style="stroke:#EC7211;stroke-width:3.125;"/><polygon fill="#EC7211" points="114.6875,281.7513,117.6644,291.5691,118.0928,285.6922,123.9698,286.1206,114.6875,281.7513" style="stroke:#EC7211;stroke-width:3.125;"/></g><!--SRC=[PP7TJWCX48NlUOgnz_KHJ9fgOnCJczHeel42MRAYkmC1rfyOtrqOeB3k7UUS2JFppPb_bQC4_kdMsdBi9VFA3n9sLgENsC5MZqQZH0_xO5WklDBe63DSlFDUmcfPwLRmmm2UDiQSlxclP-0EmZjQHzNZP62dxKXsqb76z4Rt2cj8icItTuUQ157yAskrXKlbpC2_AIGd6zHp4a8wDwl9NgdwRVRPJ049UYLut9I647aXeNjKNcydv_KOwy9wzDqs1T6gCrrpx0PfwqpPY1LxD9E7UpweZjfGKPNpWHwES9JsGuM92zbWvPvjVsB8nvUEmsx2TAb4aao24IxrA14sXtq2aNHi64u4w_L5UvDYrKiKfroWw1dqqqzpogp-J75BxTHXaUHE2vyrWi86t_zeXlz_ME2L86sSY6MQj4mcnThFbhlNAHRP7m00]--></g></svg>