<svg xmlns="http://www.w3.org/2000/svg" xmlns:xlink="http://www.w3.org/1999/xlink" contentStyleType="text/css" data-diagram-type="DESCRIPTION" height="642.7083px" preserveAspectRatio="none" style="width:1981px;height:642px;" version="1.1" viewBox="0 0 1981 642" width="1981.25px" zoomAndPan="magnify"><title>Lambda Function Architecture</title><defs><linearGradient id="g6zi6g8ztojb30" x1="50%" x2="50%" y1="0%" y2="100%"><stop offset="0%" stop-color="#FFFFFF"/><stop offset="100%" stop-color="#EEEEEE"/></linearGradient><linearGradient id="g6zi6g8ztojb31" x1="50%" x2="50%" y1="0%" y2="100%"><stop offset="0%" stop-color="#F18E3E"/><stop offset="100%" stop-color="#EC7211"/></linearGradient></defs><g><g class="title" data-source-line="2"><rect fill="url(#g6zi6g8ztojb30)" height="45.0846" rx="4.1667" ry="4.1667" style="stroke:#EEEEEE;stroke-width:1.0417;" width="377.1057" x="794.7805" y="5.2083"/><text fill="#EC7211" font-family="'Verdana'" font-size="20.8333" font-weight="bold" lengthAdjust="spacing" textLength="356.2724" x="805.1971" y="34.963">Lambda Function Architecture</text></g><!--cluster Lambda Functions--><g class="cluster" data-entity="Lambda Functions" data-source-line="4" data-uid="ent0002" id="cluster_Lambda Functions"><path d="M10.4167,62.793 L147.7905,62.793 A6.25,6.25 0 0 1 151.9572,66.9596 L159.2489,94.0104 L1312.5,94.0104 A4.1667,4.1667 0 0 1 1316.6667,98.1771 L1316.6667,631.418 A4.1667,4.1667 0 0 1 1312.5,635.5846 L10.4167,635.5846 A4.1667,4.1667 0 0 1 6.25,631.418 L6.25,66.9596 A4.1667,4.1667 0 0 1 10.4167,62.793" fill="none" style="stroke:#4E5D6C;stroke-width:2.0833;"/><line style="stroke:#4E5D6C;stroke-width:2.0833;" x1="6.25" x2="159.2489" y1="94.0104" y2="94.0104"/><text fill="#4E5D6C" font-family="'Verdana'" font-size="12.5" font-weight="bold" lengthAdjust="spacing" textLength="129.0405" x="15.625" y="81.6874">Lambda Functions</text></g><!--cluster PreSignUp--><g class="cluster" data-entity="PreSignUp" data-source-line="5" data-uid="ent0003" id="cluster_PreSignUp"><path d="M35.4167,114.8763 L117.7856,114.8763 A6.25,6.25 0 0 1 121.9523,119.043 L129.244,146.0938 L260.4167,146.0938 A4.1667,4.1667 0 0 1 264.5833,150.2604 L264.5833,464.7826 A4.1667,4.1667 0 0 1 260.4167,468.9492 L35.4167,468.9492 A4.1667,4.1667 0 0 1 31.25,464.7826 L31.25,119.043 A4.1667,4.1667 0 0 1 35.4167,114.8763" fill="none" style="stroke:#4E5D6C;stroke-width:2.0833;"/><line style="stroke:#4E5D6C;stroke-width:2.0833;" x1="31.25" x2="129.244" y1="146.0938" y2="146.0938"/><text fill="#4E5D6C" font-family="'Verdana'" font-size="12.5" font-weight="bold" lengthAdjust="spacing" textLength="74.0356" x="40.625" y="133.7708">PreSignUp</text></g><!--cluster DefineAuthChallenge--><g class="cluster" data-entity="DefineAuthChallenge" data-source-line="11" data-uid="ent0007" id="cluster_DefineAuthChallenge"><path d="M293.75,114.8763 L451.3631,114.8763 A6.25,6.25 0 0 1 455.5298,119.043 L462.8215,146.0938 L504.1667,146.0938 A4.1667,4.1667 0 0 1 508.3333,150.2604 L508.3333,606.418 A4.1667,4.1667 0 0 1 504.1667,610.5846 L293.75,610.5846 A4.1667,4.1667 0 0 1 289.5833,606.418 L289.5833,119.043 A4.1667,4.1667 0 0 1 293.75,114.8763" fill="none" style="stroke:#4E5D6C;stroke-width:2.0833;"/><line style="stroke:#4E5D6C;stroke-width:2.0833;" x1="289.5833" x2="462.8215" y1="146.0938" y2="146.0938"/><text fill="#4E5D6C" font-family="'Verdana'" font-size="12.5" font-weight="bold" lengthAdjust="spacing" textLength="149.2798" x="298.9583" y="133.7708">DefineAuthChallenge</text></g><!--cluster CreateAuthChallenge--><g class="cluster" data-entity="CreateAuthChallenge" data-source-line="18" data-uid="ent0012" id="cluster_CreateAuthChallenge"><path d="M779.1667,114.8763 L937.5305,114.8763 A6.25,6.25 0 0 1 941.6972,119.043 L948.9889,146.0938 L1016.6667,146.0938 A4.1667,4.1667 0 0 1 1020.8333,150.2604 L1020.8333,606.418 A4.1667,4.1667 0 0 1 1016.6667,610.5846 L779.1667,610.5846 A4.1667,4.1667 0 0 1 775,606.418 L775,119.043 A4.1667,4.1667 0 0 1 779.1667,114.8763" fill="none" style="stroke:#4E5D6C;stroke-width:2.0833;"/><line style="stroke:#4E5D6C;stroke-width:2.0833;" x1="775" x2="948.9889" y1="146.0938" y2="146.0938"/><text fill="#4E5D6C" font-family="'Verdana'" font-size="12.5" font-weight="bold" lengthAdjust="spacing" textLength="150.0305" x="784.375" y="133.7708">CreateAuthChallenge</text></g><!--cluster VerifyAuthChallenge--><g class="cluster" data-entity="VerifyAuthChallenge" data-source-line="25" data-uid="ent0017" id="cluster_VerifyAuthChallenge"><path d="M537.5,114.8763 L691.3472,114.8763 A6.25,6.25 0 0 1 695.5139,119.043 L702.8056,146.0938 L745.8333,146.0938 A4.1667,4.1667 0 0 1 750,150.2604 L750,606.418 A4.1667,4.1667 0 0 1 745.8333,610.5846 L537.5,610.5846 A4.1667,4.1667 0 0 1 533.3333,606.418 L533.3333,119.043 A4.1667,4.1667 0 0 1 537.5,114.8763" fill="none" style="stroke:#4E5D6C;stroke-width:2.0833;"/><line style="stroke:#4E5D6C;stroke-width:2.0833;" x1="533.3333" x2="702.8056" y1="146.0938" y2="146.0938"/><text fill="#4E5D6C" font-family="'Verdana'" font-size="12.5" font-weight="bold" lengthAdjust="spacing" textLength="145.5139" x="542.7083" y="133.7708">VerifyAuthChallenge</text></g><!--cluster PostConfirmation--><g class="cluster" data-entity="PostConfirmation" data-source-line="32" data-uid="ent0022" id="cluster_PostConfirmation"><path d="M1050,114.8763 L1181.252,114.8763 A6.25,6.25 0 0 1 1185.4187,119.043 L1192.7104,146.0938 L1287.5,146.0938 A4.1667,4.1667 0 0 1 1291.6667,150.2604 L1291.6667,464.7826 A4.1667,4.1667 0 0 1 1287.5,468.9492 L1050,468.9492 A4.1667,4.1667 0 0 1 1045.8333,464.7826 L1045.8333,119.043 A4.1667,4.1667 0 0 1 1050,114.8763" fill="none" style="stroke:#4E5D6C;stroke-width:2.0833;"/><line style="stroke:#4E5D6C;stroke-width:2.0833;" x1="1045.8333" x2="1192.7104" y1="146.0938" y2="146.0938"/><text fill="#4E5D6C" font-family="'Verdana'" font-size="12.5" font-weight="bold" lengthAdjust="spacing" textLength="122.9187" x="1055.2083" y="133.7708">PostConfirmation</text></g><!--cluster External Dependencies--><g class="cluster" data-entity="External Dependencies" data-source-line="39" data-uid="ent0026" id="cluster_External Dependencies"><path d="M1345.8333,493.9492 L1516.4714,493.9492 A6.25,6.25 0 0 1 1520.638,498.1159 L1527.9297,525.1667 L1969.7917,525.1667 A4.1667,4.1667 0 0 1 1973.9583,529.3333 L1973.9583,606.418 A4.1667,4.1667 0 0 1 1969.7917,610.5846 L1345.8333,610.5846 A4.1667,4.1667 0 0 1 1341.6667,606.418 L1341.6667,498.1159 A4.1667,4.1667 0 0 1 1345.8333,493.9492" fill="none" style="stroke:#4E5D6C;stroke-width:2.0833;"/><line style="stroke:#4E5D6C;stroke-width:2.0833;" x1="1341.6667" x2="1527.9297" y1="525.1667" y2="525.1667"/><text fill="#4E5D6C" font-family="'Verdana'" font-size="12.5" font-weight="bold" lengthAdjust="spacing" textLength="162.3047" x="1351.0417" y="512.8437">External Dependencies</text></g><!--entity PS1--><g class="entity" data-entity="PS1" data-source-line="6" data-uid="ent0004" id="entity_PS1"><rect fill="url(#g6zi6g8ztojb31)" height="56.2174" rx="4.1667" ry="4.1667" style="stroke:#EC7211;stroke-width:1.0417;" width="199.2757" x="48.2813" y="158.6263"/><rect fill="url(#g6zi6g8ztojb31)" height="10.4167" style="stroke:#EC7211;stroke-width:1.0417;" width="15.625" x="226.7236" y="163.8346"/><rect fill="url(#g6zi6g8ztojb31)" height="2.0833" style="stroke:#EC7211;stroke-width:1.0417;" width="4.1667" x="224.6403" y="165.918"/><rect fill="url(#g6zi6g8ztojb31)" height="2.0833" style="stroke:#EC7211;stroke-width:1.0417;" width="4.1667" x="224.6403" y="170.0846"/><text fill="#FFFFFF" font-family="'Verdana'" font-size="12.5" lengthAdjust="spacing" textLength="147.1924" x="69.1146" y="196.2708">Validate phone number</text></g><!--entity PS2--><g class="entity" data-entity="PS2" data-source-line="7" data-uid="ent0005" id="entity_PS2"><rect fill="url(#g6zi6g8ztojb31)" height="56.2174" rx="4.1667" ry="4.1667" style="stroke:#EC7211;stroke-width:1.0417;" width="186.4827" x="54.6771" y="277.3451"/><rect fill="url(#g6zi6g8ztojb31)" height="10.4167" style="stroke:#EC7211;stroke-width:1.0417;" width="15.625" x="220.3265" y="282.5534"/><rect fill="url(#g6zi6g8ztojb31)" height="2.0833" style="stroke:#EC7211;stroke-width:1.0417;" width="4.1667" x="218.2432" y="284.6367"/><rect fill="url(#g6zi6g8ztojb31)" height="2.0833" style="stroke:#EC7211;stroke-width:1.0417;" width="4.1667" x="218.2432" y="288.8034"/><text fill="#FFFFFF" font-family="'Verdana'" font-size="12.5" lengthAdjust="spacing" textLength="134.3994" x="75.5104" y="314.9895">Set auto-confirm true</text></g><!--entity PS3--><g class="entity" data-entity="PS3" data-source-line="8" data-uid="ent0006" id="entity_PS3"><rect fill="url(#g6zi6g8ztojb31)" height="56.2174" rx="4.1667" ry="4.1667" style="stroke:#EC7211;stroke-width:1.0417;" width="187.6241" x="54.1042" y="396.0638"/><rect fill="url(#g6zi6g8ztojb31)" height="10.4167" style="stroke:#EC7211;stroke-width:1.0417;" width="15.625" x="220.8949" y="401.2721"/><rect fill="url(#g6zi6g8ztojb31)" height="2.0833" style="stroke:#EC7211;stroke-width:1.0417;" width="4.1667" x="218.8116" y="403.3555"/><rect fill="url(#g6zi6g8ztojb31)" height="2.0833" style="stroke:#EC7211;stroke-width:1.0417;" width="4.1667" x="218.8116" y="407.5221"/><text fill="#FFFFFF" font-family="'Verdana'" font-size="12.5" lengthAdjust="spacing" textLength="135.5408" x="74.9375" y="433.7083">Set custom attributes</text></g><!--entity DAC1--><g class="entity" data-entity="DAC1" data-source-line="12" data-uid="ent0008" id="entity_DAC1"><rect fill="url(#g6zi6g8ztojb31)" height="56.2174" rx="4.1667" ry="4.1667" style="stroke:#EC7211;stroke-width:1.0417;" width="184.6212" x="306.6458" y="158.6263"/><rect fill="url(#g6zi6g8ztojb31)" height="10.4167" style="stroke:#EC7211;stroke-width:1.0417;" width="15.625" x="470.4337" y="163.8346"/><rect fill="url(#g6zi6g8ztojb31)" height="2.0833" style="stroke:#EC7211;stroke-width:1.0417;" width="4.1667" x="468.3503" y="165.918"/><rect fill="url(#g6zi6g8ztojb31)" height="2.0833" style="stroke:#EC7211;stroke-width:1.0417;" width="4.1667" x="468.3503" y="170.0846"/><text fill="#FFFFFF" font-family="'Verdana'" font-size="12.5" lengthAdjust="spacing" textLength="132.5378" x="327.4792" y="196.2708">Determine client role</text></g><!--entity DAC2--><g class="entity" data-entity="DAC2" data-source-line="13" data-uid="ent0009" id="entity_DAC2"><rect fill="url(#g6zi6g8ztojb31)" height="56.2174" rx="4.1667" ry="4.1667" style="stroke:#EC7211;stroke-width:1.0417;" width="164.1561" x="316.8854" y="277.3451"/><rect fill="url(#g6zi6g8ztojb31)" height="10.4167" style="stroke:#EC7211;stroke-width:1.0417;" width="15.625" x="460.2082" y="282.5534"/><rect fill="url(#g6zi6g8ztojb31)" height="2.0833" style="stroke:#EC7211;stroke-width:1.0417;" width="4.1667" x="458.1248" y="284.6367"/><rect fill="url(#g6zi6g8ztojb31)" height="2.0833" style="stroke:#EC7211;stroke-width:1.0417;" width="4.1667" x="458.1248" y="288.8034"/><text fill="#FFFFFF" font-family="'Verdana'" font-size="12.5" lengthAdjust="spacing" textLength="112.0728" x="337.7188" y="314.9895">Check user status</text></g><!--entity DAC3--><g class="entity" data-entity="DAC3" data-source-line="14" data-uid="ent0010" id="entity_DAC3"><rect fill="url(#g6zi6g8ztojb31)" height="56.2174" rx="4.1667" ry="4.1667" style="stroke:#EC7211;stroke-width:1.0417;" width="169.1182" x="314.3958" y="396.0638"/><rect fill="url(#g6zi6g8ztojb31)" height="10.4167" style="stroke:#EC7211;stroke-width:1.0417;" width="15.625" x="462.6807" y="401.2721"/><rect fill="url(#g6zi6g8ztojb31)" height="2.0833" style="stroke:#EC7211;stroke-width:1.0417;" width="4.1667" x="460.5974" y="403.3555"/><rect fill="url(#g6zi6g8ztojb31)" height="2.0833" style="stroke:#EC7211;stroke-width:1.0417;" width="4.1667" x="460.5974" y="407.5221"/><text fill="#FFFFFF" font-family="'Verdana'" font-size="12.5" lengthAdjust="spacing" textLength="117.0349" x="335.2292" y="433.7083">Set challenge type</text></g><!--entity DAC4--><g class="entity" data-entity="DAC4" data-source-line="15" data-uid="ent0011" id="entity_DAC4"><rect fill="url(#g6zi6g8ztojb31)" height="56.2174" rx="4.1667" ry="4.1667" style="stroke:#EC7211;stroke-width:1.0417;" width="163.7777" x="317.0729" y="537.6992"/><rect fill="url(#g6zi6g8ztojb31)" height="10.4167" style="stroke:#EC7211;stroke-width:1.0417;" width="15.625" x="460.0173" y="542.9076"/><rect fill="url(#g6zi6g8ztojb31)" height="2.0833" style="stroke:#EC7211;stroke-width:1.0417;" width="4.1667" x="457.9339" y="544.9909"/><rect fill="url(#g6zi6g8ztojb31)" height="2.0833" style="stroke:#EC7211;stroke-width:1.0417;" width="4.1667" x="457.9339" y="549.1576"/><text fill="#FFFFFF" font-family="'Verdana'" font-size="12.5" lengthAdjust="spacing" textLength="111.6943" x="337.9063" y="575.3437">Handle retry logic</text></g><!--entity CAC1--><g class="entity" data-entity="CAC1" data-source-line="19" data-uid="ent0013" id="entity_CAC1"><rect fill="url(#g6zi6g8ztojb31)" height="56.2174" rx="4.1667" ry="4.1667" style="stroke:#EC7211;stroke-width:1.0417;" width="185.2498" x="805.2917" y="158.6263"/><rect fill="url(#g6zi6g8ztojb31)" height="10.4167" style="stroke:#EC7211;stroke-width:1.0417;" width="15.625" x="969.7082" y="163.8346"/><rect fill="url(#g6zi6g8ztojb31)" height="2.0833" style="stroke:#EC7211;stroke-width:1.0417;" width="4.1667" x="967.6248" y="165.918"/><rect fill="url(#g6zi6g8ztojb31)" height="2.0833" style="stroke:#EC7211;stroke-width:1.0417;" width="4.1667" x="967.6248" y="170.0846"/><text fill="#FFFFFF" font-family="'Verdana'" font-size="12.5" lengthAdjust="spacing" textLength="133.1665" x="826.125" y="196.2708">Generate secure OTP</text></g><!--entity CAC2--><g class="entity" data-entity="CAC2" data-source-line="20" data-uid="ent0014" id="entity_CAC2"><rect fill="url(#g6zi6g8ztojb31)" height="56.2174" rx="4.1667" ry="4.1667" style="stroke:#EC7211;stroke-width:1.0417;" width="211.4644" x="792.1875" y="277.3451"/><rect fill="url(#g6zi6g8ztojb31)" height="10.4167" style="stroke:#EC7211;stroke-width:1.0417;" width="15.625" x="982.8186" y="282.5534"/><rect fill="url(#g6zi6g8ztojb31)" height="2.0833" style="stroke:#EC7211;stroke-width:1.0417;" width="4.1667" x="980.7353" y="284.6367"/><rect fill="url(#g6zi6g8ztojb31)" height="2.0833" style="stroke:#EC7211;stroke-width:1.0417;" width="4.1667" x="980.7353" y="288.8034"/><text fill="#FFFFFF" font-family="'Verdana'" font-size="12.5" lengthAdjust="spacing" textLength="159.3811" x="813.0208" y="314.9895">Send WhatsApp message</text></g><!--entity CAC3--><g class="entity" data-entity="CAC3" data-source-line="21" data-uid="ent0015" id="entity_CAC3"><rect fill="url(#g6zi6g8ztojb31)" height="56.2174" rx="4.1667" ry="4.1667" style="stroke:#EC7211;stroke-width:1.0417;" width="171.0531" x="812.3854" y="396.0638"/><rect fill="url(#g6zi6g8ztojb31)" height="10.4167" style="stroke:#EC7211;stroke-width:1.0417;" width="15.625" x="962.6051" y="401.2721"/><rect fill="url(#g6zi6g8ztojb31)" height="2.0833" style="stroke:#EC7211;stroke-width:1.0417;" width="4.1667" x="960.5218" y="403.3555"/><rect fill="url(#g6zi6g8ztojb31)" height="2.0833" style="stroke:#EC7211;stroke-width:1.0417;" width="4.1667" x="960.5218" y="407.5221"/><text fill="#FFFFFF" font-family="'Verdana'" font-size="12.5" lengthAdjust="spacing" textLength="118.9697" x="833.2188" y="433.7083">Store OTP securely</text></g><!--entity CAC4--><g class="entity" data-entity="CAC4" data-source-line="22" data-uid="ent0016" id="entity_CAC4"><rect fill="url(#g6zi6g8ztojb31)" height="56.2174" rx="4.1667" ry="4.1667" style="stroke:#EC7211;stroke-width:1.0417;" width="137.4044" x="829.2188" y="537.6992"/><rect fill="url(#g6zi6g8ztojb31)" height="10.4167" style="stroke:#EC7211;stroke-width:1.0417;" width="15.625" x="945.7898" y="542.9076"/><rect fill="url(#g6zi6g8ztojb31)" height="2.0833" style="stroke:#EC7211;stroke-width:1.0417;" width="4.1667" x="943.7065" y="544.9909"/><rect fill="url(#g6zi6g8ztojb31)" height="2.0833" style="stroke:#EC7211;stroke-width:1.0417;" width="4.1667" x="943.7065" y="549.1576"/><text fill="#FFFFFF" font-family="'Verdana'" font-size="12.5" lengthAdjust="spacing" textLength="85.321" x="850.0521" y="575.3437">Handle errors</text></g><!--entity VAC1--><g class="entity" data-entity="VAC1" data-source-line="26" data-uid="ent0018" id="entity_VAC1"><rect fill="url(#g6zi6g8ztojb31)" height="56.2174" rx="4.1667" ry="4.1667" style="stroke:#EC7211;stroke-width:1.0417;" width="178.3101" x="552.5104" y="158.6263"/><rect fill="url(#g6zi6g8ztojb31)" height="10.4167" style="stroke:#EC7211;stroke-width:1.0417;" width="15.625" x="709.9872" y="163.8346"/><rect fill="url(#g6zi6g8ztojb31)" height="2.0833" style="stroke:#EC7211;stroke-width:1.0417;" width="4.1667" x="707.9039" y="165.918"/><rect fill="url(#g6zi6g8ztojb31)" height="2.0833" style="stroke:#EC7211;stroke-width:1.0417;" width="4.1667" x="707.9039" y="170.0846"/><text fill="#FFFFFF" font-family="'Verdana'" font-size="12.5" lengthAdjust="spacing" textLength="126.2268" x="573.3438" y="196.2708">Validate OTP format</text></g><!--entity VAC2--><g class="entity" data-entity="VAC2" data-source-line="27" data-uid="ent0019" id="entity_VAC2"><rect fill="url(#g6zi6g8ztojb31)" height="56.2174" rx="4.1667" ry="4.1667" style="stroke:#EC7211;stroke-width:1.0417;" width="162.5264" x="560.4063" y="277.3451"/><rect fill="url(#g6zi6g8ztojb31)" height="10.4167" style="stroke:#EC7211;stroke-width:1.0417;" width="15.625" x="702.0994" y="282.5534"/><rect fill="url(#g6zi6g8ztojb31)" height="2.0833" style="stroke:#EC7211;stroke-width:1.0417;" width="4.1667" x="700.016" y="284.6367"/><rect fill="url(#g6zi6g8ztojb31)" height="2.0833" style="stroke:#EC7211;stroke-width:1.0417;" width="4.1667" x="700.016" y="288.8034"/><text fill="#FFFFFF" font-family="'Verdana'" font-size="12.5" lengthAdjust="spacing" textLength="110.4431" x="581.2396" y="314.9895">Check OTP expiry</text></g><!--entity VAC3--><g class="entity" data-entity="VAC3" data-source-line="28" data-uid="ent0020" id="entity_VAC3"><rect fill="url(#g6zi6g8ztojb31)" height="56.2174" rx="4.1667" ry="4.1667" style="stroke:#EC7211;stroke-width:1.0417;" width="182.6742" x="550.3333" y="396.0638"/><rect fill="url(#g6zi6g8ztojb31)" height="10.4167" style="stroke:#EC7211;stroke-width:1.0417;" width="15.625" x="712.1742" y="401.2721"/><rect fill="url(#g6zi6g8ztojb31)" height="2.0833" style="stroke:#EC7211;stroke-width:1.0417;" width="4.1667" x="710.0908" y="403.3555"/><rect fill="url(#g6zi6g8ztojb31)" height="2.0833" style="stroke:#EC7211;stroke-width:1.0417;" width="4.1667" x="710.0908" y="407.5221"/><text fill="#FFFFFF" font-family="'Verdana'" font-size="12.5" lengthAdjust="spacing" textLength="130.5908" x="571.1667" y="433.7083">Compare OTP values</text></g><!--entity VAC4--><g class="entity" data-entity="VAC4" data-source-line="29" data-uid="ent0021" id="entity_VAC4"><rect fill="url(#g6zi6g8ztojb31)" height="56.2174" rx="4.1667" ry="4.1667" style="stroke:#EC7211;stroke-width:1.0417;" width="170.9737" x="556.1771" y="537.6992"/><rect fill="url(#g6zi6g8ztojb31)" height="10.4167" style="stroke:#EC7211;stroke-width:1.0417;" width="15.625" x="706.3175" y="542.9076"/><rect fill="url(#g6zi6g8ztojb31)" height="2.0833" style="stroke:#EC7211;stroke-width:1.0417;" width="4.1667" x="704.2341" y="544.9909"/><rect fill="url(#g6zi6g8ztojb31)" height="2.0833" style="stroke:#EC7211;stroke-width:1.0417;" width="4.1667" x="704.2341" y="549.1576"/><text fill="#FFFFFF" font-family="'Verdana'" font-size="12.5" lengthAdjust="spacing" textLength="118.8904" x="577.0104" y="575.3437">Update user status</text></g><!--entity PC1--><g class="entity" data-entity="PC1" data-source-line="33" data-uid="ent0023" id="entity_PC1"><rect fill="url(#g6zi6g8ztojb31)" height="56.2174" rx="4.1667" ry="4.1667" style="stroke:#EC7211;stroke-width:1.0417;" width="212.3678" x="1062.5625" y="158.6263"/><rect fill="url(#g6zi6g8ztojb31)" height="10.4167" style="stroke:#EC7211;stroke-width:1.0417;" width="15.625" x="1254.0969" y="163.8346"/><rect fill="url(#g6zi6g8ztojb31)" height="2.0833" style="stroke:#EC7211;stroke-width:1.0417;" width="4.1667" x="1252.0136" y="165.918"/><rect fill="url(#g6zi6g8ztojb31)" height="2.0833" style="stroke:#EC7211;stroke-width:1.0417;" width="4.1667" x="1252.0136" y="170.0846"/><text fill="#FFFFFF" font-family="'Verdana'" font-size="12.5" lengthAdjust="spacing" textLength="160.2844" x="1083.3958" y="196.2708">Update custom attributes</text></g><!--entity PC2--><g class="entity" data-entity="PC2" data-source-line="34" data-uid="ent0024" id="entity_PC2"><rect fill="url(#g6zi6g8ztojb31)" height="56.2174" rx="4.1667" ry="4.1667" style="stroke:#EC7211;stroke-width:1.0417;" width="180.5868" x="1078.4583" y="277.3451"/><rect fill="url(#g6zi6g8ztojb31)" height="10.4167" style="stroke:#EC7211;stroke-width:1.0417;" width="15.625" x="1238.2118" y="282.5534"/><rect fill="url(#g6zi6g8ztojb31)" height="2.0833" style="stroke:#EC7211;stroke-width:1.0417;" width="4.1667" x="1236.1284" y="284.6367"/><rect fill="url(#g6zi6g8ztojb31)" height="2.0833" style="stroke:#EC7211;stroke-width:1.0417;" width="4.1667" x="1236.1284" y="288.8034"/><text fill="#FFFFFF" font-family="'Verdana'" font-size="12.5" lengthAdjust="spacing" textLength="128.5034" x="1099.2917" y="314.9895">Set verification flags</text></g><!--entity PC3--><g class="entity" data-entity="PC3" data-source-line="35" data-uid="ent0025" id="entity_PC3"><rect fill="url(#g6zi6g8ztojb31)" height="56.2174" rx="4.1667" ry="4.1667" style="stroke:#EC7211;stroke-width:1.0417;" width="151.2594" x="1093.125" y="396.0638"/><rect fill="url(#g6zi6g8ztojb31)" height="10.4167" style="stroke:#EC7211;stroke-width:1.0417;" width="15.625" x="1223.551" y="401.2721"/><rect fill="url(#g6zi6g8ztojb31)" height="2.0833" style="stroke:#EC7211;stroke-width:1.0417;" width="4.1667" x="1221.4677" y="403.3555"/><rect fill="url(#g6zi6g8ztojb31)" height="2.0833" style="stroke:#EC7211;stroke-width:1.0417;" width="4.1667" x="1221.4677" y="407.5221"/><text fill="#FFFFFF" font-family="'Verdana'" font-size="12.5" lengthAdjust="spacing" textLength="99.176" x="1113.9583" y="433.7083">Complete setup</text></g><!--entity CognitoClient--><g class="entity" data-entity="CognitoClient" data-source-line="40" data-uid="ent0027" id="entity_CognitoClient"><rect fill="url(#g6zi6g8ztojb31)" height="56.2174" rx="4.1667" ry="4.1667" style="stroke:#EC7211;stroke-width:1.0417;" width="173.3175" x="1784.1771" y="537.6992"/><rect fill="url(#g6zi6g8ztojb31)" height="10.4167" style="stroke:#EC7211;stroke-width:1.0417;" width="15.625" x="1936.6612" y="542.9076"/><rect fill="url(#g6zi6g8ztojb31)" height="2.0833" style="stroke:#EC7211;stroke-width:1.0417;" width="4.1667" x="1934.5779" y="544.9909"/><rect fill="url(#g6zi6g8ztojb31)" height="2.0833" style="stroke:#EC7211;stroke-width:1.0417;" width="4.1667" x="1934.5779" y="549.1576"/><text fill="#FFFFFF" font-family="'Verdana'" font-size="12.5" lengthAdjust="spacing" textLength="121.2341" x="1805.0104" y="575.3437">AWS Cognito Client</text></g><!--entity SendZenAPI--><g class="entity" data-entity="SendZenAPI" data-source-line="41" data-uid="ent0028" id="entity_SendZenAPI"><rect fill="url(#g6zi6g8ztojb31)" height="56.2174" rx="4.1667" ry="4.1667" style="stroke:#EC7211;stroke-width:1.0417;" width="199.2391" x="1548.3021" y="537.6992"/><rect fill="url(#g6zi6g8ztojb31)" height="10.4167" style="stroke:#EC7211;stroke-width:1.0417;" width="15.625" x="1726.7078" y="542.9076"/><rect fill="url(#g6zi6g8ztojb31)" height="2.0833" style="stroke:#EC7211;stroke-width:1.0417;" width="4.1667" x="1724.6245" y="544.9909"/><rect fill="url(#g6zi6g8ztojb31)" height="2.0833" style="stroke:#EC7211;stroke-width:1.0417;" width="4.1667" x="1724.6245" y="549.1576"/><text fill="#FFFFFF" font-family="'Verdana'" font-size="12.5" lengthAdjust="spacing" textLength="147.1558" x="1569.1354" y="575.3437">SendZen WhatsApp API</text></g><!--entity Utils--><g class="entity" data-entity="Utils" data-source-line="42" data-uid="ent0029" id="entity_Utils"><rect fill="url(#g6zi6g8ztojb31)" height="56.2174" rx="4.1667" ry="4.1667" style="stroke:#EC7211;stroke-width:1.0417;" width="153.1881" x="1358.8229" y="537.6992"/><rect fill="url(#g6zi6g8ztojb31)" height="10.4167" style="stroke:#EC7211;stroke-width:1.0417;" width="15.625" x="1491.1777" y="542.9076"/><rect fill="url(#g6zi6g8ztojb31)" height="2.0833" style="stroke:#EC7211;stroke-width:1.0417;" width="4.1667" x="1489.0943" y="544.9909"/><rect fill="url(#g6zi6g8ztojb31)" height="2.0833" style="stroke:#EC7211;stroke-width:1.0417;" width="4.1667" x="1489.0943" y="549.1576"/><text fill="#FFFFFF" font-family="'Verdana'" font-size="12.5" lengthAdjust="spacing" textLength="101.1047" x="1379.6563" y="575.3437">Utility Functions</text></g><!--link PS1 to PS2--><g class="link" data-entity-1="PS1" data-entity-2="PS2" data-source-line="45" data-uid="lnk30" id="link_PS1_PS2"><path d="M147.9167,215.1263 C147.9167,233.7096 147.9167,251.9596 147.9167,270.5846" fill="none" id="PS1-to-PS2" style="stroke:#EC7211;stroke-width:3.125;"/><polygon fill="#EC7211" points="147.9167,276.8346,152.0833,267.4596,147.9167,271.6263,143.75,267.4596,147.9167,276.8346" style="stroke:#EC7211;stroke-width:3.125;"/></g><!--link PS2 to PS3--><g class="link" data-entity-1="PS2" data-entity-2="PS3" data-source-line="46" data-uid="lnk31" id="link_PS2_PS3"><path d="M147.9167,333.8451 C147.9167,352.4284 147.9167,370.668 147.9167,389.3034" fill="none" id="PS2-to-PS3" style="stroke:#EC7211;stroke-width:3.125;"/><polygon fill="#EC7211" points="147.9167,395.5534,152.0833,386.1784,147.9167,390.3451,143.75,386.1784,147.9167,395.5534" style="stroke:#EC7211;stroke-width:3.125;"/></g><!--link DAC1 to DAC2--><g class="link" data-entity-1="DAC1" data-entity-2="DAC2" data-source-line="48" data-uid="lnk32" id="link_DAC1_DAC2"><path d="M398.9583,215.1263 C398.9583,233.7096 398.9583,251.9596 398.9583,270.5846" fill="none" id="DAC1-to-DAC2" style="stroke:#EC7211;stroke-width:3.125;"/><polygon fill="#EC7211" points="398.9583,276.8346,403.125,267.4596,398.9583,271.6263,394.7917,267.4596,398.9583,276.8346" style="stroke:#EC7211;stroke-width:3.125;"/></g><!--link DAC2 to DAC3--><g class="link" data-entity-1="DAC2" data-entity-2="DAC3" data-source-line="49" data-uid="lnk33" id="link_DAC2_DAC3"><path d="M398.9583,333.8451 C398.9583,352.4284 398.9583,370.668 398.9583,389.3034" fill="none" id="DAC2-to-DAC3" style="stroke:#EC7211;stroke-width:3.125;"/><polygon fill="#EC7211" points="398.9583,395.5534,403.125,386.1784,398.9583,390.3451,394.7917,386.1784,398.9583,395.5534" style="stroke:#EC7211;stroke-width:3.125;"/></g><!--link DAC3 to DAC4--><g class="link" data-entity-1="DAC3" data-entity-2="DAC4" data-source-line="50" data-uid="lnk34" id="link_DAC3_DAC4"><path d="M398.9583,452.7826 C398.9583,477.2513 398.9583,506.5534 398.9583,531.0013" fill="none" id="DAC3-to-DAC4" style="stroke:#EC7211;stroke-width:3.125;"/><polygon fill="#EC7211" points="398.9583,537.2513,403.125,527.8763,398.9583,532.043,394.7917,527.8763,398.9583,537.2513" style="stroke:#EC7211;stroke-width:3.125;"/></g><!--link CAC1 to CAC2--><g class="link" data-entity-1="CAC1" data-entity-2="CAC2" data-source-line="52" data-uid="lnk35" id="link_CAC1_CAC2"><path d="M897.9167,215.1263 C897.9167,233.7096 897.9167,251.9596 897.9167,270.5846" fill="none" id="CAC1-to-CAC2" style="stroke:#EC7211;stroke-width:3.125;"/><polygon fill="#EC7211" points="897.9167,276.8346,902.0833,267.4596,897.9167,271.6263,893.75,267.4596,897.9167,276.8346" style="stroke:#EC7211;stroke-width:3.125;"/></g><!--link CAC2 to CAC3--><g class="link" data-entity-1="CAC2" data-entity-2="CAC3" data-source-line="53" data-uid="lnk36" id="link_CAC2_CAC3"><path d="M897.9167,333.8451 C897.9167,352.4284 897.9167,370.668 897.9167,389.3034" fill="none" id="CAC2-to-CAC3" style="stroke:#EC7211;stroke-width:3.125;"/><polygon fill="#EC7211" points="897.9167,395.5534,902.0833,386.1784,897.9167,390.3451,893.75,386.1784,897.9167,395.5534" style="stroke:#EC7211;stroke-width:3.125;"/></g><!--link CAC3 to CAC4--><g class="link" data-entity-1="CAC3" data-entity-2="CAC4" data-source-line="54" data-uid="lnk37" id="link_CAC3_CAC4"><path d="M897.9167,452.7826 C897.9167,477.2513 897.9167,506.5534 897.9167,531.0013" fill="none" id="CAC3-to-CAC4" style="stroke:#EC7211;stroke-width:3.125;"/><polygon fill="#EC7211" points="897.9167,537.2513,902.0833,527.8763,897.9167,532.043,893.75,527.8763,897.9167,537.2513" style="stroke:#EC7211;stroke-width:3.125;"/></g><!--link VAC1 to VAC2--><g class="link" data-entity-1="VAC1" data-entity-2="VAC2" data-source-line="56" data-uid="lnk38" id="link_VAC1_VAC2"><path d="M641.6667,215.1263 C641.6667,233.7096 641.6667,251.9596 641.6667,270.5846" fill="none" id="VAC1-to-VAC2" style="stroke:#EC7211;stroke-width:3.125;"/><polygon fill="#EC7211" points="641.6667,276.8346,645.8333,267.4596,641.6667,271.6263,637.5,267.4596,641.6667,276.8346" style="stroke:#EC7211;stroke-width:3.125;"/></g><!--link VAC2 to VAC3--><g class="link" data-entity-1="VAC2" data-entity-2="VAC3" data-source-line="57" data-uid="lnk39" id="link_VAC2_VAC3"><path d="M641.6667,333.8451 C641.6667,352.4284 641.6667,370.668 641.6667,389.3034" fill="none" id="VAC2-to-VAC3" style="stroke:#EC7211;stroke-width:3.125;"/><polygon fill="#EC7211" points="641.6667,395.5534,645.8333,386.1784,641.6667,390.3451,637.5,386.1784,641.6667,395.5534" style="stroke:#EC7211;stroke-width:3.125;"/></g><!--link VAC3 to VAC4--><g class="link" data-entity-1="VAC3" data-entity-2="VAC4" data-source-line="58" data-uid="lnk40" id="link_VAC3_VAC4"><path d="M641.6667,452.7826 C641.6667,477.2513 641.6667,506.5534 641.6667,531.0013" fill="none" id="VAC3-to-VAC4" style="stroke:#EC7211;stroke-width:3.125;"/><polygon fill="#EC7211" points="641.6667,537.2513,645.8333,527.8763,641.6667,532.043,637.5,527.8763,641.6667,537.2513" style="stroke:#EC7211;stroke-width:3.125;"/></g><!--link PC1 to PC2--><g class="link" data-entity-1="PC1" data-entity-2="PC2" data-source-line="60" data-uid="lnk41" id="link_PC1_PC2"><path d="M1168.75,215.1263 C1168.75,233.7096 1168.75,251.9596 1168.75,270.5846" fill="none" id="PC1-to-PC2" style="stroke:#EC7211;stroke-width:3.125;"/><polygon fill="#EC7211" points="1168.75,276.8346,1172.9167,267.4596,1168.75,271.6263,1164.5833,267.4596,1168.75,276.8346" style="stroke:#EC7211;stroke-width:3.125;"/></g><!--link PC2 to PC3--><g class="link" data-entity-1="PC2" data-entity-2="PC3" data-source-line="61" data-uid="lnk42" id="link_PC2_PC3"><path d="M1168.75,333.8451 C1168.75,352.4284 1168.75,370.668 1168.75,389.3034" fill="none" id="PC2-to-PC3" style="stroke:#EC7211;stroke-width:3.125;"/><polygon fill="#EC7211" points="1168.75,395.5534,1172.9167,386.1784,1168.75,390.3451,1164.5833,386.1784,1168.75,395.5534" style="stroke:#EC7211;stroke-width:3.125;"/></g><!--link DAC1 to CognitoClient--><g class="link" data-entity-1="DAC1" data-entity-2="CognitoClient" data-source-line="63" data-uid="lnk43" id="link_DAC1_CognitoClient"><path d="M491.6042,207.9076 C505.5417,210.5117 519.7813,212.9284 533.3333,214.8451 C868.1771,262.2096 964.6563,191.1576 1291.6667,277.3451 C1496.3542,331.3034 1522.7083,411.6367 1723.9583,477.2826 C1741.9167,483.1367 1748.3854,477.8971 1765.625,485.6159 C1793.9896,498.3242 1817.2085,515.7555 1837.146,533.1617" fill="none" id="DAC1-to-CognitoClient" style="stroke:#EC7211;stroke-width:3.125;"/><polygon fill="#EC7211" points="1841.8542,537.2721,1837.5322,527.9677,1837.9307,533.8468,1832.0516,534.2453,1841.8542,537.2721" style="stroke:#EC7211;stroke-width:3.125;"/></g><!--link CAC2 to SendZenAPI--><g class="link" data-entity-1="CAC2" data-entity-2="SendZenAPI" data-source-line="64" data-uid="lnk44" id="link_CAC2_SendZenAPI"><path d="M1003.7917,326.5326 C1083.6458,342.6055 1195.4792,367.2096 1291.6667,396.0638 C1400.1354,428.5951 1429.5313,433.7721 1530.2083,485.6159 C1559.1042,500.5013 1584.4423,517.4024 1607.0985,533.8503" fill="none" id="CAC2-to-SendZenAPI" style="stroke:#EC7211;stroke-width:3.125;"/><polygon fill="#EC7211" points="1612.1563,537.5221,1607.0175,528.6426,1607.9415,534.4623,1602.1218,535.3863,1612.1563,537.5221" style="stroke:#EC7211;stroke-width:3.125;"/></g><!--link VAC3 to Utils--><g class="link" data-entity-1="VAC3" data-entity-2="Utils" data-source-line="65" data-uid="lnk45" id="link_VAC3_Utils"><path d="M699.4375,452.6992 C722.4167,462.3138 749.4479,472.0221 775,477.2826 C828.5417,488.3138 966.5104,479.543 1020.8333,485.6159 C1139.7188,498.8971 1269.48,526.0362 1352.3133,544.9633" fill="none" id="VAC3-to-Utils" style="stroke:#EC7211;stroke-width:3.125;"/><polygon fill="#EC7211" points="1358.4063,546.3555,1350.1949,540.2052,1353.3288,545.1953,1348.3387,548.3291,1358.4063,546.3555" style="stroke:#EC7211;stroke-width:3.125;"/></g><!--link PC1 to CognitoClient--><g class="link" data-entity-1="PC1" data-entity-2="CognitoClient" data-source-line="66" data-uid="lnk46" id="link_PC1_CognitoClient"><path d="M1275.1354,195.043 C1360.75,204.5742 1481.8854,226.5742 1576.0417,277.3451 C1700.6042,344.5326 1805.1232,474.7008 1847.769,532.5133" fill="none" id="PC1-to-CognitoClient" style="stroke:#EC7211;stroke-width:3.125;"/><polygon fill="#EC7211" points="1851.4792,537.543,1849.267,527.5251,1848.3874,533.3516,1842.5608,532.4719,1851.4792,537.543" style="stroke:#EC7211;stroke-width:3.125;"/></g><!--SRC=[TPDDZziW48Rl_XNJlUVGPi-LBD8lgL8jfV5ANVL0oCH6Yy62ORjMjV-zWC79Hkx1KOPv65vcNjvHZmC2_-CsndBTOKMI5C9tFXnF73vxBKWQ3RKLlIGKv2rMrSZ54-yGxcumTmT_Au0btLZSoquVndaTuB7bIfuu8OozqGZQ3qUqlu4xQFRlPsIF1DoJsGYZpz8EGDPZHZvS4E4TcG4uaPL7J-WoiWt8Q_YkTUpmB3NMddhMSwKmt7DHj4D2EuGq22LH4rYZvkDsDSkIM8_Y2Rn32uuuULVortfAPQ1fN0fiP-0hrwVGLOja9r2caw80zojocSNGedMvNr2ZZGrqAC8iuCVF9fLYYzWzwXCyz9nSFOume7EXQ66AO3Bptbn6JGLuAnYjDTQLt9hM5gqyJ-jQbs77Wyx63fnIgVQciJ6DBwEqKqbdcSmC8yz2dxdoUSZj8lCmflgtasdNjJR64PjDnQDT5w6vp7yinQwC-HolAqNQ3cV5ky9SALQOnaD-pBdPagzNx-RJIp2TvWfsE8PneHOIy-Dvh1_sm4od9HbWoP9p_-UbUQNAS_w5-ZBgklcMo9m8OSGE99MawV964nDNNPGKdXriDX_JsmfV_h-jgkZ-52MRnvyIRMEqBT5zLR629eEnWYOtiO8c_rHjGTEGsuAcYRO5JUEhcap6tZQPYxsyA7lRakNSg_il9UVxDciR_m40]--></g></svg>