<svg xmlns="http://www.w3.org/2000/svg" xmlns:xlink="http://www.w3.org/1999/xlink" contentStyleType="text/css" data-diagram-type="DESCRIPTION" height="1228.125px" preserveAspectRatio="none" style="width:593px;height:1228px;" version="1.1" viewBox="0 0 593 1228" width="593.75px" zoomAndPan="magnify"><title>Data Flow</title><defs><linearGradient id="g1xof4wnf2ir6l0" x1="50%" x2="50%" y1="0%" y2="100%"><stop offset="0%" stop-color="#FFFFFF"/><stop offset="100%" stop-color="#EEEEEE"/></linearGradient><linearGradient id="g1xof4wnf2ir6l1" x1="50%" x2="50%" y1="0%" y2="100%"><stop offset="0%" stop-color="#F18E3E"/><stop offset="100%" stop-color="#EC7211"/></linearGradient></defs><g><g class="title" data-source-line="2"><rect fill="url(#g1xof4wnf2ir6l0)" height="45.0846" rx="4.1667" ry="4.1667" style="stroke:#EEEEEE;stroke-width:1.0417;" width="138.387" x="220.3898" y="5.2083"/><text fill="#EC7211" font-family="'Verdana'" font-size="20.8333" font-weight="bold" lengthAdjust="spacing" textLength="117.5537" x="230.8065" y="34.963">Data Flow</text></g><!--cluster User Input--><g class="cluster" data-entity="User Input" data-source-line="4" data-uid="ent0002" id="cluster_User Input"><path d="M57.2917,62.793 L139.5813,62.793 A6.25,6.25 0 0 1 143.748,66.9596 L151.0396,94.0104 L525,94.0104 A4.1667,4.1667 0 0 1 529.1667,98.1771 L529.1667,175.2617 A4.1667,4.1667 0 0 1 525,179.4284 L57.2917,179.4284 A4.1667,4.1667 0 0 1 53.125,175.2617 L53.125,66.9596 A4.1667,4.1667 0 0 1 57.2917,62.793" fill="none" style="stroke:#4E5D6C;stroke-width:2.0833;"/><line style="stroke:#4E5D6C;stroke-width:2.0833;" x1="53.125" x2="151.0396" y1="94.0104" y2="94.0104"/><text fill="#4E5D6C" font-family="'Verdana'" font-size="12.5" font-weight="bold" lengthAdjust="spacing" textLength="73.9563" x="62.5" y="81.6874">User Input</text></g><!--cluster Frontend Processing--><g class="cluster" data-entity="Frontend Processing" data-source-line="10" data-uid="ent0006" id="cluster_Frontend Processing"><path d="M209.375,204.4284 L363.3626,204.4284 A6.25,6.25 0 0 1 367.5293,208.5951 L374.821,235.6458 L405.2083,235.6458 A4.1667,4.1667 0 0 1 409.375,239.8125 L409.375,554.3346 A4.1667,4.1667 0 0 1 405.2083,558.5013 L209.375,558.5013 A4.1667,4.1667 0 0 1 205.2083,554.3346 L205.2083,208.5951 A4.1667,4.1667 0 0 1 209.375,204.4284" fill="none" style="stroke:#4E5D6C;stroke-width:2.0833;"/><line style="stroke:#4E5D6C;stroke-width:2.0833;" x1="205.2083" x2="374.821" y1="235.6458" y2="235.6458"/><text fill="#4E5D6C" font-family="'Verdana'" font-size="12.5" font-weight="bold" lengthAdjust="spacing" textLength="145.6543" x="214.5833" y="223.3228">Frontend Processing</text></g><!--cluster AWS Cognito--><g class="cluster" data-entity="AWS Cognito" data-source-line="16" data-uid="ent0010" id="cluster_AWS Cognito"><path d="M11.4583,583.5013 L111.0636,583.5013 A6.25,6.25 0 0 1 115.2303,587.668 L122.522,614.7188 L582.2917,614.7188 A4.1667,4.1667 0 0 1 586.4583,618.8854 L586.4583,814.6784 A4.1667,4.1667 0 0 1 582.2917,818.8451 L11.4583,818.8451 A4.1667,4.1667 0 0 1 7.2917,814.6784 L7.2917,587.668 A4.1667,4.1667 0 0 1 11.4583,583.5013" fill="none" style="stroke:#4E5D6C;stroke-width:2.0833;"/><line style="stroke:#4E5D6C;stroke-width:2.0833;" x1="7.2917" x2="122.522" y1="614.7188" y2="614.7188"/><text fill="#4E5D6C" font-family="'Verdana'" font-size="12.5" font-weight="bold" lengthAdjust="spacing" textLength="91.272" x="16.6667" y="602.3958">AWS Cognito</text></g><!--cluster Lambda Processing--><g class="cluster" data-entity="Lambda Processing" data-source-line="23" data-uid="ent0015" id="cluster_Lambda Processing"><path d="M10.4167,843.8451 L155.6702,843.8451 A6.25,6.25 0 0 1 159.8368,848.0117 L167.1285,875.0625 L390.625,875.0625 A4.1667,4.1667 0 0 1 394.7917,879.2292 L394.7917,1075.0326 A4.1667,4.1667 0 0 1 390.625,1079.1992 L10.4167,1079.1992 A4.1667,4.1667 0 0 1 6.25,1075.0326 L6.25,848.0117 A4.1667,4.1667 0 0 1 10.4167,843.8451" fill="none" style="stroke:#4E5D6C;stroke-width:2.0833;"/><line style="stroke:#4E5D6C;stroke-width:2.0833;" x1="6.25" x2="167.1285" y1="875.0625" y2="875.0625"/><text fill="#4E5D6C" font-family="'Verdana'" font-size="12.5" font-weight="bold" lengthAdjust="spacing" textLength="136.9202" x="15.625" y="862.7395">Lambda Processing</text></g><!--cluster External Services--><g class="cluster" data-entity="External Services" data-source-line="30" data-uid="ent0020" id="cluster_External Services"><path d="M17.7083,1104.1992 L148.6369,1104.1992 A6.25,6.25 0 0 1 152.8035,1108.3659 L160.0952,1135.4167 L173.9583,1135.4167 A4.1667,4.1667 0 0 1 178.125,1139.5833 L178.125,1216.668 A4.1667,4.1667 0 0 1 173.9583,1220.8346 L17.7083,1220.8346 A4.1667,4.1667 0 0 1 13.5417,1216.668 L13.5417,1108.3659 A4.1667,4.1667 0 0 1 17.7083,1104.1992" fill="none" style="stroke:#4E5D6C;stroke-width:2.0833;"/><line style="stroke:#4E5D6C;stroke-width:2.0833;" x1="13.5417" x2="160.0952" y1="1135.4167" y2="1135.4167"/><text fill="#4E5D6C" font-family="'Verdana'" font-size="12.5" font-weight="bold" lengthAdjust="spacing" textLength="122.5952" x="22.9167" y="1123.0937">External Services</text></g><!--cluster Storage--><g class="cluster" data-entity="Storage" data-source-line="34" data-uid="ent0022" id="cluster_Storage"><path d="M207.2917,1104.1992 L271.2158,1104.1992 A6.25,6.25 0 0 1 275.3825,1108.3659 L282.6742,1135.4167 L543.75,1135.4167 A4.1667,4.1667 0 0 1 547.9167,1139.5833 L547.9167,1216.668 A4.1667,4.1667 0 0 1 543.75,1220.8346 L207.2917,1220.8346 A4.1667,4.1667 0 0 1 203.125,1216.668 L203.125,1108.3659 A4.1667,4.1667 0 0 1 207.2917,1104.1992" fill="none" style="stroke:#4E5D6C;stroke-width:2.0833;"/><line style="stroke:#4E5D6C;stroke-width:2.0833;" x1="203.125" x2="282.6742" y1="1135.4167" y2="1135.4167"/><text fill="#4E5D6C" font-family="'Verdana'" font-size="12.5" font-weight="bold" lengthAdjust="spacing" textLength="55.5908" x="212.5" y="1123.0937">Storage</text></g><!--entity Phone--><g class="entity" data-entity="Phone" data-source-line="5" data-uid="ent0003" id="entity_Phone"><rect fill="url(#g1xof4wnf2ir6l1)" height="56.2174" rx="4.1667" ry="4.1667" style="stroke:#EC7211;stroke-width:1.0417;" width="144.991" x="70.2083" y="106.543"/><rect fill="url(#g1xof4wnf2ir6l1)" height="10.4167" style="stroke:#EC7211;stroke-width:1.0417;" width="15.625" x="194.366" y="111.7513"/><rect fill="url(#g1xof4wnf2ir6l1)" height="2.0833" style="stroke:#EC7211;stroke-width:1.0417;" width="4.1667" x="192.2827" y="113.8346"/><rect fill="url(#g1xof4wnf2ir6l1)" height="2.0833" style="stroke:#EC7211;stroke-width:1.0417;" width="4.1667" x="192.2827" y="118.0013"/><text fill="#FFFFFF" font-family="'Verdana'" font-size="12.5" lengthAdjust="spacing" textLength="92.9077" x="91.0417" y="144.1874">Phone Number</text></g><!--entity Password--><g class="entity" data-entity="Password" data-source-line="6" data-uid="ent0004" id="entity_Password"><rect fill="url(#g1xof4wnf2ir6l1)" height="56.2174" rx="4.1667" ry="4.1667" style="stroke:#EC7211;stroke-width:1.0417;" width="111.2508" x="251.6667" y="106.543"/><rect fill="url(#g1xof4wnf2ir6l1)" height="10.4167" style="stroke:#EC7211;stroke-width:1.0417;" width="15.625" x="342.0841" y="111.7513"/><rect fill="url(#g1xof4wnf2ir6l1)" height="2.0833" style="stroke:#EC7211;stroke-width:1.0417;" width="4.1667" x="340.0008" y="113.8346"/><rect fill="url(#g1xof4wnf2ir6l1)" height="2.0833" style="stroke:#EC7211;stroke-width:1.0417;" width="4.1667" x="340.0008" y="118.0013"/><text fill="#FFFFFF" font-family="'Verdana'" font-size="12.5" lengthAdjust="spacing" textLength="59.1675" x="272.5" y="144.1874">Password</text></g><!--entity OTP--><g class="entity" data-entity="OTP" data-source-line="7" data-uid="ent0005" id="entity_OTP"><rect fill="url(#g1xof4wnf2ir6l1)" height="56.2174" rx="4.1667" ry="4.1667" style="stroke:#EC7211;stroke-width:1.0417;" width="113.0697" x="399.7188" y="106.543"/><rect fill="url(#g1xof4wnf2ir6l1)" height="10.4167" style="stroke:#EC7211;stroke-width:1.0417;" width="15.625" x="491.9551" y="111.7513"/><rect fill="url(#g1xof4wnf2ir6l1)" height="2.0833" style="stroke:#EC7211;stroke-width:1.0417;" width="4.1667" x="489.8717" y="113.8346"/><rect fill="url(#g1xof4wnf2ir6l1)" height="2.0833" style="stroke:#EC7211;stroke-width:1.0417;" width="4.1667" x="489.8717" y="118.0013"/><text fill="#FFFFFF" font-family="'Verdana'" font-size="12.5" lengthAdjust="spacing" textLength="60.9863" x="420.5521" y="144.1874">OTP Code</text></g><!--entity Validation--><g class="entity" data-entity="Validation" data-source-line="11" data-uid="ent0007" id="entity_Validation"><rect fill="url(#g1xof4wnf2ir6l1)" height="56.2174" rx="4.1667" ry="4.1667" style="stroke:#EC7211;stroke-width:1.0417;" width="151.119" x="231.7292" y="248.1784"/><rect fill="url(#g1xof4wnf2ir6l1)" height="10.4167" style="stroke:#EC7211;stroke-width:1.0417;" width="15.625" x="362.0148" y="253.3867"/><rect fill="url(#g1xof4wnf2ir6l1)" height="2.0833" style="stroke:#EC7211;stroke-width:1.0417;" width="4.1667" x="359.9315" y="255.4701"/><rect fill="url(#g1xof4wnf2ir6l1)" height="2.0833" style="stroke:#EC7211;stroke-width:1.0417;" width="4.1667" x="359.9315" y="259.6367"/><text fill="#FFFFFF" font-family="'Verdana'" font-size="12.5" lengthAdjust="spacing" textLength="99.0356" x="252.5625" y="285.8228">Input Validation</text></g><!--entity Formatting--><g class="entity" data-entity="Formatting" data-source-line="12" data-uid="ent0008" id="entity_Formatting"><rect fill="url(#g1xof4wnf2ir6l1)" height="56.2174" rx="4.1667" ry="4.1667" style="stroke:#EC7211;stroke-width:1.0417;" width="154.8482" x="229.8646" y="366.8971"/><rect fill="url(#g1xof4wnf2ir6l1)" height="10.4167" style="stroke:#EC7211;stroke-width:1.0417;" width="15.625" x="363.8795" y="372.1055"/><rect fill="url(#g1xof4wnf2ir6l1)" height="2.0833" style="stroke:#EC7211;stroke-width:1.0417;" width="4.1667" x="361.7961" y="374.1888"/><rect fill="url(#g1xof4wnf2ir6l1)" height="2.0833" style="stroke:#EC7211;stroke-width:1.0417;" width="4.1667" x="361.7961" y="378.3555"/><text fill="#FFFFFF" font-family="'Verdana'" font-size="12.5" lengthAdjust="spacing" textLength="102.7649" x="250.6979" y="404.5416">Data Formatting</text></g><!--entity StateMgmt--><g class="entity" data-entity="StateMgmt" data-source-line="13" data-uid="ent0009" id="entity_StateMgmt"><rect fill="url(#g1xof4wnf2ir6l1)" height="56.2174" rx="4.1667" ry="4.1667" style="stroke:#EC7211;stroke-width:1.0417;" width="171.4864" x="221.5521" y="485.6159"/><rect fill="url(#g1xof4wnf2ir6l1)" height="10.4167" style="stroke:#EC7211;stroke-width:1.0417;" width="15.625" x="372.2052" y="490.8242"/><rect fill="url(#g1xof4wnf2ir6l1)" height="2.0833" style="stroke:#EC7211;stroke-width:1.0417;" width="4.1667" x="370.1218" y="492.9076"/><rect fill="url(#g1xof4wnf2ir6l1)" height="2.0833" style="stroke:#EC7211;stroke-width:1.0417;" width="4.1667" x="370.1218" y="497.0742"/><text fill="#FFFFFF" font-family="'Verdana'" font-size="12.5" lengthAdjust="spacing" textLength="119.4031" x="242.3854" y="523.2603">State Management</text></g><!--entity UserPool--><g class="entity" data-entity="UserPool" data-source-line="17" data-uid="ent0011" id="entity_UserPool"><rect fill="url(#g1xof4wnf2ir6l1)" height="56.2174" rx="4.1667" ry="4.1667" style="stroke:#EC7211;stroke-width:1.0417;" width="110.8541" x="251.8646" y="627.2513"/><rect fill="url(#g1xof4wnf2ir6l1)" height="10.4167" style="stroke:#EC7211;stroke-width:1.0417;" width="15.625" x="341.8853" y="632.4596"/><rect fill="url(#g1xof4wnf2ir6l1)" height="2.0833" style="stroke:#EC7211;stroke-width:1.0417;" width="4.1667" x="339.802" y="634.543"/><rect fill="url(#g1xof4wnf2ir6l1)" height="2.0833" style="stroke:#EC7211;stroke-width:1.0417;" width="4.1667" x="339.802" y="638.7096"/><text fill="#FFFFFF" font-family="'Verdana'" font-size="12.5" lengthAdjust="spacing" textLength="58.7708" x="272.6979" y="664.8958">User Pool</text></g><!--entity UserAttributes--><g class="entity" data-entity="UserAttributes" data-source-line="18" data-uid="ent0012" id="entity_UserAttributes"><rect fill="url(#g1xof4wnf2ir6l1)" height="56.2174" rx="4.1667" ry="4.1667" style="stroke:#EC7211;stroke-width:1.0417;" width="146.4742" x="23.6354" y="745.9596"/><rect fill="url(#g1xof4wnf2ir6l1)" height="10.4167" style="stroke:#EC7211;stroke-width:1.0417;" width="15.625" x="149.2763" y="751.168"/><rect fill="url(#g1xof4wnf2ir6l1)" height="2.0833" style="stroke:#EC7211;stroke-width:1.0417;" width="4.1667" x="147.193" y="753.2513"/><rect fill="url(#g1xof4wnf2ir6l1)" height="2.0833" style="stroke:#EC7211;stroke-width:1.0417;" width="4.1667" x="147.193" y="757.418"/><text fill="#FFFFFF" font-family="'Verdana'" font-size="12.5" lengthAdjust="spacing" textLength="94.3909" x="44.4688" y="783.6041">User Attributes</text></g><!--entity Sessions--><g class="entity" data-entity="Sessions" data-source-line="19" data-uid="ent0013" id="entity_Sessions"><rect fill="url(#g1xof4wnf2ir6l1)" height="56.2174" rx="4.1667" ry="4.1667" style="stroke:#EC7211;stroke-width:1.0417;" width="202.0223" x="206.2813" y="745.9596"/><rect fill="url(#g1xof4wnf2ir6l1)" height="10.4167" style="stroke:#EC7211;stroke-width:1.0417;" width="15.625" x="387.4702" y="751.168"/><rect fill="url(#g1xof4wnf2ir6l1)" height="2.0833" style="stroke:#EC7211;stroke-width:1.0417;" width="4.1667" x="385.3869" y="753.2513"/><rect fill="url(#g1xof4wnf2ir6l1)" height="2.0833" style="stroke:#EC7211;stroke-width:1.0417;" width="4.1667" x="385.3869" y="757.418"/><text fill="#FFFFFF" font-family="'Verdana'" font-size="12.5" lengthAdjust="spacing" textLength="149.939" x="227.1146" y="783.6041">Authentication Sessions</text></g><!--entity Tokens--><g class="entity" data-entity="Tokens" data-source-line="20" data-uid="ent0014" id="entity_Tokens"><rect fill="url(#g1xof4wnf2ir6l1)" height="56.2174" rx="4.1667" ry="4.1667" style="stroke:#EC7211;stroke-width:1.0417;" width="124.3856" x="445.0938" y="745.9596"/><rect fill="url(#g1xof4wnf2ir6l1)" height="10.4167" style="stroke:#EC7211;stroke-width:1.0417;" width="15.625" x="548.646" y="751.168"/><rect fill="url(#g1xof4wnf2ir6l1)" height="2.0833" style="stroke:#EC7211;stroke-width:1.0417;" width="4.1667" x="546.5627" y="753.2513"/><rect fill="url(#g1xof4wnf2ir6l1)" height="2.0833" style="stroke:#EC7211;stroke-width:1.0417;" width="4.1667" x="546.5627" y="757.418"/><text fill="#FFFFFF" font-family="'Verdana'" font-size="12.5" lengthAdjust="spacing" textLength="72.3022" x="465.9271" y="783.6041">JWT Tokens</text></g><!--entity OTPGeneration--><g class="entity" data-entity="OTPGeneration" data-source-line="24" data-uid="ent0016" id="entity_OTPGeneration"><rect fill="url(#g1xof4wnf2ir6l1)" height="56.2174" rx="4.1667" ry="4.1667" style="stroke:#EC7211;stroke-width:1.0417;" width="150.8016" x="32.9375" y="887.5951"/><rect fill="url(#g1xof4wnf2ir6l1)" height="10.4167" style="stroke:#EC7211;stroke-width:1.0417;" width="15.625" x="162.9058" y="892.8034"/><rect fill="url(#g1xof4wnf2ir6l1)" height="2.0833" style="stroke:#EC7211;stroke-width:1.0417;" width="4.1667" x="160.8224" y="894.8867"/><rect fill="url(#g1xof4wnf2ir6l1)" height="2.0833" style="stroke:#EC7211;stroke-width:1.0417;" width="4.1667" x="160.8224" y="899.0534"/><text fill="#FFFFFF" font-family="'Verdana'" font-size="12.5" lengthAdjust="spacing" textLength="98.7183" x="53.7708" y="925.2395">OTP Generation</text></g><!--entity WhatsAppSend--><g class="entity" data-entity="WhatsAppSend" data-source-line="25" data-uid="ent0017" id="entity_WhatsAppSend"><rect fill="url(#g1xof4wnf2ir6l1)" height="56.2174" rx="4.1667" ry="4.1667" style="stroke:#EC7211;stroke-width:1.0417;" width="170.6441" x="23.0104" y="1006.3138"/><rect fill="url(#g1xof4wnf2ir6l1)" height="10.4167" style="stroke:#EC7211;stroke-width:1.0417;" width="15.625" x="172.8212" y="1011.5221"/><rect fill="url(#g1xof4wnf2ir6l1)" height="2.0833" style="stroke:#EC7211;stroke-width:1.0417;" width="4.1667" x="170.7379" y="1013.6055"/><rect fill="url(#g1xof4wnf2ir6l1)" height="2.0833" style="stroke:#EC7211;stroke-width:1.0417;" width="4.1667" x="170.7379" y="1017.7721"/><text fill="#FFFFFF" font-family="'Verdana'" font-size="12.5" lengthAdjust="spacing" textLength="118.5608" x="43.8438" y="1043.9583">WhatsApp Sending</text></g><!--entity Verification--><g class="entity" data-entity="Verification" data-source-line="26" data-uid="ent0018" id="entity_Verification"><rect fill="url(#g1xof4wnf2ir6l1)" height="56.2174" rx="4.1667" ry="4.1667" style="stroke:#EC7211;stroke-width:1.0417;" width="152.2725" x="225.9479" y="887.5951"/><rect fill="url(#g1xof4wnf2ir6l1)" height="10.4167" style="stroke:#EC7211;stroke-width:1.0417;" width="15.625" x="357.3871" y="892.8034"/><rect fill="url(#g1xof4wnf2ir6l1)" height="2.0833" style="stroke:#EC7211;stroke-width:1.0417;" width="4.1667" x="355.3038" y="894.8867"/><rect fill="url(#g1xof4wnf2ir6l1)" height="2.0833" style="stroke:#EC7211;stroke-width:1.0417;" width="4.1667" x="355.3038" y="899.0534"/><text fill="#FFFFFF" font-family="'Verdana'" font-size="12.5" lengthAdjust="spacing" textLength="100.1892" x="246.7813" y="925.2395">OTP Verification</text></g><!--entity StatusUpdate--><g class="entity" data-entity="StatusUpdate" data-source-line="27" data-uid="ent0019" id="entity_StatusUpdate"><rect fill="url(#g1xof4wnf2ir6l1)" height="56.2174" rx="4.1667" ry="4.1667" style="stroke:#EC7211;stroke-width:1.0417;" width="147.6705" x="230.3333" y="1006.3138"/><rect fill="url(#g1xof4wnf2ir6l1)" height="10.4167" style="stroke:#EC7211;stroke-width:1.0417;" width="15.625" x="357.1705" y="1011.5221"/><rect fill="url(#g1xof4wnf2ir6l1)" height="2.0833" style="stroke:#EC7211;stroke-width:1.0417;" width="4.1667" x="355.0872" y="1013.6055"/><rect fill="url(#g1xof4wnf2ir6l1)" height="2.0833" style="stroke:#EC7211;stroke-width:1.0417;" width="4.1667" x="355.0872" y="1017.7721"/><text fill="#FFFFFF" font-family="'Verdana'" font-size="12.5" lengthAdjust="spacing" textLength="95.5872" x="251.1667" y="1043.9583">Status Updates</text></g><!--entity SendZen--><g class="entity" data-entity="SendZen" data-source-line="31" data-uid="ent0021" id="entity_SendZen"><rect fill="url(#g1xof4wnf2ir6l1)" height="56.2174" rx="4.1667" ry="4.1667" style="stroke:#EC7211;stroke-width:1.0417;" width="131.4901" x="30.0833" y="1147.9492"/><rect fill="url(#g1xof4wnf2ir6l1)" height="10.4167" style="stroke:#EC7211;stroke-width:1.0417;" width="15.625" x="140.7401" y="1153.1576"/><rect fill="url(#g1xof4wnf2ir6l1)" height="2.0833" style="stroke:#EC7211;stroke-width:1.0417;" width="4.1667" x="138.6567" y="1155.2409"/><rect fill="url(#g1xof4wnf2ir6l1)" height="2.0833" style="stroke:#EC7211;stroke-width:1.0417;" width="4.1667" x="138.6567" y="1159.4076"/><text fill="#FFFFFF" font-family="'Verdana'" font-size="12.5" lengthAdjust="spacing" textLength="79.4067" x="50.9167" y="1185.5937">SendZen API</text></g><!--entity CloudWatch--><g class="entity" data-entity="CloudWatch" data-source-line="35" data-uid="ent0023" id="entity_CloudWatch"><rect fill="url(#g1xof4wnf2ir6l1)" height="56.2174" rx="4.1667" ry="4.1667" style="stroke:#EC7211;stroke-width:1.0417;" width="160.5367" x="370.7708" y="1147.9492"/><rect fill="url(#g1xof4wnf2ir6l1)" height="10.4167" style="stroke:#EC7211;stroke-width:1.0417;" width="15.625" x="510.4742" y="1153.1576"/><rect fill="url(#g1xof4wnf2ir6l1)" height="2.0833" style="stroke:#EC7211;stroke-width:1.0417;" width="4.1667" x="508.3909" y="1155.2409"/><rect fill="url(#g1xof4wnf2ir6l1)" height="2.0833" style="stroke:#EC7211;stroke-width:1.0417;" width="4.1667" x="508.3909" y="1159.4076"/><text fill="#FFFFFF" font-family="'Verdana'" font-size="12.5" lengthAdjust="spacing" textLength="108.4534" x="391.6042" y="1185.5937">CloudWatch Logs</text></g><!--entity UserData--><g class="entity" data-entity="UserData" data-source-line="36" data-uid="ent0024" id="entity_UserData"><rect fill="url(#g1xof4wnf2ir6l1)" height="56.2174" rx="4.1667" ry="4.1667" style="stroke:#EC7211;stroke-width:1.0417;" width="114.3941" x="219.8854" y="1147.9492"/><rect fill="url(#g1xof4wnf2ir6l1)" height="10.4167" style="stroke:#EC7211;stroke-width:1.0417;" width="15.625" x="313.4462" y="1153.1576"/><rect fill="url(#g1xof4wnf2ir6l1)" height="2.0833" style="stroke:#EC7211;stroke-width:1.0417;" width="4.1667" x="311.3629" y="1155.2409"/><rect fill="url(#g1xof4wnf2ir6l1)" height="2.0833" style="stroke:#EC7211;stroke-width:1.0417;" width="4.1667" x="311.3629" y="1159.4076"/><text fill="#FFFFFF" font-family="'Verdana'" font-size="12.5" lengthAdjust="spacing" textLength="62.3108" x="240.7188" y="1185.5937">User Data</text></g><!--link Phone to Validation--><g class="link" data-entity-1="Phone" data-entity-2="Validation" data-source-line="39" data-uid="lnk25" id="link_Phone_Validation"><path d="M175.2292,163.2617 C204.0833,187.7305 241.2434,219.2406 270.0767,243.6885" fill="none" id="Phone-to-Validation" style="stroke:#EC7211;stroke-width:3.125;"/><polygon fill="#EC7211" points="274.8438,247.7305,270.3878,238.4894,270.8712,244.3621,264.9985,244.8455,274.8438,247.7305" style="stroke:#EC7211;stroke-width:3.125;"/></g><!--link Password to Validation--><g class="link" data-entity-1="Password" data-entity-2="Validation" data-source-line="40" data-uid="lnk26" id="link_Password_Validation"><path d="M307.2917,163.2617 C307.2917,187.7305 307.2917,217.0326 307.2917,241.4805" fill="none" id="Password-to-Validation" style="stroke:#EC7211;stroke-width:3.125;"/><polygon fill="#EC7211" points="307.2917,247.7305,311.4583,238.3555,307.2917,242.5221,303.125,238.3555,307.2917,247.7305" style="stroke:#EC7211;stroke-width:3.125;"/></g><!--link OTP to Validation--><g class="link" data-entity-1="OTP" data-entity-2="Validation" data-source-line="41" data-uid="lnk27" id="link_OTP_Validation"><path d="M426.8229,163.2617 C400.7083,187.7305 367.3222,219.0102 341.218,243.4581" fill="none" id="OTP-to-Validation" style="stroke:#EC7211;stroke-width:3.125;"/><polygon fill="#EC7211" points="336.6563,247.7305,346.3471,244.3631,340.4577,244.1702,340.6507,238.2808,336.6563,247.7305" style="stroke:#EC7211;stroke-width:3.125;"/></g><!--link Validation to Formatting--><g class="link" data-entity-1="Validation" data-entity-2="Formatting" data-source-line="43" data-uid="lnk28" id="link_Validation_Formatting"><path d="M307.2917,304.6784 C307.2917,323.2617 307.2917,341.5013 307.2917,360.1367" fill="none" id="Validation-to-Formatting" style="stroke:#EC7211;stroke-width:3.125;"/><polygon fill="#EC7211" points="307.2917,366.3867,311.4583,357.0117,307.2917,361.1784,303.125,357.0117,307.2917,366.3867" style="stroke:#EC7211;stroke-width:3.125;"/></g><!--link Formatting to StateMgmt--><g class="link" data-entity-1="Formatting" data-entity-2="StateMgmt" data-source-line="44" data-uid="lnk29" id="link_Formatting_StateMgmt"><path d="M307.2917,423.3867 C307.2917,441.9701 307.2917,460.2201 307.2917,478.8555" fill="none" id="Formatting-to-StateMgmt" style="stroke:#EC7211;stroke-width:3.125;"/><polygon fill="#EC7211" points="307.2917,485.1055,311.4583,475.7305,307.2917,479.8971,303.125,475.7305,307.2917,485.1055" style="stroke:#EC7211;stroke-width:3.125;"/></g><!--link StateMgmt to UserPool--><g class="link" data-entity-1="StateMgmt" data-entity-2="UserPool" data-source-line="45" data-uid="lnk30" id="link_StateMgmt_UserPool"><path d="M307.2917,542.3346 C307.2917,566.8034 307.2917,596.1055 307.2917,620.5534" fill="none" id="StateMgmt-to-UserPool" style="stroke:#EC7211;stroke-width:3.125;"/><polygon fill="#EC7211" points="307.2917,626.8034,311.4583,617.4284,307.2917,621.5951,303.125,617.4284,307.2917,626.8034" style="stroke:#EC7211;stroke-width:3.125;"/></g><!--link UserPool to UserAttributes--><g class="link" data-entity-1="UserPool" data-entity-2="UserAttributes" data-source-line="47" data-uid="lnk31" id="link_UserPool_UserAttributes"><path d="M257.6875,683.8867 C224.1563,702.4805 185.5076,723.8974 151.9763,742.4912" fill="none" id="UserPool-to-UserAttributes" style="stroke:#EC7211;stroke-width:3.125;"/><polygon fill="#EC7211" points="146.5104,745.5221,156.7299,744.6196,151.0653,742.9964,152.6886,737.3318,146.5104,745.5221" style="stroke:#EC7211;stroke-width:3.125;"/></g><!--link UserPool to Sessions--><g class="link" data-entity-1="UserPool" data-entity-2="Sessions" data-source-line="48" data-uid="lnk32" id="link_UserPool_Sessions"><path d="M307.2917,683.7409 C307.2917,702.3242 307.2917,720.5742 307.2917,739.1992" fill="none" id="UserPool-to-Sessions" style="stroke:#EC7211;stroke-width:3.125;"/><polygon fill="#EC7211" points="307.2917,745.4492,311.4583,736.0742,307.2917,740.2409,303.125,736.0742,307.2917,745.4492" style="stroke:#EC7211;stroke-width:3.125;"/></g><!--link UserPool to Tokens--><g class="link" data-entity-1="UserPool" data-entity-2="Tokens" data-source-line="49" data-uid="lnk33" id="link_UserPool_Tokens"><path d="M354.1875,683.7409 C386.0521,702.3242 422.6526,723.6764 454.6006,742.3014" fill="none" id="UserPool-to-Tokens" style="stroke:#EC7211;stroke-width:3.125;"/><polygon fill="#EC7211" points="460,745.4492,453.9993,737.1279,455.5005,742.8261,449.8023,744.3272,460,745.4492" style="stroke:#EC7211;stroke-width:3.125;"/></g><!--link UserAttributes to OTPGeneration--><g class="link" data-entity-1="UserAttributes" data-entity-2="OTPGeneration" data-source-line="51" data-uid="lnk34" id="link_UserAttributes_OTPGeneration"><path d="M99.1354,802.6888 C101.1458,827.1471 103.5503,856.4807 105.5607,880.9286" fill="none" id="UserAttributes-to-OTPGeneration" style="stroke:#EC7211;stroke-width:3.125;"/><polygon fill="#EC7211" points="106.0729,887.1576,109.4572,877.4726,105.6461,881.9667,101.1519,878.1556,106.0729,887.1576" style="stroke:#EC7211;stroke-width:3.125;"/></g><!--link OTPGeneration to WhatsAppSend--><g class="link" data-entity-1="OTPGeneration" data-entity-2="WhatsAppSend" data-source-line="52" data-uid="lnk35" id="link_OTPGeneration_WhatsAppSend"><path d="M108.3333,944.0951 C108.3333,962.6784 108.3333,980.918 108.3333,999.5534" fill="none" id="OTPGeneration-to-WhatsAppSend" style="stroke:#EC7211;stroke-width:3.125;"/><polygon fill="#EC7211" points="108.3333,1005.8034,112.5,996.4284,108.3333,1000.5951,104.1667,996.4284,108.3333,1005.8034" style="stroke:#EC7211;stroke-width:3.125;"/></g><!--link WhatsAppSend to SendZen--><g class="link" data-entity-1="WhatsAppSend" data-entity-2="SendZen" data-source-line="53" data-uid="lnk36" id="link_WhatsAppSend_SendZen"><path d="M105.8646,1063.0326 C103.6771,1087.5013 101.0466,1116.8283 98.8591,1141.2762" fill="none" id="WhatsAppSend-to-SendZen" style="stroke:#EC7211;stroke-width:3.125;"/><polygon fill="#EC7211" points="98.3021,1147.5013,103.2877,1138.5349,98.7662,1142.3137,94.9875,1137.7923,98.3021,1147.5013" style="stroke:#EC7211;stroke-width:3.125;"/></g><!--link Sessions to Verification--><g class="link" data-entity-1="Sessions" data-entity-2="Verification" data-source-line="55" data-uid="lnk37" id="link_Sessions_Verification"><path d="M306.2604,802.6888 C305.3542,827.1471 304.2524,856.4639 303.3461,880.9118" fill="none" id="Sessions-to-Verification" style="stroke:#EC7211;stroke-width:3.125;"/><polygon fill="#EC7211" points="303.1146,887.1576,307.6257,877.9433,303.3075,881.9528,299.2981,877.6346,303.1146,887.1576" style="stroke:#EC7211;stroke-width:3.125;"/></g><!--link Verification to StatusUpdate--><g class="link" data-entity-1="Verification" data-entity-2="StatusUpdate" data-source-line="56" data-uid="lnk38" id="link_Verification_StatusUpdate"><path d="M302.5729,944.0951 C302.9063,962.6784 303.232,980.919 303.5653,999.5544" fill="none" id="Verification-to-StatusUpdate" style="stroke:#EC7211;stroke-width:3.125;"/><polygon fill="#EC7211" points="303.6771,1005.8034,307.6754,996.3554,303.5839,1000.5959,299.3434,996.5044,303.6771,1005.8034" style="stroke:#EC7211;stroke-width:3.125;"/></g><!--link StatusUpdate to UserData--><g class="link" data-entity-1="StatusUpdate" data-entity-2="UserData" data-source-line="57" data-uid="lnk39" id="link_StatusUpdate_UserData"><path d="M298.8125,1063.0326 C294.0729,1087.5013 288.3562,1116.9176 283.6166,1141.3655" fill="none" id="StatusUpdate-to-UserData" style="stroke:#EC7211;stroke-width:3.125;"/><polygon fill="#EC7211" points="282.4271,1147.5013,288.3019,1139.0907,283.4183,1142.3882,280.1208,1137.5047,282.4271,1147.5013" style="stroke:#EC7211;stroke-width:3.125;"/></g><!--link OTPGeneration to CloudWatch--><g class="link" data-entity-1="OTPGeneration" data-entity-2="CloudWatch" data-source-line="59" data-uid="lnk40" id="link_OTPGeneration_CloudWatch"><path d="M184.125,938.4909 C266.6458,962.4492 388.0104,998.6055 395.8333,1006.3138 C434.6771,1044.6055 445.6245,1104.3714 449.0412,1141.4547" fill="none" id="OTPGeneration-to-CloudWatch" style="stroke:#EC7211;stroke-width:3.125;"/><polygon fill="#EC7211" points="449.6146,1147.6784,452.9036,1137.9606,449.1367,1142.492,444.6054,1138.7252,449.6146,1147.6784" style="stroke:#EC7211;stroke-width:3.125;"/></g><!--link WhatsAppSend to CloudWatch--><g class="link" data-entity-1="WhatsAppSend" data-entity-2="CloudWatch" data-source-line="60" data-uid="lnk41" id="link_WhatsAppSend_CloudWatch"><path d="M153.4167,1062.9805 C171.1875,1072.4805 192.1875,1082.0951 212.5,1087.5326 C242.5208,1095.5742 323.0833,1084.7096 352.0833,1095.8659 C380.8333,1106.918 403.2823,1125.1616 421.7614,1143.4116" fill="none" id="WhatsAppSend-to-CloudWatch" style="stroke:#EC7211;stroke-width:3.125;"/><polygon fill="#EC7211" points="426.2083,1147.8034,422.4658,1138.2511,422.5026,1144.1436,416.6101,1144.1804,426.2083,1147.8034" style="stroke:#EC7211;stroke-width:3.125;"/></g><!--link Verification to CloudWatch--><g class="link" data-entity-1="Verification" data-entity-2="CloudWatch" data-source-line="61" data-uid="lnk42" id="link_Verification_CloudWatch"><path d="M378.6875,940.6992 C409.7708,954.6159 442.5208,975.6263 460.4167,1006.3138 C486.0521,1050.2826 474.5422,1106.1847 463.2297,1141.4972" fill="none" id="Verification-to-CloudWatch" style="stroke:#EC7211;stroke-width:3.125;"/><polygon fill="#EC7211" points="461.3229,1147.4492,468.1511,1139.7923,462.9119,1142.4892,460.215,1137.25,461.3229,1147.4492" style="stroke:#EC7211;stroke-width:3.125;"/></g><!--link StatusUpdate to CloudWatch--><g class="link" data-entity-1="StatusUpdate" data-entity-2="CloudWatch" data-source-line="62" data-uid="lnk43" id="link_StatusUpdate_CloudWatch"><path d="M333.1875,1063.0326 C358.9375,1087.5013 391.8234,1118.7482 417.5525,1143.1961" fill="none" id="StatusUpdate-to-CloudWatch" style="stroke:#EC7211;stroke-width:3.125;"/><polygon fill="#EC7211" points="422.0833,1147.5013,418.1573,1138.023,418.3077,1143.9137,412.417,1144.0641,422.0833,1147.5013" style="stroke:#EC7211;stroke-width:3.125;"/></g><!--SRC=[RLBBRjim4BppAxQv-nS226bIf4XI0NPYe4KEQsiZ4v58WLhL1Oh-U_aI7t5kd9bTphw-y8b60ZpF6srGzIHOya3m5HdXRj1d8IOylcDFSFKyau5xDIry1Ny5mA_sf1N1qp8UoBm2pk09h-0ydxNf0Xk14txiMhZH7Nd10l6lCBWpMZ6f3bgZZpJFKlNHoRl22mwoGvPQ-VGCNKYeM9iHcMsYZyZGHMmPcU0HbJKRIR4FyUHZFt9LIRFVsZ9x9Ld72dpphTQ3ptB8WQGqp4OU5gOvwPboKSrY9wrO7dt1i7NjQHMYL-3YlkztiDFl5ANmh6fxmF7GuUMCt6Y_aIAJ9sIfpBYO_GbvRgR9MgfkdT9AEcxzw8MCV8l5Xc4Nn3hCnJOwsGt4fWCLcAhYspzCHk5WNSrlQQkE5Jl3dwIWQU_Z73okShTixxAdc74pwANR8nzFyA3xO9kvj0rt2saF3hWlmxLkDjVbuQot-P5tC_X0YVpsKd5S-UcLV5FfvVbqDM9z9ReubafBfr6nyIf4dUcbUkKLydgrx194kx01iVg68PIxBq7gDgsz1Aavlu5FQYasTr59eLqu5jg5NzR-0m00]--></g></svg>