<svg xmlns="http://www.w3.org/2000/svg" xmlns:xlink="http://www.w3.org/1999/xlink" contentStyleType="text/css" data-diagram-type="DESCRIPTION" height="803.125px" preserveAspectRatio="none" style="width:762px;height:803px;" version="1.1" viewBox="0 0 762 803" width="762.5px" zoomAndPan="magnify"><title>Frontend Component Interactions</title><defs><linearGradient id="gki7le8o6mjb10" x1="50%" x2="50%" y1="0%" y2="100%"><stop offset="0%" stop-color="#FFFFFF"/><stop offset="100%" stop-color="#EEEEEE"/></linearGradient><linearGradient id="gki7le8o6mjb11" x1="50%" x2="50%" y1="0%" y2="100%"><stop offset="0%" stop-color="#F18E3E"/><stop offset="100%" stop-color="#EC7211"/></linearGradient></defs><g><g class="title" data-source-line="2"><rect fill="url(#gki7le8o6mjb10)" height="45.0846" rx="4.1667" ry="4.1667" style="stroke:#EEEEEE;stroke-width:1.0417;" width="419.1081" x="164.4043" y="5.2083"/><text fill="#EC7211" font-family="'Verdana'" font-size="20.8333" font-weight="bold" lengthAdjust="spacing" textLength="398.2747" x="174.821" y="34.963">Frontend Component Interactions</text></g><!--cluster Frontend Components--><g class="cluster" data-entity="Frontend Components" data-source-line="4" data-uid="ent0002" id="cluster_Frontend Components"><path d="M10.4167,62.793 L175.6042,62.793 A6.25,6.25 0 0 1 179.7709,66.9596 L187.0626,94.0104 L751.0417,94.0104 A4.1667,4.1667 0 0 1 755.2083,98.1771 L755.2083,293.9701 A4.1667,4.1667 0 0 1 751.0417,298.1367 L10.4167,298.1367 A4.1667,4.1667 0 0 1 6.25,293.9701 L6.25,66.9596 A4.1667,4.1667 0 0 1 10.4167,62.793" fill="none" style="stroke:#4E5D6C;stroke-width:2.0833;"/><line style="stroke:#4E5D6C;stroke-width:2.0833;" x1="6.25" x2="187.0626" y1="94.0104" y2="94.0104"/><text fill="#4E5D6C" font-family="'Verdana'" font-size="12.5" font-weight="bold" lengthAdjust="spacing" textLength="156.8542" x="15.625" y="81.6874">Frontend Components</text></g><!--cluster Authentication Logic--><g class="cluster" data-entity="Authentication Logic" data-source-line="12" data-uid="ent0008" id="cluster_Authentication Logic"><path d="M29.1667,323.1367 L183.7219,323.1367 A6.25,6.25 0 0 1 187.8886,327.3034 L195.1803,354.3542 L378.125,354.3542 A4.1667,4.1667 0 0 1 382.2917,358.5208 L382.2917,554.3242 A4.1667,4.1667 0 0 1 378.125,558.4909 L29.1667,558.4909 A4.1667,4.1667 0 0 1 25,554.3242 L25,327.3034 A4.1667,4.1667 0 0 1 29.1667,323.1367" fill="none" style="stroke:#4E5D6C;stroke-width:2.0833;"/><line style="stroke:#4E5D6C;stroke-width:2.0833;" x1="25" x2="195.1803" y1="354.3542" y2="354.3542"/><text fill="#4E5D6C" font-family="'Verdana'" font-size="12.5" font-weight="bold" lengthAdjust="spacing" textLength="146.2219" x="34.375" y="342.0312">Authentication Logic</text></g><!--cluster AWS Services--><g class="cluster" data-entity="AWS Services" data-source-line="18" data-uid="ent0012" id="cluster_AWS Services"><path d="M411.4583,441.8555 L516.0136,441.8555 A6.25,6.25 0 0 1 520.1803,446.0221 L527.4719,473.0729 L603.125,473.0729 A4.1667,4.1667 0 0 1 607.2917,477.2396 L607.2917,791.7617 A4.1667,4.1667 0 0 1 603.125,795.9284 L411.4583,795.9284 A4.1667,4.1667 0 0 1 407.2917,791.7617 L407.2917,446.0221 A4.1667,4.1667 0 0 1 411.4583,441.8555" fill="none" style="stroke:#4E5D6C;stroke-width:2.0833;"/><line style="stroke:#4E5D6C;stroke-width:2.0833;" x1="407.2917" x2="527.4719" y1="473.0729" y2="473.0729"/><text fill="#4E5D6C" font-family="'Verdana'" font-size="12.5" font-weight="bold" lengthAdjust="spacing" textLength="96.2219" x="416.6667" y="460.7499">AWS Services</text></g><!--entity App--><g class="entity" data-entity="App" data-source-line="5" data-uid="ent0003" id="entity_App"><rect fill="url(#gki7le8o6mjb11)" height="56.2174" rx="4.1667" ry="4.1667" style="stroke:#EC7211;stroke-width:1.0417;" width="106.0872" x="315.7083" y="106.543"/><rect fill="url(#gki7le8o6mjb11)" height="10.4167" style="stroke:#EC7211;stroke-width:1.0417;" width="15.625" x="400.9622" y="111.7513"/><rect fill="url(#gki7le8o6mjb11)" height="2.0833" style="stroke:#EC7211;stroke-width:1.0417;" width="4.1667" x="398.8789" y="113.8346"/><rect fill="url(#gki7le8o6mjb11)" height="2.0833" style="stroke:#EC7211;stroke-width:1.0417;" width="4.1667" x="398.8789" y="118.0013"/><text fill="#FFFFFF" font-family="'Verdana'" font-size="12.5" lengthAdjust="spacing" textLength="54.0039" x="336.5417" y="144.1874">page.tsx</text></g><!--entity SignupForm--><g class="entity" data-entity="SignupForm" data-source-line="6" data-uid="ent0004" id="entity_SignupForm"><rect fill="url(#gki7le8o6mjb11)" height="56.2174" rx="4.1667" ry="4.1667" style="stroke:#EC7211;stroke-width:1.0417;" width="150.1424" x="203.0521" y="225.2617"/><rect fill="url(#gki7le8o6mjb11)" height="10.4167" style="stroke:#EC7211;stroke-width:1.0417;" width="15.625" x="332.3612" y="230.4701"/><rect fill="url(#gki7le8o6mjb11)" height="2.0833" style="stroke:#EC7211;stroke-width:1.0417;" width="4.1667" x="330.2778" y="232.5534"/><rect fill="url(#gki7le8o6mjb11)" height="2.0833" style="stroke:#EC7211;stroke-width:1.0417;" width="4.1667" x="330.2778" y="236.7201"/><text fill="#FFFFFF" font-family="'Verdana'" font-size="12.5" lengthAdjust="spacing" textLength="98.0591" x="223.8854" y="262.9062">SignupForm.tsx</text></g><!--entity LoginForm--><g class="entity" data-entity="LoginForm" data-source-line="7" data-uid="ent0005" id="entity_LoginForm"><rect fill="url(#gki7le8o6mjb11)" height="56.2174" rx="4.1667" ry="4.1667" style="stroke:#EC7211;stroke-width:1.0417;" width="140.9627" x="389.9375" y="225.2617"/><rect fill="url(#gki7le8o6mjb11)" height="10.4167" style="stroke:#EC7211;stroke-width:1.0417;" width="15.625" x="510.0669" y="230.4701"/><rect fill="url(#gki7le8o6mjb11)" height="2.0833" style="stroke:#EC7211;stroke-width:1.0417;" width="4.1667" x="507.9836" y="232.5534"/><rect fill="url(#gki7le8o6mjb11)" height="2.0833" style="stroke:#EC7211;stroke-width:1.0417;" width="4.1667" x="507.9836" y="236.7201"/><text fill="#FFFFFF" font-family="'Verdana'" font-size="12.5" lengthAdjust="spacing" textLength="88.8794" x="410.7708" y="262.9062">LoginForm.tsx</text></g><!--entity OTPForm--><g class="entity" data-entity="OTPForm" data-source-line="8" data-uid="ent0006" id="entity_OTPForm"><rect fill="url(#gki7le8o6mjb11)" height="56.2174" rx="4.1667" ry="4.1667" style="stroke:#EC7211;stroke-width:1.0417;" width="171.0836" x="567.5833" y="225.2617"/><rect fill="url(#gki7le8o6mjb11)" height="10.4167" style="stroke:#EC7211;stroke-width:1.0417;" width="15.625" x="717.8336" y="230.4701"/><rect fill="url(#gki7le8o6mjb11)" height="2.0833" style="stroke:#EC7211;stroke-width:1.0417;" width="4.1667" x="715.7502" y="232.5534"/><rect fill="url(#gki7le8o6mjb11)" height="2.0833" style="stroke:#EC7211;stroke-width:1.0417;" width="4.1667" x="715.7502" y="236.7201"/><text fill="#FFFFFF" font-family="'Verdana'" font-size="12.5" lengthAdjust="spacing" textLength="119.0002" x="588.4167" y="262.9062">OTPVerification.tsx</text></g><!--entity Dashboard--><g class="entity" data-entity="Dashboard" data-source-line="9" data-uid="ent0007" id="entity_Dashboard"><rect fill="url(#gki7le8o6mjb11)" height="56.2174" rx="4.1667" ry="4.1667" style="stroke:#EC7211;stroke-width:1.0417;" width="142.9036" x="23.3437" y="225.2617"/><rect fill="url(#gki7le8o6mjb11)" height="10.4167" style="stroke:#EC7211;stroke-width:1.0417;" width="15.625" x="145.4141" y="230.4701"/><rect fill="url(#gki7le8o6mjb11)" height="2.0833" style="stroke:#EC7211;stroke-width:1.0417;" width="4.1667" x="143.3307" y="232.5534"/><rect fill="url(#gki7le8o6mjb11)" height="2.0833" style="stroke:#EC7211;stroke-width:1.0417;" width="4.1667" x="143.3307" y="236.7201"/><text fill="#FFFFFF" font-family="'Verdana'" font-size="12.5" lengthAdjust="spacing" textLength="90.8203" x="44.1771" y="262.9062">Dashboard.tsx</text></g><!--entity AuthService--><g class="entity" data-entity="AuthService" data-source-line="13" data-uid="ent0009" id="entity_AuthService"><rect fill="url(#gki7le8o6mjb11)" height="56.2174" rx="4.1667" ry="4.1667" style="stroke:#EC7211;stroke-width:1.0417;" width="142.0736" x="223.75" y="366.8867"/><rect fill="url(#gki7le8o6mjb11)" height="10.4167" style="stroke:#EC7211;stroke-width:1.0417;" width="15.625" x="344.9902" y="372.0951"/><rect fill="url(#gki7le8o6mjb11)" height="2.0833" style="stroke:#EC7211;stroke-width:1.0417;" width="4.1667" x="342.9069" y="374.1784"/><rect fill="url(#gki7le8o6mjb11)" height="2.0833" style="stroke:#EC7211;stroke-width:1.0417;" width="4.1667" x="342.9069" y="378.3451"/><text fill="#FFFFFF" font-family="'Verdana'" font-size="12.5" lengthAdjust="spacing" textLength="89.9902" x="244.5833" y="404.5312">authService.ts</text></g><!--entity ErrorHandler--><g class="entity" data-entity="ErrorHandler" data-source-line="14" data-uid="ent0010" id="entity_ErrorHandler"><rect fill="url(#gki7le8o6mjb11)" height="56.2174" rx="4.1667" ry="4.1667" style="stroke:#EC7211;stroke-width:1.0417;" width="136.2386" x="41.2604" y="485.6055"/><rect fill="url(#gki7le8o6mjb11)" height="10.4167" style="stroke:#EC7211;stroke-width:1.0417;" width="15.625" x="156.6657" y="490.8138"/><rect fill="url(#gki7le8o6mjb11)" height="2.0833" style="stroke:#EC7211;stroke-width:1.0417;" width="4.1667" x="154.5824" y="492.8971"/><rect fill="url(#gki7le8o6mjb11)" height="2.0833" style="stroke:#EC7211;stroke-width:1.0417;" width="4.1667" x="154.5824" y="497.0638"/><text fill="#FFFFFF" font-family="'Verdana'" font-size="12.5" lengthAdjust="spacing" textLength="84.1553" x="62.0938" y="523.2499">Error Handler</text></g><!--entity Validation--><g class="entity" data-entity="Validation" data-source-line="15" data-uid="ent0011" id="entity_Validation"><rect fill="url(#gki7le8o6mjb11)" height="56.2174" rx="4.1667" ry="4.1667" style="stroke:#EC7211;stroke-width:1.0417;" width="151.119" x="214.0208" y="485.6055"/><rect fill="url(#gki7le8o6mjb11)" height="10.4167" style="stroke:#EC7211;stroke-width:1.0417;" width="15.625" x="344.3065" y="490.8138"/><rect fill="url(#gki7le8o6mjb11)" height="2.0833" style="stroke:#EC7211;stroke-width:1.0417;" width="4.1667" x="342.2231" y="492.8971"/><rect fill="url(#gki7le8o6mjb11)" height="2.0833" style="stroke:#EC7211;stroke-width:1.0417;" width="4.1667" x="342.2231" y="497.0638"/><text fill="#FFFFFF" font-family="'Verdana'" font-size="12.5" lengthAdjust="spacing" textLength="99.0356" x="234.8542" y="523.2499">Input Validation</text></g><!--entity Cognito--><g class="entity" data-entity="Cognito" data-source-line="19" data-uid="ent0013" id="entity_Cognito"><rect fill="url(#gki7le8o6mjb11)" height="56.2174" rx="4.1667" ry="4.1667" style="stroke:#EC7211;stroke-width:1.0417;" width="133.1563" x="432.375" y="485.6055"/><rect fill="url(#gki7le8o6mjb11)" height="10.4167" style="stroke:#EC7211;stroke-width:1.0417;" width="15.625" x="544.698" y="490.8138"/><rect fill="url(#gki7le8o6mjb11)" height="2.0833" style="stroke:#EC7211;stroke-width:1.0417;" width="4.1667" x="542.6147" y="492.8971"/><rect fill="url(#gki7le8o6mjb11)" height="2.0833" style="stroke:#EC7211;stroke-width:1.0417;" width="4.1667" x="542.6147" y="497.0638"/><text fill="#FFFFFF" font-family="'Verdana'" font-size="12.5" lengthAdjust="spacing" textLength="81.073" x="453.2083" y="523.2499">AWS Cognito</text></g><!--entity Lambda--><g class="entity" data-entity="Lambda" data-source-line="20" data-uid="ent0014" id="entity_Lambda"><rect fill="url(#gki7le8o6mjb11)" height="56.2174" rx="4.1667" ry="4.1667" style="stroke:#EC7211;stroke-width:1.0417;" width="166.7501" x="423.9167" y="604.3242"/><rect fill="url(#gki7le8o6mjb11)" height="10.4167" style="stroke:#EC7211;stroke-width:1.0417;" width="15.625" x="569.8334" y="609.5326"/><rect fill="url(#gki7le8o6mjb11)" height="2.0833" style="stroke:#EC7211;stroke-width:1.0417;" width="4.1667" x="567.7501" y="611.6159"/><rect fill="url(#gki7le8o6mjb11)" height="2.0833" style="stroke:#EC7211;stroke-width:1.0417;" width="4.1667" x="567.7501" y="615.7826"/><text fill="#FFFFFF" font-family="'Verdana'" font-size="12.5" lengthAdjust="spacing" textLength="114.6667" x="444.75" y="641.9687">Lambda Functions</text></g><!--entity SendZen--><g class="entity" data-entity="SendZen" data-source-line="21" data-uid="ent0015" id="entity_SendZen"><rect fill="url(#gki7le8o6mjb11)" height="56.2174" rx="4.1667" ry="4.1667" style="stroke:#EC7211;stroke-width:1.0417;" width="131.4901" x="441.5417" y="723.043"/><rect fill="url(#gki7le8o6mjb11)" height="10.4167" style="stroke:#EC7211;stroke-width:1.0417;" width="15.625" x="552.1984" y="728.2513"/><rect fill="url(#gki7le8o6mjb11)" height="2.0833" style="stroke:#EC7211;stroke-width:1.0417;" width="4.1667" x="550.1151" y="730.3346"/><rect fill="url(#gki7le8o6mjb11)" height="2.0833" style="stroke:#EC7211;stroke-width:1.0417;" width="4.1667" x="550.1151" y="734.5013"/><text fill="#FFFFFF" font-family="'Verdana'" font-size="12.5" lengthAdjust="spacing" textLength="79.4067" x="462.375" y="760.6874">SendZen API</text></g><!--link App to SignupForm--><g class="link" data-entity-1="App" data-entity-2="SignupForm" data-source-line="24" data-uid="lnk16" id="link_App_SignupForm"><path d="M347.5,163.0326 C333.0625,181.6159 317.8659,201.1805 303.3867,219.8159" fill="none" id="App-to-SignupForm" style="stroke:#EC7211;stroke-width:3.125;"/><polygon fill="#EC7211" points="299.5521,224.7513,308.5943,219.9047,302.7476,220.6385,302.0138,214.7918,299.5521,224.7513" style="stroke:#EC7211;stroke-width:3.125;"/></g><!--link App to LoginForm--><g class="link" data-entity-1="App" data-entity-2="LoginForm" data-source-line="25" data-uid="lnk17" id="link_App_LoginForm"><path d="M390.2396,163.0326 C404.8438,181.6159 420.2318,201.2019 434.8776,219.8373" fill="none" id="App-to-LoginForm" style="stroke:#EC7211;stroke-width:3.125;"/><polygon fill="#EC7211" points="438.7396,224.7513,436.2226,214.8056,435.5213,220.6563,429.6706,219.9549,438.7396,224.7513" style="stroke:#EC7211;stroke-width:3.125;"/></g><!--link App to OTPForm--><g class="link" data-entity-1="App" data-entity-2="OTPForm" data-source-line="26" data-uid="lnk18" id="link_App_OTPForm"><path d="M422.2396,157.6263 C468.7396,176.6992 530.5198,202.0352 580.5615,222.5664" fill="none" id="App-to-OTPForm" style="stroke:#EC7211;stroke-width:3.125;"/><polygon fill="#EC7211" points="586.3438,224.9388,579.2519,217.5254,581.5252,222.9618,576.0888,225.2351,586.3438,224.9388" style="stroke:#EC7211;stroke-width:3.125;"/></g><!--link App to Dashboard--><g class="link" data-entity-1="App" data-entity-2="Dashboard" data-source-line="27" data-uid="lnk19" id="link_App_Dashboard"><path d="M315.2813,158.4596 C270.5833,177.4805 212.469,202.2191 164.969,222.4482" fill="none" id="App-to-Dashboard" style="stroke:#EC7211;stroke-width:3.125;"/><polygon fill="#EC7211" points="159.2188,224.8971,169.4767,225.0573,164.0106,222.8564,166.2115,217.3903,159.2188,224.8971" style="stroke:#EC7211;stroke-width:3.125;"/></g><!--link SignupForm to AuthService--><g class="link" data-entity-1="SignupForm" data-entity-2="AuthService" data-source-line="29" data-uid="lnk20" id="link_SignupForm_AuthService"><path d="M281.4167,281.9805 C284.3438,306.4492 287.8403,335.7956 290.7674,360.2435" fill="none" id="SignupForm-to-AuthService" style="stroke:#EC7211;stroke-width:3.125;"/><polygon fill="#EC7211" points="291.5104,366.4492,294.5331,356.6454,290.8913,361.2778,286.2588,357.636,291.5104,366.4492" style="stroke:#EC7211;stroke-width:3.125;"/></g><!--link LoginForm to AuthService--><g class="link" data-entity-1="LoginForm" data-entity-2="AuthService" data-source-line="30" data-uid="lnk21" id="link_LoginForm_AuthService"><path d="M427.6979,281.9805 C398.6563,306.4492 361.2376,337.9737 332.2271,362.4216" fill="none" id="LoginForm-to-AuthService" style="stroke:#EC7211;stroke-width:3.125;"/><polygon fill="#EC7211" points="327.4479,366.4492,337.3018,363.594,331.4306,363.0929,331.9317,357.2217,327.4479,366.4492" style="stroke:#EC7211;stroke-width:3.125;"/></g><!--link OTPForm to AuthService--><g class="link" data-entity-1="OTPForm" data-entity-2="AuthService" data-source-line="31" data-uid="lnk22" id="link_OTPForm_AuthService"><path d="M601.5625,281.8659 C584.9792,290.2409 566.3854,299.1576 548.9583,306.4701 C488.3958,331.9076 423.5496,353.9189 372.0808,370.2939" fill="none" id="OTPForm-to-AuthService" style="stroke:#EC7211;stroke-width:3.125;"/><polygon fill="#EC7211" points="366.125,372.1888,376.322,373.317,371.0882,370.6097,373.7955,365.3759,366.125,372.1888" style="stroke:#EC7211;stroke-width:3.125;"/></g><!--link AuthService to Validation--><g class="link" data-entity-1="AuthService" data-entity-2="Validation" data-source-line="33" data-uid="lnk23" id="link_AuthService_Validation"><path d="M293.5729,423.3867 C292.7396,441.9701 291.9252,460.2263 291.0919,478.8513" fill="none" id="AuthService-to-Validation" style="stroke:#EC7211;stroke-width:3.125;"/><polygon fill="#EC7211" points="290.8125,485.0951,295.394,475.9157,291.0453,479.8919,287.069,475.5432,290.8125,485.0951" style="stroke:#EC7211;stroke-width:3.125;"/></g><!--link AuthService to ErrorHandler--><g class="link" data-entity-1="AuthService" data-entity-2="ErrorHandler" data-source-line="34" data-uid="lnk24" id="link_AuthService_ErrorHandler"><path d="M223.4896,419.2826 C213.9167,423.4805 204.4375,428.2305 195.8333,433.5221 C172.7813,447.7096 154.6985,464.0389 138.4589,480.7577" fill="none" id="AuthService-to-ErrorHandler" style="stroke:#EC7211;stroke-width:3.125;"/><polygon fill="#EC7211" points="134.1042,485.2409,143.625,481.4192,137.7331,481.5049,137.6474,475.613,134.1042,485.2409" style="stroke:#EC7211;stroke-width:3.125;"/></g><!--link AuthService to Cognito--><g class="link" data-entity-1="AuthService" data-entity-2="Cognito" data-source-line="35" data-uid="lnk25" id="link_AuthService_Cognito"><path d="M362.7708,423.6263 C369.4479,426.793 376.0521,430.1159 382.2917,433.5221 C410.2083,448.793 434.7841,465.3049 457.2112,481.4715" fill="none" id="AuthService-to-Cognito" style="stroke:#EC7211;stroke-width:3.125;"/><polygon fill="#EC7211" points="462.2813,485.1263,457.1127,476.2641,458.0562,482.0807,452.2397,483.0242,462.2813,485.1263" style="stroke:#EC7211;stroke-width:3.125;"/></g><!--link Cognito to Lambda--><g class="link" data-entity-1="Cognito" data-entity-2="Lambda" data-source-line="37" data-uid="lnk26" id="link_Cognito_Lambda"><path d="M500.9167,542.1055 C502.2396,560.6888 503.5435,578.9443 504.8769,597.5797" fill="none" id="Cognito-to-Lambda" style="stroke:#EC7211;stroke-width:3.125;"/><polygon fill="#EC7211" points="505.3229,603.8138,508.8099,594.1653,504.9512,598.6187,500.4978,594.7601,505.3229,603.8138" style="stroke:#EC7211;stroke-width:3.125;"/></g><!--link Lambda to SendZen--><g class="link" data-entity-1="Lambda" data-entity-2="SendZen" data-source-line="38" data-uid="lnk27" id="link_Lambda_SendZen"><path d="M507.2917,660.8242 C507.2917,679.4076 507.2917,697.6471 507.2917,716.2826" fill="none" id="Lambda-to-SendZen" style="stroke:#EC7211;stroke-width:3.125;"/><polygon fill="#EC7211" points="507.2917,722.5326,511.4583,713.1576,507.2917,717.3242,503.125,713.1576,507.2917,722.5326" style="stroke:#EC7211;stroke-width:3.125;"/></g><!--link ErrorHandler to Dashboard--><g class="link" data-entity-1="ErrorHandler" data-entity-2="Dashboard" data-source-line="40" data-uid="lnk28" id="link_ErrorHandler_Dashboard"><path d="M107.8229,485.1159 C105.0104,435.3346 99.4667,337.2726 96.6751,287.8039" fill="none" id="ErrorHandler-to-Dashboard" style="stroke:#EC7211;stroke-width:3.125;"/><polygon fill="#EC7211" points="96.3229,281.5638,92.6911,291.1587,96.6164,286.7639,101.0112,290.6891,96.3229,281.5638" style="stroke:#EC7211;stroke-width:3.125;"/></g><!--link Validation to Dashboard--><g class="link" data-entity-1="Validation" data-entity-2="Dashboard" data-source-line="41" data-uid="lnk29" id="link_Validation_Dashboard"><path d="M261.2708,485.1888 C244.2188,468.0221 222.5313,445.0846 205.2083,423.1055 C167.9375,375.8242 134.0941,321.3043 113.8025,287.0855" fill="none" id="Validation-to-Dashboard" style="stroke:#EC7211;stroke-width:3.125;"/><polygon fill="#EC7211" points="110.6146,281.7096,111.8125,291.8987,113.2711,286.1895,118.9803,287.6482,110.6146,281.7096" style="stroke:#EC7211;stroke-width:3.125;"/></g><!--SRC=[PP7TIWCn48NlynHZx-iZ24jriI2qKAcWU37TZTlWxYHaiog8xsx-izlUPSuvcSnykJ5dFd30xt4jDLB7cH6cvr1hIOPJ2nivA4cS36ojeB4nGjB8cCBc4piEg-lak89V1l2ch7zhnfztm14gfPns41rDgfPwo4wHNE19Te8MVbQSlNlU7xaM7w91DqWEMJr5xd4ydoJgDfjPON-pmQl9xaucTlBFD75ojDQ1wo_Hk0N2_4LoYGUjfOP7fBRdsWUy4WMNs9AQ31on5wr_m8TAkHpbvG2nUOBdf8tiI1ZfRyQpHuJ3gKMe9mgV4IXvqIEsd_7A2QhzDl0DjNlGVWAirtTpv4agb9EIaAQwK6JbldVcR7AVAoVskzBPhF3c3DAbjO1yQIP4B1x2Ne5BPEQNZppOlDd5XcM4fV4F]--></g></svg>