<svg xmlns="http://www.w3.org/2000/svg" xmlns:xlink="http://www.w3.org/1999/xlink" contentStyleType="text/css" data-diagram-type="STATE" height="1207.2917px" preserveAspectRatio="none" style="width:1073px;height:1207px;" version="1.1" viewBox="0 0 1073 1207" width="1073.9583px" zoomAndPan="magnify"><title>User Experience Flow</title><defs><linearGradient id="g1xlj8vvwaxs070" x1="50%" x2="50%" y1="0%" y2="100%"><stop offset="0%" stop-color="#FFFFFF"/><stop offset="100%" stop-color="#EEEEEE"/></linearGradient><linearGradient id="g1xlj8vvwaxs071" x1="50%" x2="50%" y1="0%" y2="100%"><stop offset="0%" stop-color="#F18E3E"/><stop offset="100%" stop-color="#EC7211"/></linearGradient></defs><g><g class="title" data-source-line="2"><rect fill="url(#g1xlj8vvwaxs070)" height="45.0846" rx="4.1667" ry="4.1667" style="stroke:#EEEEEE;stroke-width:1.0417;" width="273.5596" x="393.09" y="5.2083"/><text fill="#EC7211" font-family="'Verdana'" font-size="20.8333" font-weight="bold" lengthAdjust="spacing" textLength="252.7262" x="403.5067" y="34.963">User Experience Flow</text></g><!--cluster SignupPage--><g class="cluster" data-entity="SignupPage" data-source-line="22" data-uid="ent0002" id="cluster_SignupPage"><path d="M11.4583,166.9596 L454.1667,166.9596 A4.1667,4.1667 0 0 1 458.3333,171.1263 L458.3333,195.9229 L7.2917,195.9229 L7.2917,171.1263 A4.1667,4.1667 0 0 1 11.4583,166.9596" fill="#F18E3E"/><rect fill="none" height="1035.0208" rx="4.1667" ry="4.1667" style="stroke:#EC7211;stroke-width:0.5208;" width="451.0417" x="7.2917" y="166.9596"/><line style="stroke:#EC7211;stroke-width:0.5208;" x1="7.2917" x2="458.3333" y1="195.9229" y2="195.9229"/><text fill="#4E5D6C" font-family="'Verdana'" font-size="11.4583" lengthAdjust="spacing" textLength="67.7821" x="198.9215" y="186.9705">SignupPage</text></g><!--cluster LoginPage--><g class="cluster" data-entity="LoginPage" data-source-line="29" data-uid="ent0003" id="cluster_LoginPage"><path d="M504.1667,165.918 L771.875,165.918 A4.1667,4.1667 0 0 1 776.0417,170.0846 L776.0417,194.8812 L500,194.8812 L500,170.0846 A4.1667,4.1667 0 0 1 504.1667,165.918" fill="#F18E3E"/><rect fill="none" height="125" rx="4.1667" ry="4.1667" style="stroke:#EC7211;stroke-width:0.5208;" width="276.0417" x="500" y="165.918"/><line style="stroke:#EC7211;stroke-width:0.5208;" x1="500" x2="776.0417" y1="194.8812" y2="194.8812"/><text fill="#4E5D6C" font-family="'Verdana'" font-size="11.4583" lengthAdjust="spacing" textLength="59.3674" x="608.3371" y="185.9289">LoginPage</text></g><!--cluster WhatsAppOTP--><g class="cluster" data-entity="WhatsAppOTP" data-source-line="35" data-uid="ent0004" id="cluster_WhatsAppOTP"><path d="M504.1667,366.9596 L757.2917,366.9596 A4.1667,4.1667 0 0 1 761.4583,371.1263 L761.4583,395.9229 L500,395.9229 L500,371.1263 A4.1667,4.1667 0 0 1 504.1667,366.9596" fill="#F18E3E"/><rect fill="none" height="432.3021" rx="4.1667" ry="4.1667" style="stroke:#EC7211;stroke-width:0.5208;" width="261.4583" x="500" y="366.9596"/><line style="stroke:#EC7211;stroke-width:0.5208;" x1="500" x2="761.4583" y1="395.9229" y2="395.9229"/><text fill="#4E5D6C" font-family="'Verdana'" font-size="11.4583" lengthAdjust="spacing" textLength="81.3889" x="590.0347" y="386.9705">WhatsAppOTP</text></g><ellipse cx="219.7917" cy="254.4596" fill="#0073BB" rx="10.4167" ry="10.4167" style="stroke:#222222;stroke-width:1.0417;"/><g id="SignupPage.PhoneInput"><rect fill="url(#g1xlj8vvwaxs071)" height="55.0049" rx="4.1667" ry="4.1667" style="stroke:#EC7211;stroke-width:0.5208;" width="96.4137" x="171.5833" y="428.0013"/><line style="stroke:#EC7211;stroke-width:0.5208;" x1="171.5833" x2="267.997" y1="462.1729" y2="462.1729"/><text fill="#4E5D6C" font-family="'Verdana'" font-size="11.4583" lengthAdjust="spacing" textLength="65.1637" x="187.2083" y="449.0539">PhoneInput</text></g><g id="SignupPage.PasswordInput"><rect fill="url(#g1xlj8vvwaxs071)" height="55.0049" rx="4.1667" ry="4.1667" style="stroke:#EC7211;stroke-width:0.5208;" width="115.1566" x="32" y="719.2617"/><line style="stroke:#EC7211;stroke-width:0.5208;" x1="32" x2="147.1566" y1="753.4333" y2="753.4333"/><text fill="#4E5D6C" font-family="'Verdana'" font-size="11.4583" lengthAdjust="spacing" textLength="83.9066" x="47.625" y="740.3143">PasswordInput</text></g><g id="SignupPage.Submit"><rect fill="url(#g1xlj8vvwaxs071)" height="55.0049" rx="4.1667" ry="4.1667" style="stroke:#EC7211;stroke-width:0.5208;" width="71.8969" x="223.4271" y="1010.5221"/><line style="stroke:#EC7211;stroke-width:0.5208;" x1="223.4271" x2="295.324" y1="1044.6937" y2="1044.6937"/><text fill="#4E5D6C" font-family="'Verdana'" font-size="11.4583" lengthAdjust="spacing" textLength="40.6469" x="239.0521" y="1031.5747">Submit</text></g><ellipse cx="250" cy="1165.5221" fill="none" rx="11.4583" ry="11.4583" style="stroke:#0073BB;stroke-width:1.0417;"/><ellipse cx="250" cy="1165.5221" fill="#222222" rx="6.25" ry="6.25" style="stroke:#0073BB;stroke-width:1.0417;"/><ellipse cx="535.4167" cy="254.4596" fill="#0073BB" rx="10.4167" ry="10.4167" style="stroke:#222222;stroke-width:1.0417;"/><ellipse cx="593.75" cy="254.4596" fill="none" rx="11.4583" ry="11.4583" style="stroke:#0073BB;stroke-width:1.0417;"/><ellipse cx="593.75" cy="254.4596" fill="#222222" rx="6.25" ry="6.25" style="stroke:#0073BB;stroke-width:1.0417;"/><ellipse cx="594.7917" cy="455.5013" fill="#0073BB" rx="10.4167" ry="10.4167" style="stroke:#222222;stroke-width:1.0417;"/><g id="WhatsAppOTP.OTPInput"><rect fill="url(#g1xlj8vvwaxs071)" height="55.0049" rx="4.1667" ry="4.1667" style="stroke:#EC7211;stroke-width:0.5208;" width="83.8476" x="524.7396" y="719.2617"/><line style="stroke:#EC7211;stroke-width:0.5208;" x1="524.7396" x2="608.5871" y1="753.4333" y2="753.4333"/><text fill="#4E5D6C" font-family="'Verdana'" font-size="11.4583" lengthAdjust="spacing" textLength="52.5976" x="540.3646" y="740.3143">OTPInput</text></g><ellipse cx="536.4583" cy="455.5013" fill="none" rx="11.4583" ry="11.4583" style="stroke:#0073BB;stroke-width:1.0417;"/><ellipse cx="536.4583" cy="455.5013" fill="#222222" rx="6.25" ry="6.25" style="stroke:#0073BB;stroke-width:1.0417;"/><path d="M790.6146,571.543 L982.3092,571.543 A4.1667,4.1667 0 0 1 986.4759,575.7096 L986.4759,605.7145 L786.4479,605.7145 L786.4479,575.7096 A4.1667,4.1667 0 0 1 790.6146,571.543" fill="#F18E3E"/><rect fill="none" height="350.432" rx="4.1667" ry="4.1667" style="stroke:#EC7211;stroke-width:0.5208;" width="200.028" x="786.4479" y="571.543"/><line style="stroke:#EC7211;stroke-width:0.5208;" x1="786.4479" x2="986.4759" y1="605.7145" y2="605.7145"/><text fill="#4E5D6C" font-family="'Verdana'" font-size="11.4583" lengthAdjust="spacing" textLength="46.1243" x="863.3998" y="592.5955">Success</text><ellipse cx="888.25" cy="627.5895" fill="#0073BB" rx="10.4167" ry="10.4167" style="stroke:#222222;stroke-width:1.0417;"/><g id="Success.UserInfo"><rect fill="url(#g1xlj8vvwaxs071)" height="55.0049" rx="4.1667" ry="4.1667" style="stroke:#EC7211;stroke-width:0.5208;" width="79.0527" x="848.7292" y="676.5479"/><line style="stroke:#EC7211;stroke-width:0.5208;" x1="848.7292" x2="927.7819" y1="710.7194" y2="710.7194"/><text fill="#4E5D6C" font-family="'Verdana'" font-size="11.4583" lengthAdjust="spacing" textLength="47.8027" x="864.3542" y="697.6004">UserInfo</text></g><g id="Success.Continue"><rect fill="url(#g1xlj8vvwaxs071)" height="55.0049" rx="4.1667" ry="4.1667" style="stroke:#EC7211;stroke-width:0.5208;" width="82.7733" x="798.9479" y="795.0999"/><line style="stroke:#EC7211;stroke-width:0.5208;" x1="798.9479" x2="881.7213" y1="829.2715" y2="829.2715"/><text fill="#4E5D6C" font-family="'Verdana'" font-size="11.4583" lengthAdjust="spacing" textLength="51.5233" x="814.5729" y="816.1525">Continue</text></g><g id="Success.Logout"><rect fill="url(#g1xlj8vvwaxs071)" height="55.0049" rx="4.1667" ry="4.1667" style="stroke:#EC7211;stroke-width:0.5208;" width="70.6828" x="900.8229" y="795.0999"/><line style="stroke:#EC7211;stroke-width:0.5208;" x1="900.8229" x2="971.5057" y1="829.2715" y2="829.2715"/><text fill="#4E5D6C" font-family="'Verdana'" font-size="11.4583" lengthAdjust="spacing" textLength="39.4328" x="916.4479" y="816.1525">Logout</text></g><ellipse cx="887.2083" cy="900.0999" fill="none" rx="11.4583" ry="11.4583" style="stroke:#0073BB;stroke-width:1.0417;"/><ellipse cx="887.2083" cy="900.0999" fill="#222222" rx="6.25" ry="6.25" style="stroke:#0073BB;stroke-width:1.0417;"/><!--link *start*Success to UserInfo--><g class="link" data-entity-1=".start.Success" data-entity-2="UserInfo" data-source-line="42" data-uid="lnk37" id="link_.start.Success_UserInfo"><path d="M888.25,638.3604 C888.25,647.9645 888.25,656.8499 888.25,670.0583" fill="none" id="*start*Success-to-UserInfo" style="stroke:#EC7211;stroke-width:3.125;"/><polygon fill="#EC7211" points="888.25,676.3083,892.4167,666.9333,888.25,671.0999,884.0833,666.9333,888.25,676.3083" style="stroke:#EC7211;stroke-width:3.125;"/></g><!--link UserInfo to Continue--><g class="link" data-entity-1="UserInfo" data-entity-2="Continue" data-source-line="43" data-uid="lnk39" id="link_UserInfo_Continue"><path d="M856.5104,731.9333 C851.7083,737.4958 847.3958,743.7041 844.5,750.3083 C838.4271,764.1416 837.0286,774.7272 837.4036,788.5606" fill="none" id="UserInfo-to-Continue" style="stroke:#EC7211;stroke-width:3.125;"/><polygon fill="#EC7211" points="837.5729,794.8083,841.484,785.3238,837.4318,789.6018,833.1537,785.5496,837.5729,794.8083" style="stroke:#EC7211;stroke-width:3.125;"/><text fill="#4E5D6C" font-family="'Verdana'" font-size="12.5" lengthAdjust="spacing" textLength="56.2073" x="850.75" y="768.1611">Continue</text></g><!--link UserInfo to Logout--><g class="link" data-entity-1="UserInfo" data-entity-2="Logout" data-source-line="44" data-uid="lnk41" id="link_UserInfo_Logout"><path d="M903.4271,731.9958 C906.5208,737.9333 909.6146,744.2666 912.2083,750.3083 C918.3958,764.6937 922.1646,775.2843 926.4251,788.8155" fill="none" id="UserInfo-to-Logout" style="stroke:#EC7211;stroke-width:3.125;"/><polygon fill="#EC7211" points="928.3021,794.777,929.4609,784.5834,926.7379,789.8091,921.5122,787.0861,928.3021,794.777" style="stroke:#EC7211;stroke-width:3.125;"/><text fill="#4E5D6C" font-family="'Verdana'" font-size="12.5" lengthAdjust="spacing" textLength="43.0176" x="927.8333" y="768.1611">Logout</text></g><!--link Continue to *end*Success--><g class="link" data-entity-1="Continue" data-entity-2=".end.Success" data-source-line="45" data-uid="lnk43" id="link_Continue_.end.Success"><path d="M856.9896,850.4437 C865.5208,864.1624 872.0549,874.6771 878.1278,884.4479" fill="none" id="Continue-to-*end*Success" style="stroke:#EC7211;stroke-width:3.125;"/><polygon fill="#EC7211" points="881.4271,889.7562,880.017,879.5943,878.6777,885.3327,872.9394,883.9933,881.4271,889.7562" style="stroke:#EC7211;stroke-width:3.125;"/></g><!--link Logout to *end*Success--><g class="link" data-entity-1="Logout" data-entity-2=".end.Success" data-source-line="46" data-uid="lnk44" id="link_Logout_.end.Success"><path d="M918.7708,850.4437 C909.8646,864.1624 902.9972,874.7433 896.6534,884.5141" fill="none" id="Logout-to-*end*Success" style="stroke:#EC7211;stroke-width:3.125;"/><polygon fill="#EC7211" points="893.25,889.7562,901.8498,884.162,896.0862,885.3878,894.8604,879.6241,893.25,889.7562" style="stroke:#EC7211;stroke-width:3.125;"/></g><ellipse cx="331.25" cy="73.2096" fill="#0073BB" rx="10.4167" ry="10.4167" style="stroke:#222222;stroke-width:1.0417;"/><ellipse cx="886.4583" cy="1038.0221" fill="none" rx="11.4583" ry="11.4583" style="stroke:#0073BB;stroke-width:1.0417;"/><ellipse cx="886.4583" cy="1038.0221" fill="#222222" rx="6.25" ry="6.25" style="stroke:#0073BB;stroke-width:1.0417;"/><!--link *start* to SignupPage--><g class="link" data-entity-1=".start." data-entity-2="SignupPage" data-source-line="5" data-uid="lnk3" id="link_.start._SignupPage"><path d="M331.25,84.1367 C331.25,93.3815 331.25,108.3281 331.25,125.6104 C331.25,134.2515 331.25,143.4765 331.25,152.8646 C331.25,155.2117 331.25,157.5689 331.25,159.9297 C331.25,161.1102 331.25,162.2915 331.25,163.4729 C331.25,164.0636 331.25,164.6543 331.25,165.245 C331.25,165.5403 331.25,159.5856 331.25,159.8809" fill="none" id="*start*-to-SignupPage" style="stroke:#EC7211;stroke-width:3.125;"/><polygon fill="#EC7211" points="331.25,166.1309,335.4167,156.7559,331.25,160.9226,327.0833,156.7559,331.25,166.1309" style="stroke:#EC7211;stroke-width:3.125;"/></g><!--link SignupPage to WhatsAppOTP--><g class="link" data-entity-1="SignupPage" data-entity-2="WhatsAppOTP" data-source-line="7" data-uid="lnk4" id="link_SignupPage_WhatsAppOTP"><path d="M458.9181,293.4284 C460.0267,293.7657 461.1368,294.1036 462.2482,294.4422 C466.6937,295.7965 471.159,297.1611 475.6276,298.5312 C547.125,320.4544 619.4635,343.8346 625,350.293 C628.7552,354.6732 631.8387,359.5526 634.3589,364.742 C634.674,365.3907 632.4043,360.3497 632.702,361.0077" fill="none" id="SignupPage-to-WhatsAppOTP" style="stroke:#EC7211;stroke-width:3.125;"/><polygon fill="#EC7211" points="635.2778,366.7022,635.2104,356.4432,633.1313,361.9567,627.6177,359.8776,635.2778,366.7022" style="stroke:#EC7211;stroke-width:3.125;"/><text fill="#4E5D6C" font-family="'Verdana'" font-size="12.5" lengthAdjust="spacing" textLength="76.7639" x="611.4583" y="333.7708">Valid signup</text></g><!--link WhatsAppOTP to SignupPage--><g class="link" data-entity-1="WhatsAppOTP" data-entity-2="SignupPage" data-source-line="17" data-uid="lnk12" id="link_WhatsAppOTP_SignupPage"><path d="M637.319,366.8384 C637.2401,366.6797 637.1606,366.5214 637.0805,366.3635 C636.9202,366.0476 636.7574,365.7332 636.5921,365.4203 C636.2615,364.7946 635.9206,364.1748 635.5693,363.5615 C632.759,358.6551 629.2799,354.1615 625,350.293 C613.1354,339.5638 496.5833,346.543 481.25,341.9596 C476.7142,340.6042 472.1687,339.0882 467.632,337.4367 C465.3636,336.6109 463.0974,335.7512 460.8357,334.8607 C460.2703,334.6381 465.5064,336.739 464.9416,336.5126" fill="none" id="WhatsAppOTP-to-SignupPage" style="stroke:#EC7211;stroke-width:3.125;"/><polygon fill="#EC7211" points="459.1403,334.1872,466.2919,341.5429,463.9747,336.1251,469.3925,333.8079,459.1403,334.1872" style="stroke:#EC7211;stroke-width:3.125;"/><text fill="#4E5D6C" font-family="'Verdana'" font-size="12.5" lengthAdjust="spacing" textLength="30.3467" x="487.5" y="333.7708">Back</text></g><!--link SignupPage to SignupPage--><g class="link" data-entity-1="SignupPage" data-entity-2="SignupPage" data-source-line="8" data-uid="lnk5" id="link_SignupPage_SignupPage"><path d="M440.625,254.0221 C452.9896,235.8346 477.1667,235.9805 477.1667,254.4596 C477.1667,272.9284 456.5035,278.2429 444.1389,260.0554" fill="none" id="SignupPage-to-SignupPage" style="stroke:#EC7211;stroke-width:3.125;"/><polygon fill="#EC7211" points="440.625,254.8867,442.45,264.9823,443.5532,259.1939,449.3416,260.2972,440.625,254.8867" style="stroke:#EC7211;stroke-width:3.125;"/><text fill="#4E5D6C" font-family="'Verdana'" font-size="12.5" lengthAdjust="spacing" textLength="77.6733" x="488.625" y="259.2916">Invalid input</text></g><!--link SignupPage to LoginPage--><g class="link" data-entity-1="SignupPage" data-entity-2="LoginPage" data-source-line="9" data-uid="lnk6" id="link_SignupPage_LoginPage"><path d="M446.8022,166.4717 C447.1013,166.3095 447.4007,166.1476 447.7004,165.9862 C448.2997,165.6634 448.9,165.3422 449.5014,165.0228 C450.7042,164.3839 451.9111,163.752 453.1218,163.1274 C457.9646,160.629 462.8688,158.2488 467.8178,156.0168 C477.7158,151.5529 487.793,147.6823 497.9167,144.6471 C550.7292,128.8138 583.7292,109.4492 621.875,149.2513 C625.7331,153.276 628.9587,157.8022 631.647,162.6571 C631.9831,163.264 632.3107,163.876 632.6301,164.4928 C632.7899,164.8012 632.9475,165.1108 633.1032,165.4215 C633.181,165.5769 630.4968,160.1257 630.5736,160.2817" fill="none" id="SignupPage-to-LoginPage" style="stroke:#EC7211;stroke-width:3.125;"/><polygon fill="#EC7211" points="633.3351,165.8885,632.9308,155.6373,631.0339,161.2161,625.455,159.3192,633.3351,165.8885" style="stroke:#EC7211;stroke-width:3.125;"/><text fill="#4E5D6C" font-family="'Verdana'" font-size="12.5" lengthAdjust="spacing" textLength="92.2729" x="504.1667" y="132.7291">Switch to login</text></g><!--link LoginPage to SignupPage--><g class="link" data-entity-1="LoginPage" data-entity-2="SignupPage" data-source-line="11" data-uid="lnk7" id="link_LoginPage_SignupPage"><path d="M634.8204,165.7399 C634.7402,165.5886 634.6594,165.4376 634.5781,165.2869 C633.9272,164.0816 633.2401,162.8987 632.5148,161.741 C629.6139,157.1104 626.1042,152.8841 621.875,149.2513 C577.0729,110.7617 548.1146,145.668 489.0625,144.6471 C437.6771,143.7617 415.7917,115.543 373.4375,144.6471 C368.3034,148.1745 363.7938,152.4201 359.8328,157.1627 C357.8523,159.534 356.0089,162.0296 354.2932,164.6218 C353.8643,165.2698 356.7605,160.6269 356.3474,161.2866" fill="none" id="LoginPage-to-SignupPage" style="stroke:#EC7211;stroke-width:3.125;"/><polygon fill="#EC7211" points="353.0302,166.5836,361.5373,160.8495,355.7945,162.1694,354.4746,156.4266,353.0302,166.5836" style="stroke:#EC7211;stroke-width:3.125;"/><text fill="#4E5D6C" font-family="'Verdana'" font-size="12.5" lengthAdjust="spacing" textLength="103.5217" x="379.6875" y="132.7291">Switch to signup</text></g><!--link LoginPage to WhatsAppOTP--><g class="link" data-entity-1="LoginPage" data-entity-2="WhatsAppOTP" data-source-line="12" data-uid="lnk8" id="link_LoginPage_WhatsAppOTP"><path d="M641.6667,290.9998 C641.6667,291.2961 641.6667,291.5938 641.6667,291.8927 C641.6667,293.0884 641.6667,294.3049 641.6667,295.5406 C641.6667,298.0122 641.6667,300.561 641.6667,303.1761 C641.6667,308.4062 641.6667,313.9014 641.6667,319.5731 C641.6667,330.9166 641.6667,342.9665 641.6667,355.0156 C641.6667,358.0279 641.6667,361.0402 641.6667,364.0413 C641.6667,364.7916 641.6667,365.5412 641.6667,366.2899 C641.6667,366.4771 641.6667,360.4142 641.6667,360.6013" fill="none" id="LoginPage-to-WhatsAppOTP" style="stroke:#EC7211;stroke-width:3.125;"/><polygon fill="#EC7211" points="641.6667,366.8513,645.8333,357.4763,641.6667,361.643,637.5,357.4763,641.6667,366.8513" style="stroke:#EC7211;stroke-width:3.125;"/><text fill="#4E5D6C" font-family="'Verdana'" font-size="12.5" lengthAdjust="spacing" textLength="74.1821" x="647.9167" y="333.7708">Valid phone</text></g><!--link LoginPage to LoginPage--><g class="link" data-entity-1="LoginPage" data-entity-2="LoginPage" data-source-line="13" data-uid="lnk9" id="link_LoginPage_LoginPage"><path d="M758.3333,254.0221 C770.6979,235.8346 794.875,235.9805 794.875,254.4596 C794.875,272.9284 774.2118,278.2429 761.8472,260.0554" fill="none" id="LoginPage-to-LoginPage" style="stroke:#EC7211;stroke-width:3.125;"/><polygon fill="#EC7211" points="758.3333,254.8867,760.1584,264.9823,761.2616,259.1939,767.0499,260.2972,758.3333,254.8867" style="stroke:#EC7211;stroke-width:3.125;"/><text fill="#4E5D6C" font-family="'Verdana'" font-size="12.5" lengthAdjust="spacing" textLength="84.6375" x="806.3333" y="259.2916">Invalid phone</text></g><!--link WhatsAppOTP to Success--><g class="link" data-entity-1="WhatsAppOTP" data-entity-2="Success" data-source-line="15" data-uid="lnk10" id="link_WhatsAppOTP_Success"><path d="M761.572,598.1913 C761.836,598.5031 762.1,598.815 762.3641,599.1269 C762.8921,599.7507 763.4202,600.3745 763.9482,600.9984 C765.0044,602.2461 766.0606,603.4938 767.1164,604.7411 C769.2281,607.2358 771.3386,609.729 773.4454,612.2179 C777.6589,617.1956 777.8194,617.3852 781.9828,622.3038" fill="none" id="WhatsAppOTP-to-Success" style="stroke:#EC7211;stroke-width:3.125;"/><polygon fill="#EC7211" points="786.0208,627.0742,783.1441,617.2266,782.6558,623.0988,776.7836,622.6105,786.0208,627.0742" style="stroke:#EC7211;stroke-width:3.125;"/><text fill="#4E5D6C" font-family="'Verdana'" font-size="12.5" lengthAdjust="spacing" textLength="60.0769" x="713.5417" y="532.1041">Valid OTP</text></g><!--link WhatsAppOTP to WhatsAppOTP--><g class="link" data-entity-1="WhatsAppOTP" data-entity-2="WhatsAppOTP" data-source-line="16" data-uid="lnk11" id="link_WhatsAppOTP_WhatsAppOTP"><path d="M743.75,455.0846 C756.1146,437.5534 780.2917,437.6992 780.2917,455.5013 C780.2917,473.3034 759.7183,478.5453 747.3537,461.0244" fill="none" id="WhatsAppOTP-to-WhatsAppOTP" style="stroke:#EC7211;stroke-width:3.125;"/><polygon fill="#EC7211" points="743.75,455.918,745.7512,465.9801,746.7531,460.1734,752.5598,461.1752,743.75,455.918" style="stroke:#EC7211;stroke-width:3.125;"/><text fill="#4E5D6C" font-family="'Verdana'" font-size="12.5" lengthAdjust="spacing" textLength="70.5322" x="791.75" y="460.3333">Invalid OTP</text></g><!--link Success to *end*--><g class="link" data-entity-1="Success" data-entity-2=".end." data-source-line="19" data-uid="lnk14" id="link_Success_.end."><path d="M886.4583,922.2721 C886.4583,966.8867 886.4583,1001.2721 886.4583,1019.9388" fill="none" id="Success-to-*end*" style="stroke:#EC7211;stroke-width:3.125;"/><polygon fill="#EC7211" points="886.4583,1026.1888,890.625,1016.8138,886.4583,1020.9805,882.2917,1016.8138,886.4583,1026.1888" style="stroke:#EC7211;stroke-width:3.125;"/><text fill="#4E5D6C" font-family="'Verdana'" font-size="12.5" lengthAdjust="spacing" textLength="56.2073" x="892.7083" y="971.0833">Continue</text></g><!--link *start*SignupPage to PhoneInput--><g class="link" data-entity-1=".start.SignupPage" data-entity-2="PhoneInput" data-source-line="23" data-uid="lnk17" id="link_.start.SignupPage_PhoneInput"><path d="M219.7917,265.3659 C219.7917,294.8451 219.7917,376.7617 219.7917,421.5117" fill="none" id="*start*SignupPage-to-PhoneInput" style="stroke:#EC7211;stroke-width:3.125;"/><polygon fill="#EC7211" points="219.7917,427.7617,223.9583,418.3867,219.7917,422.5534,215.625,418.3867,219.7917,427.7617" style="stroke:#EC7211;stroke-width:3.125;"/></g><!--link PhoneInput to PasswordInput--><g class="link" data-entity-1="PhoneInput" data-entity-2="PasswordInput" data-source-line="24" data-uid="lnk19" id="link_PhoneInput_PasswordInput"><path d="M171.4063,475.1159 C153.7708,484.2826 135.375,497.1263 123.9583,514.2513 C81.5833,577.793 82.4054,666.6151 86.1033,712.6151" fill="none" id="PhoneInput-to-PasswordInput" style="stroke:#EC7211;stroke-width:3.125;"/><polygon fill="#EC7211" points="86.6042,718.8451,90.0062,709.1663,86.1868,713.6535,81.6997,709.8341,86.6042,718.8451" style="stroke:#EC7211;stroke-width:3.125;"/><text fill="#4E5D6C" font-family="'Verdana'" font-size="12.5" lengthAdjust="spacing" textLength="74.1821" x="130.2083" y="532.1041">Valid phone</text></g><!--link PasswordInput to Submit--><g class="link" data-entity-1="PasswordInput" data-entity-2="Submit" data-source-line="25" data-uid="lnk21" id="link_PasswordInput_Submit"><path d="M82.7292,774.5117 C72.4688,821.1263 58.7917,918.1784 104.1667,979.2721 C131.9375,1016.6576 180.5186,1029.0468 216.9978,1033.6822" fill="none" id="PasswordInput-to-Submit" style="stroke:#EC7211;stroke-width:3.125;"/><polygon fill="#EC7211" points="223.1979,1034.4701,214.4229,1029.1548,218.0311,1033.8135,213.3725,1037.4217,223.1979,1034.4701" style="stroke:#EC7211;stroke-width:3.125;"/><text fill="#4E5D6C" font-family="'Verdana'" font-size="12.5" lengthAdjust="spacing" textLength="94.6289" x="110.4167" y="971.0833">Valid password</text></g><!--link Submit to *end*SignupPage--><g class="link" data-entity-1="Submit" data-entity-2=".end.SignupPage" data-source-line="26" data-uid="lnk23" id="link_Submit_.end.SignupPage"><path d="M257.3646,1065.9701 C255.3229,1093.3138 252.7134,1128.1018 251.2759,1147.4352" fill="none" id="Submit-to-*end*SignupPage" style="stroke:#EC7211;stroke-width:3.125;"/><polygon fill="#EC7211" points="250.8125,1153.668,255.6628,1144.6277,251.1987,1148.474,247.3524,1144.0098,250.8125,1153.668" style="stroke:#EC7211;stroke-width:3.125;"/><text fill="#4E5D6C" font-family="'Verdana'" font-size="12.5" lengthAdjust="spacing" textLength="44.342" x="260.4167" y="1114.6249">Submit</text></g><!--link *start*LoginPage to PhoneInput--><g class="link" data-entity-1=".start.LoginPage" data-entity-2="PhoneInput" data-source-line="30" data-uid="lnk25" id="link_.start.LoginPage_PhoneInput"><path d="M539.5,264.2096 C546.7813,281.1576 559.6354,318.9492 541.6667,341.9596 C532.2708,353.9909 522.9375,345.8451 508.3333,350.293 C422.7396,376.3659 331.0534,410.8068 274.1159,432.9734" fill="none" id="*start*LoginPage-to-PhoneInput" style="stroke:#EC7211;stroke-width:3.125;"/><polygon fill="#EC7211" points="268.2917,435.2409,278.5396,435.7225,273.1452,433.3513,275.5163,427.9569,268.2917,435.2409" style="stroke:#EC7211;stroke-width:3.125;"/></g><!--link PhoneInput to Submit--><g class="link" data-entity-1="PhoneInput" data-entity-2="Submit" data-source-line="31" data-uid="lnk26" id="link_PhoneInput_Submit"><path d="M221.625,483.3763 C228.2396,580.4701 250.4916,906.6824 257.1166,1003.8595" fill="none" id="PhoneInput-to-Submit" style="stroke:#EC7211;stroke-width:3.125;"/><polygon fill="#EC7211" points="257.5417,1010.0951,261.061,1000.4584,257.1874,1004.8988,252.747,1001.0252,257.5417,1010.0951" style="stroke:#EC7211;stroke-width:3.125;"/><text fill="#4E5D6C" font-family="'Verdana'" font-size="12.5" lengthAdjust="spacing" textLength="74.1821" x="257.2917" y="751.5937">Valid phone</text></g><!--link Submit to *end*LoginPage--><g class="link" data-entity-1="Submit" data-entity-2=".end.LoginPage" data-source-line="32" data-uid="lnk28" id="link_Submit_.end.LoginPage"><path d="M295.5208,1035.7513 C430.9792,1030.8971 903.8438,1011.7721 962.5,979.2721 C990.2813,963.8763 995.2083,952.1159 1005.2083,921.9805 C1054.2396,774.1471 1067.0313,714.4909 1005.2083,571.543 C948.2083,439.7513 895.2917,420.043 769.7917,350.293 C705.3021,314.4492 662.3542,358.9284 609.375,307.5846 C598.125,296.6784 595.3646,284.2441 594.4792,272.4733" fill="none" id="Submit-to-*end*LoginPage" style="stroke:#EC7211;stroke-width:3.125;"/><polygon fill="#EC7211" points="594.0104,266.2409,590.5587,275.902,594.4011,271.4345,598.8686,275.2769,594.0104,266.2409" style="stroke:#EC7211;stroke-width:3.125;"/><text fill="#4E5D6C" font-family="'Verdana'" font-size="12.5" lengthAdjust="spacing" textLength="44.342" x="994.7917" y="532.1041">Submit</text></g><!--link *start*WhatsAppOTP to OTPInput--><g class="link" data-entity-1=".start.WhatsAppOTP" data-entity-2="OTPInput" data-source-line="36" data-uid="lnk31" id="link_.start.WhatsAppOTP_OTPInput"><path d="M593.8542,466.1576 C590,505.7513 575.907,650.6973 569.8758,712.7181" fill="none" id="*start*WhatsAppOTP-to-OTPInput" style="stroke:#EC7211;stroke-width:3.125;"/><polygon fill="#EC7211" points="569.2708,718.9388,574.3253,710.0111,569.7749,713.7549,566.0311,709.2045,569.2708,718.9388" style="stroke:#EC7211;stroke-width:3.125;"/></g><!--link OTPInput to Submit--><g class="link" data-entity-1="OTPInput" data-entity-2="Submit" data-source-line="37" data-uid="lnk32" id="link_OTPInput_Submit"><path d="M558.6667,774.5117 C542.7917,822.9076 502.5833,925.0846 432.2917,979.2721 C391.6875,1010.5638 339.3831,1024.2741 301.9247,1030.9199" fill="none" id="OTPInput-to-Submit" style="stroke:#EC7211;stroke-width:3.125;"/><polygon fill="#EC7211" points="295.7708,1032.0117,305.7296,1034.4766,300.8991,1031.1019,304.2738,1026.2714,295.7708,1032.0117" style="stroke:#EC7211;stroke-width:3.125;"/><text fill="#4E5D6C" font-family="'Verdana'" font-size="12.5" lengthAdjust="spacing" textLength="60.0769" x="464.5833" y="971.0833">Valid OTP</text></g><!--link Submit to *end*WhatsAppOTP--><g class="link" data-entity-1="Submit" data-entity-2=".end.WhatsAppOTP" data-source-line="38" data-uid="lnk34" id="link_Submit_.end.WhatsAppOTP"><path d="M284.0625,1010.0221 C303.25,987.8138 329.3125,954.7617 345.8333,921.9805 C418.9583,776.8763 376.875,716.6471 450,571.543 C472.3646,527.1576 507.9398,486.8479 524.5648,469.0667" fill="none" id="Submit-to-*end*WhatsAppOTP" style="stroke:#EC7211;stroke-width:3.125;"/><polygon fill="#EC7211" points="528.8333,464.5013,519.387,468.5037,525.2763,468.3058,525.4742,474.195,528.8333,464.5013" style="stroke:#EC7211;stroke-width:3.125;"/><text fill="#4E5D6C" font-family="'Verdana'" font-size="12.5" lengthAdjust="spacing" textLength="44.342" x="456.25" y="751.5937">Submit</text></g><!--SRC=[bPFRIiGm48RlynJZbI3a1NeXg2WiU5XO3nVYHMndjy5kKfhK2hBlRdDgadP1xLNcdo_pJsReYQvnZy06HMN7n0w9vhf1U5BOmVLNYnr7KIBSD78Wv1Jk61SkU3rx0qhFOSDtec_NRBnAujccNcgcrKNRFZokeO1drl0Ab4NcP18Mi1AV5kMYxVMSl9KxBZou6RWkQz0I6gCI4fEBef7r7UJiiLRRMWgSSQbzwDDn92rXxVkoHAMcSgE-O7BRKF0OcJtcafKVuxIzWKcRRHHm9ONceaUpAKeftAFIMC56Cus6eqIPOrhicy3uXMMkpLDMTkv6Zg7BCgK6sLLEoSTayIplPl2-vmdg0KlxNEpU2UH0V9TnrlzfScuvTVUhNphot75Keby8ZhcPpVt9A-mkzp5_tKfifHL3O3DXi-cI5z0uC6aNumuMc2xwNgpemI0TVW00]--></g></svg>